<?xml version="1.0" encoding="UTF-8"?>
<svg id="_レイヤー_2" data-name="レイヤー 2" xmlns="http://www.w3.org/2000/svg" viewBox="0 0 110.6044922 39.9218172">
  <defs>
    <style>
      .cls-1 {
        fill: #fff;
      }
    </style>
  </defs>
  <g id="_レイヤー_1-2" data-name="レイヤー 1">
    <g>
      <g>
        <g>
          <path class="cls-1" d="M38.0785675,10.3047138l3.3351853,7.5041548h-2.3190477l-2.8660118-6.4098931h-2.2148664v6.4098931h-2.0843419V.5857784h2.0843419v8.885151h2.1366946l2.5534677-4.481466h2.4232291l-3.0486508,5.3152504Z"/>
          <path class="cls-1" d="M49.6193099,17.8088685h-6.7224374V4.9894633h9.0414375v10.5003575c0,1.2768529-1.042433,2.3190477-2.3190001,2.3190477ZM44.8249662,6.943519v8.885189h5.1590023V6.943519h-5.1590023Z"/>
          <path class="cls-1" d="M63.7131865,15.4898208c0,1.2507957-.9900803,2.2669332-2.2145805,2.3190477h-6.5921988V.5597307h2.0843419v4.4297326h6.7224374v10.5003575ZM56.9907491,6.8914045v9.0675422h4.69021V6.8914045h-4.69021Z"/>
          <path class="cls-1" d="M75.4361867,15.4898208c0,1.2507957-.9900326,2.2669332-2.2145329,2.3190477h-6.5400843v-8.3379391h6.6703229v-2.5795249h-6.4359029v-1.9019411h8.5201972v10.5003575ZM68.6877873,11.3729658v4.5859809h4.6641051v-4.5859809h-4.6641051Z"/>
          <path class="cls-1" d="M78.4046174,17.8088685v-1.9020364h6.9046953v-4.2731602h-6.7483994v-6.6442086h8.8851416v1.9019411h-6.800895v2.5795249h6.7487805v6.0188915c0,1.2768529-1.042433,2.3190477-2.3190477,2.3190477h-6.6702753Z"/>
          <path class="cls-1" d="M99.1687692,17.8088685h-2.0322274V6.8914045h-4.6641527v10.9174641h-2.0842943V.5597307l2.0842943.0260477v4.4036849h4.3776659c1.2765671,0,2.3187143,1.0420995,2.3187143,2.3186666v10.5007386Z"/>
          <path class="cls-1" d="M104.2211607,1.810574v1.9540556h-2.0842943v-1.9540556h2.0842943ZM104.2211607,4.9894633v12.8194052h-2.0842943V4.9894633h2.0842943Z"/>
        </g>
        <g>
          <path class="cls-1" d="M25.2082861,10.1844312V0h-1.4895506v4.5574465h-.9130518V.0011909H6.8396748v1.4913608h4.2044112v1.0024658l-4.2044112,2.2431625v13.6161282h15.9660089v-5.1866791h2.4026024v-1.4913608h-2.4026024v-5.6280803h.9130518v4.1362432h1.4895506ZM21.3149777,4.5574465h-4.7068351V1.4930757h4.7068351v3.0643708ZM15.1168772,1.4925517v2.2437341l-2.5815257-1.3017288v-.9420054h2.5815257ZM11.8462397,3.7570078l4.5172412,2.2781754H7.5767567l4.2694829-2.2781754ZM8.294891,7.5264393h6.7686331v4.149829h-6.7686331v-4.149829ZM15.0629525,16.8630427h-6.7686924v-3.6954136h6.7686924v3.6954136ZM21.3149777,16.8630427h-4.7607121v-3.6954136h4.7607121v3.6954136ZM21.3149777,11.6762683h-4.7607121v-5.6280803h4.7607121v5.6280803Z"/>
          <rect class="cls-1" x="23.7187355" y="16.9068684" width="1.4895506" height="1.4616355"/>
        </g>
      </g>
      <g>
        <path class="cls-1" d="M4.2763672,39.8534578c-.28125,0-.4462891-.1650391-.4462891-.4375,0-.2236328.0380859-.7382812.0576172-1.3212891.0292969-.6416016.0488281-1.3613281.0488281-1.8564453-.9619141,1.3310547-2.3037109,2.4199219-3.9267578,2.7695312l-.0097656-.0585938c1.5839844-.8447266,2.7998047-2.1474609,3.6455078-3.7128906H1.2050781c-.3496094,0-.6992188,0-1.0498047.0585938l-.1552734-.3496094c.4570312.0390625.9140625.0576172,1.3798828.0576172h2.5566406v-1.9433594h-1.8466797c-.3496094,0-.7001953.0097656-1.0498047.0683594l-.1650391-.3603516c.4667969.0390625.9228516.0585938,1.3896484.0585938h1.6621094c-.0097656-.7382812-.0097656-1.2441406-.1943359-1.9736328l1.0595703.3115234c.0878906.0292969.1943359.0683594.1943359.1748047,0,.1074219-.1748047.2138672-.2529297.2626953v1.2246094h1.3808594l.3789062-.5732422c.0292969-.0488281.0869141-.1269531.1455078-.1269531.0488281,0,.078125.0195312.1748047.1074219l.6708984.5732422c.0585938.0488281.0976562.0878906.0976562.1552734,0,.0878906-.078125.0976562-.1464844.0976562h-2.7021484c0,.6513672.0097656,1.2929688.0097656,1.9433594h2.3427734l.3984375-.6503906c.0292969-.0488281.1064453-.1269531.1552734-.1269531s.0683594.0195312.1748047.1074219l.7392578.6513672c.0683594.0576172.0966797.0869141.0966797.1455078,0,.0869141-.0771484.1064453-.1552734.1064453h-3.6152344c.7675781,1.3125,2.5068359,2.5957031,4.0332031,2.7509766v.0585938c-.4863281.2333984-.7675781.4570312-1.0693359.9033203-1.3994141-.6992188-2.6826172-2.0986328-3.0908203-3.6640625,0,.9433594.0097656,1.8857422.0292969,2.8193359,0,.4082031.0292969.8164062.0292969,1.2148438,0,.3300781-.2041016.5341797-.5351562.5341797Z"/>
        <path class="cls-1" d="M13.0253906,35.6542391c-.3603516,0-.7001953.0097656-1.0498047.0683594l-.1660156-.359375c.4667969.0390625.9238281.0576172,1.390625.0576172h2.4492188c0-.9033203-.0097656-1.7978516-.0195312-2.7021484h-1.9736328c-.3496094,0-.6992188,0-1.0488281.0683594l-.15625-.359375c.4570312.0390625.9238281.0585938,1.3808594.0585938h1.7978516c-.0097656-.5058594.0292969-1.0302734-.2236328-1.4873047l1.1855469.3300781c.0585938.0195312.1367188.0488281.1367188.1171875,0,.0966797-.2236328.2236328-.3017578.2617188-.0195312.1367188-.0195312.2138672-.0195312.3408203v.4375h1.6621094l.4179688-.4863281c.0683594-.0878906.0976562-.1259766.1552734-.1259766.0488281,0,.1171875.0576172.1757812.1064453l.6220703.4960938c.0380859.0292969.0869141.0673828.0869141.1357422,0,.0878906-.0771484.1064453-.1455078.1064453h-2.9746094c-.0097656.9042969-.0097656,1.7988281-.0097656,2.7021484h.4179688c.4082031-.6601562.6806641-1.3212891.9140625-2.0605469.0390625-.1259766.0585938-.2236328.0771484-.3398438l.9433594.5732422c.0869141.0488281.1064453.0585938.1064453.1171875,0,.1162109-.0478516.1259766-.4462891.2138672-.4082031.4755859-.9238281,1.0878906-1.390625,1.4960938h1.7011719l.4765625-.5048828c.0576172-.0683594.0966797-.1171875.1552734-.1171875.0390625,0,.0878906.0390625.1748047.1074219l.6611328.5146484c.0390625.0292969.0878906.0585938.0878906.1367188,0,.0869141-.078125.0966797-.15625.0966797h-3.7226562v.1074219c.8359375,1.1074219,2.546875,2.2353516,3.9658203,2.2451172l.0390625.078125c-.4082031.1455078-.7480469.5537109-.9814453.9130859-1.0302734-.4375-2.4882812-1.9052734-3.0234375-2.8964844,0,.6318359,0,1.2539062.0195312,1.8857422.0097656.3886719.0390625.7773438.0390625,1.1660156,0,.3798828-.1162109.6708984-.5244141.6708984-.1757812,0-.3994141-.0673828-.3994141-.3398438,0-.4472656.0683594-1.3417969.0878906-1.8564453.0195312-.4179688.0292969-.8457031.0292969-1.2636719-.9140625,1.1855469-2.3037109,2.3134766-3.7421875,2.7509766l-.0390625-.0683594c1.0302734-.6220703,2.7900391-2.3427734,3.3632812-3.3925781h-2.2060547ZM14.3759766,33.9149813c.2138672.2236328.3398438.4951172.3398438.7675781,0,.2529297-.1650391.515625-.4375.515625-.1259766,0-.2421875-.0585938-.3398438-.1269531-.0966797-.0683594-.1357422-.2910156-.1552734-.4082031-.1171875-.5634766-.3398438-1.0302734-.6806641-1.4873047l.0390625-.0292969c.4179688.1757812.9238281.4375,1.234375.7685547Z"/>
        <path class="cls-1" d="M27.5957031,38.7841219c1.6132812-.6025391,3.0517578-1.7011719,3.0517578-3.5771484,0-.71875-.2333984-1.3896484-.7675781-1.8847656-.5732422-.5253906-1.2832031-.7197266-2.0410156-.7197266-.2041016,0-.4082031.0195312-.6025391.0488281.2910156.1259766.8359375.4765625.8359375.8359375,0,.1552734-.3212891.796875-.4082031.9912109-.4277344.9335938-1.2441406,2.5947266-1.8662109,3.3632812-.1464844.1748047-.3505859.3398438-.5927734.3398438-.2236328,0-.3701172-.2138672-.6220703-.5732422-.15625-.2138672-.1855469-.2431641-.3896484-.4082031-.2910156-.2431641-.4365234-.7578125-.4365234-1.1279297,0-.796875.2910156-1.6035156.7871094-2.2255859.8261719-1.0498047,2.1191406-1.5644531,3.4306641-1.5644531,1.8271484,0,3.5771484,1.078125,3.5771484,3.0712891,0,2.2060547-1.9921875,3.3242188-3.9560547,3.4990234v-.0683594ZM25.1464844,33.9823641c-.4277344.5839844-.6708984,1.2929688-.6708984,1.9150391,0,.4277344.2138672,1.4580078.6513672,1.4580078.3789062,0,.9912109-1.2539062,1.2734375-1.8564453.2236328-.4765625.796875-1.6914062.796875-2.1767578,0-.2431641-.1552734-.4570312-.3300781-.6123047-.6611328.1552734-1.2734375.6601562-1.7207031,1.2724609Z"/>
        <path class="cls-1" d="M40.8925781,31.980411c-.1943359.1552734-.5341797.515625-.5341797.7675781,0,.0878906.0576172.1171875.1748047.15625.2431641.0869141.4179688.3203125.4179688.5927734,0,.3398438-.2724609.6220703-.6220703.6220703-.359375,0-.6220703-.2919922-.6220703-.6513672,0-.6318359.5537109-1.2734375,1.0205078-1.6425781l.1650391.1552734ZM42.4189453,31.980411c-.1845703.1552734-.5253906.515625-.5253906.7675781,0,.1074219.0878906.1269531.1748047.15625.2529297.0966797.4179688.3203125.4179688.5927734,0,.3398438-.28125.6220703-.6220703.6220703-.359375,0-.6220703-.2919922-.6220703-.6513672,0-.6318359.5546875-1.2734375,1.0205078-1.6425781l.15625.1552734Z"/>
        <path class="cls-1" d="M51.0986328,36.3739657c.0585938-.0585938.1357422-.1269531.2138672-.1269531s.1650391.0585938.2236328.1074219l.4179688.3789062c.1162109.1074219.1357422.1269531.1357422.2138672,0,.1552734-.0673828.1845703-.5439453.359375-1.3613281,1.8857422-3.4697266,2.5859375-5.6279297,2.6152344v-.078125c1.0400391-.1455078,2.1191406-.5732422,3.0615234-1.2148438-.2519531-.0195312-.3007812-.1357422-.5048828-.515625-.1269531-.2324219-.2919922-.4560547-.4863281-.6308594-.6220703.5537109-1.2441406,1.0302734-2.0410156,1.2919922l-.0292969-.0576172c.3691406-.2919922.7099609-.5742188,1.0400391-.9238281.3984375-.4375.8457031-.9521484,1.1660156-1.4580078.1269531-.1943359.2333984-.3886719.3115234-.6025391h-2.0019531c0,.4765625-.1943359,1.1083984-.7783203,1.1083984-.2714844,0-.4375-.1845703-.4375-.4472656s.1660156-.4082031.3798828-.6025391c.3300781-.2919922.4755859-.4570312.6123047-.9726562h.0478516c.0976562.2333984.1367188.4179688.1660156.6806641h6.1523438l.2138672-.2236328c.0683594-.0683594.1357422-.1357422.2138672-.1357422.0869141,0,.1650391.0585938.2236328.1064453l.6806641.5253906c.0673828.0488281.0966797.1357422.0966797.2041016,0,.2714844-.3300781.2714844-.7099609.28125-.2041016.1367188-.796875.4472656-1.0302734.5644531l-.0380859-.0390625c.1259766-.3115234.2519531-.7197266.3105469-1.0498047h-3.7714844l.5253906.1845703c.0771484.0292969.1259766.0976562.1259766.1552734,0,.0585938-.0390625.0976562-.3886719.2919922-.0966797.1162109-.1943359.2333984-.2919922.3496094h2.0419922l.3203125-.3398438ZM50.3701172,31.8925203c0-.5830078-.0097656-.6503906-.1367188-.9814453l1.0302734.2236328c.078125.0195312.1464844.0488281.1464844.1357422,0,.1269531-.15625.2236328-.2529297.2822266,0,.1171875.0097656.2236328.0097656.3398438h1.4091797l.359375-.4658203c.0292969-.0390625.0878906-.1171875.1464844-.1171875.0380859,0,.0576172.0097656.1748047.0976562l.6123047.4667969c.0478516.0380859.0966797.0869141.0966797.1455078,0,.0966797-.0673828.1064453-.1455078.1064453h-2.6435547v.3408203c0,.3691406-.0390625.5634766-.5546875.5634766-.2333984,0-.2519531-.1259766-.2519531-.4082031v-.4960938h-1.3808594v.2431641c0,.2138672-.0097656.4863281-.0576172.5351562-.0976562.0966797-.2626953.1357422-.3896484.1357422-.2138672,0-.3398438-.0488281-.3398438-.2431641v-.6708984h-1.5068359c-.3496094,0-.6992188.0097656-1.0498047.0683594l-.1650391-.359375c.4667969.0390625.9238281.0576172,1.3896484.0576172h1.3222656c0-.3398438-.0097656-.640625-.1064453-.9716797l.9228516.2041016c.0878906.0195312.2138672.0488281.2138672.1552734,0,.0878906-.0869141.15625-.2333984.2236328v.3886719h1.3808594ZM51.8759766,33.1181063l.1464844-.1943359c.0576172-.078125.1259766-.1269531.1845703-.1269531.0390625,0,.0771484.0195312.1650391.078125l.4277344.2910156c.0585938.0390625.0966797.0976562.0966797.1660156,0,.0966797-.0771484.1748047-.2421875.3007812,0,.1943359-.0097656.3984375-.0195312.6025391v.6318359c0,.2333984-.2431641.3310547-.5253906.3310547-.2333984,0-.2333984-.0976562-.2333984-.1660156v-.2138672h-4.4414062c0,.2041016,0,.3701172-.4863281.3701172-.3203125,0-.3398438-.0976562-.3398438-.3798828,0-.5341797.0097656-.9912109.0097656-1.5351562,0-.1845703-.0292969-.4277344-.0585938-.6123047l.9140625.4570312h4.4023438ZM47.4345703,34.5849032h.9423828v-1.234375h-.9423828v1.234375ZM48.5224609,36.9472078c-.1455078.1552734-.3007812.3115234-.4560547.4570312h.0673828c.4765625,0,1.2832031.1162109,1.2832031.7382812,0,.0683594-.0097656.1367188-.0292969.2041016.5253906-.3984375,1.0302734-.8359375,1.3808594-1.3994141h-2.2460938ZM49.1445312,34.5849032h.953125v-1.234375h-.953125v1.234375ZM51.8759766,33.3505282h-1.0302734v1.234375h1.0302734v-1.234375Z"/>
        <path class="cls-1" d="M56.9794922,33.9540438c.1845703-.15625.5341797-.5058594.5341797-.7685547,0-.0771484-.0390625-.1064453-.1748047-.1552734-.2529297-.0976562-.4277344-.3203125-.4277344-.5830078,0-.3505859.2822266-.6220703.6220703-.6220703.3691406,0,.6220703.28125.6220703.6416016,0,.6318359-.5439453,1.2734375-1.0107422,1.6523438l-.1650391-.1650391ZM58.5146484,33.9540438c.1845703-.15625.5253906-.5058594.5253906-.7685547,0-.0966797-.0585938-.1162109-.1748047-.1552734-.2529297-.0976562-.4179688-.3203125-.4179688-.5830078,0-.3505859.28125-.6220703.6220703-.6220703.359375,0,.6220703.28125.6220703.6416016,0,.6318359-.5546875,1.2734375-1.0205078,1.6523438l-.15625-.1650391Z"/>
        <path class="cls-1" d="M71.7246094,38.7841219c1.6132812-.6025391,3.0517578-1.7011719,3.0517578-3.5771484,0-.71875-.2333984-1.3896484-.7675781-1.8847656-.5732422-.5253906-1.2832031-.7197266-2.0410156-.7197266-.2041016,0-.4082031.0195312-.6035156.0488281.2919922.1259766.8359375.4765625.8359375.8359375,0,.1552734-.3203125.796875-.4082031.9912109-.4277344.9335938-1.2441406,2.5947266-1.8662109,3.3632812-.1455078.1748047-.3496094.3398438-.5927734.3398438-.2236328,0-.3691406-.2138672-.6220703-.5732422-.1552734-.2138672-.1845703-.2431641-.3886719-.4082031-.2910156-.2431641-.4375-.7578125-.4375-1.1279297,0-.796875.2919922-1.6035156.7871094-2.2255859.8261719-1.0498047,2.1191406-1.5644531,3.4316406-1.5644531,1.8271484,0,3.5771484,1.078125,3.5771484,3.0712891,0,2.2060547-1.9931641,3.3242188-3.9560547,3.4990234v-.0683594ZM69.2753906,33.9823641c-.4277344.5839844-.6708984,1.2929688-.6708984,1.9150391,0,.4277344.2138672,1.4580078.6513672,1.4580078.3789062,0,.9912109-1.2539062,1.2734375-1.8564453.2226562-.4765625.796875-1.6914062.796875-2.1767578,0-.2431641-.15625-.4570312-.3310547-.6123047-.6611328.1552734-1.2734375.6601562-1.7197266,1.2724609Z"/>
        <path class="cls-1" d="M82.2314453,32.14545c0-.1845703-.1650391-.4570312-.6894531-.6123047.1455078-.1552734.28125-.2138672.4951172-.2138672.4277344,0,1.1572266.3886719,1.1572266.8164062,0,.1464844-.0585938.2529297-.2138672.4765625-.1171875.1748047-.2041016.3789062-.2822266.5732422.3789062-.1455078.515625-.2333984.8457031-.4570312.0976562-.0673828.1650391-.0966797.2919922-.0966797.2910156,0,.4853516.1845703.4853516.4082031,0,.2041016-.2529297.3105469-.4082031.3789062-.4853516.2041016-.9912109.3789062-1.4970703.5253906-.3984375,1.15625-1.234375,3.4208984-1.7392578,4.4902344-.2236328.4765625-.3310547.7001953-.6025391.7001953-.2431641,0-.3789062-.2626953-.3789062-.4863281,0-.2138672.1162109-.4375.3105469-.7392578.3300781-.5146484.8066406-1.4384766,1.0595703-2.0019531.2626953-.5830078.4863281-1.1855469.6904297-1.7978516-.3408203.0771484-.7783203.1455078-1.1279297.1455078-.3105469,0-.5244141-.0585938-.7578125-.2724609-.1650391-.1552734-.2431641-.2910156-.2919922-.5146484.3115234.1259766.5927734.1943359.9238281.1943359.4853516,0,1.0009766-.1074219,1.4677734-.2333984.0966797-.3300781.2617188-.9521484.2617188-1.2832031ZM83.2519531,37.0546297c0,.4853516.3310547.9912109.8164062,1.1660156.3310547.1162109.6904297.1357422,1.0400391.1357422.3603516,0,.6611328-.0195312,1.1181641-.0869141.1748047-.0292969.3115234-.0488281.3691406-.0488281.2431641,0,.5644531.2919922.5644531.5439453,0,.4179688-.9921875.4179688-1.2832031.4179688-.5644531,0-1.4775391-.0380859-2.1289062-.3398438-.4375-.2041016-.7578125-.5439453-.7578125-1.0888672,0-.2910156.0478516-.6318359.2714844-.8457031-.0097656.0683594-.0097656.1074219-.0097656.1464844ZM85.4980469,33.8563875c.9326172,0,1.7587891.4472656,1.7587891.9238281,0,.1943359-.1064453.3300781-.3007812.3300781-.0585938,0-.3017578-.0390625-.3603516-.0488281-.0478516-.0097656-.3496094-.0390625-.4951172-.0390625-.2529297,0-1.0791016.3212891-1.3125.4570312l-.0292969-.0488281c.1650391-.1455078.4472656-.359375.6611328-.5146484.1552734-.1171875.2626953-.2333984.2626953-.3017578,0-.28125-1.0595703-.3105469-1.2734375-.3105469-.1171875,0-.2431641,0-.359375.0097656.3789062-.3408203.9521484-.4570312,1.4482422-.4570312Z"/>
        <path class="cls-1" d="M95.4130859,32.3690828c0-.2910156-.2236328-.4667969-.6123047-.7578125.1455078-.0683594.2333984-.0878906.3984375-.0878906.515625,0,1.2148438.3115234,1.2148438.8066406,0,.1269531-.0869141.3505859-.2041016.5644531-.1357422.2519531-.2333984.4375-.2910156.5634766,1.5644531,0,3.0712891.7675781,3.0712891,2.5175781,0,2.1865234-2.1386719,3.1689453-4.0537109,3.1689453h-.2714844v-.0585938c1.59375-.359375,3.4306641-1.4189453,3.4306641-3.265625,0-1.3125-1.1083984-2.0224609-2.3232422-2.0419922-.4277344.9335938-1.0009766,2.1972656-1.6425781,2.9941406.3886719.4082031.6220703.6904297.6220703.9619141,0,.1943359-.0966797.3701172-.3203125.3701172-.3408203,0-.6416016-.4277344-.8066406-.6904297-.3212891.359375-.9726562,1.0498047-1.4775391,1.0498047-.3789062,0-.4667969-.2333984-.5732422-.5351562-.0878906-.2421875-.1464844-.3496094-.2626953-.5634766-.0488281-.0966797-.0878906-.2138672-.0878906-.3203125,0-.2822266.2236328-.9238281.3505859-1.1865234.2324219-.4755859.5439453-.8457031.9521484-1.1855469-.2626953-1.0791016-.4277344-1.59375-.7871094-2.1484375.5537109.0097656.9619141.5546875,1.1171875,1.0302734.0488281.15625.1464844.5351562.1943359.7392578.5839844-.3691406,1.3710938-.6806641,2.0605469-.7675781.0976562-.2822266.3017578-.8847656.3017578-1.1572266ZM92.6621094,35.1786532c-.4570312.5244141-.8457031,1.1953125-.8457031,1.9140625,0,.2529297.0292969.6513672.3798828.6513672.3300781,0,.9033203-.6416016,1.1074219-.9033203-.2626953-.5253906-.4853516-1.0888672-.6416016-1.6621094ZM93.1582031,34.692325c.1455078.5146484.3203125,1.0693359.5830078,1.5361328.4765625-.6904297.9433594-1.6044922,1.2539062-2.3916016-.6708984.1357422-1.3222656.4082031-1.8369141.8554688Z"/>
        <path class="cls-1" d="M103.6357422,31.6981844c.2617188,0,.6796875.3310547.8544922.515625.1269531.1259766.2236328.2529297.2236328.4375s-.1064453.4472656-.3007812.8554688c-.3496094.7285156-.5830078,1.6621094-.5830078,2.46875,0,.3984375.0966797,1.3896484.3398438,1.3896484.0390625,0,.0878906-.0195312.1455078-.1943359.15625-.4765625.6220703-1.6425781.8554688-2.0703125h.0683594c-.3017578,1.3320312-.5634766,2.5566406-.5634766,2.9550781,0,.1552734.0195312.359375.0380859.4951172.0097656.0683594.0195312.1845703.0195312.2529297,0,.2236328-.0292969.4570312-.3105469.4570312-.1943359,0-.3310547-.0878906-.4472656-.2333984-.5244141-.6513672-.6708984-1.8076172-.6708984-2.6240234,0-.9335938.2138672-2.109375.3886719-3.0429688.0390625-.1845703.0683594-.4560547.0683594-.6503906,0-.3896484-.1455078-.6318359-.3789062-.9335938.0869141-.0488281.1552734-.078125.2529297-.078125ZM107.1054688,37.3651766c.4277344.1943359.9228516.2236328,1.3896484.2236328.3115234,0,.6220703-.0195312.9335938-.0488281.1162109-.0097656.2431641-.0292969.359375-.0292969.3007812,0,.8164062.0976562.8164062.4960938,0,.4179688-.6123047.4179688-1.0400391.4179688-.7480469,0-2.3037109-.0390625-2.8671875-.5537109-.3115234-.2919922-.4570312-.6416016-.4570312-1.0693359,0-.1171875.0097656-.3505859.1357422-.5253906.1269531.5058594.2236328.8554688.7294922,1.0888672ZM108.8935547,32.339786c.3505859,0,1.234375.1074219,1.234375.5839844,0,.3007812-.3203125.3691406-.8457031.4462891-.4277344.0683594-1.3603516.3798828-1.6816406.6611328l-.0576172-.0585938c.1552734-.1650391.4472656-.4560547.6796875-.6796875.1367188-.1269531.15625-.1748047.15625-.2138672,0-.1074219-.3115234-.1171875-.3984375-.1171875-.5253906,0-1.2148438.2529297-1.7011719.4472656.3496094-.8261719,1.8173828-1.0693359,2.6142578-1.0693359Z"/>
      </g>
    </g>
  </g>
</svg>