<?xml version="1.0" encoding="UTF-8"?>
<svg id="_レイヤー_2" data-name="レイヤー 2" xmlns="http://www.w3.org/2000/svg" xmlns:xlink="http://www.w3.org/1999/xlink" viewBox="0 0 225.1701595 51.7001953">
  <defs>
    <style>
      .cls-1 {
        fill: url(#_名称未設定グラデーション_34);
      }

      .cls-2 {
        fill: #776c66;
      }
    </style>
    <radialGradient id="_名称未設定グラデーション_34" data-name="名称未設定グラデーション 34" cx="-3.4934667" cy="28.1287065" fx="-3.4934667" fy="28.1287065" r="1.7531352" gradientTransform="translate(6.2325612 3.67086) scale(.9871373)" gradientUnits="userSpaceOnUse">
      <stop offset="0" stop-color="#00a0e9"/>
      <stop offset="1" stop-color="#1d2088"/>
    </radialGradient>
  </defs>
  <g id="_レイヤー_1-2" data-name="レイヤー 1">
    <g>
      <g>
        <path class="cls-2" d="M69.5285579,6.1894531c.828125.0595703,1.9326172.1191406,2.7998047.1191406h2.4052734c.2558594-.4736328,1.4785156-3.2138672,1.5576172-4.1992188l2.109375,1.2617188c.0791016.0390625.1376953.1572266.1376953.2167969,0,.078125-.0791016.1767578-.1777344.1972656-.0585938.0195312-.3144531.078125-.5117188.1376953-1.2421875,1.0449219-2.3261719,1.9316406-2.9375,2.3857422h1.4384766l.6308594-.9267578c.0791016-.0986328.1972656-.2568359.3154297-.2568359.1191406,0,.3359375.1972656.3554688.2167969l1.0253906.9072266c.0976562.0986328.1962891.1972656.1962891.3154297,0,.1777344-.1767578.2167969-.2949219.2167969h-4.8701172c-.078125.828125-.1767578,1.4199219-.2753906,1.8730469h3.015625l.6904297-.9462891c.0791016-.0986328.1972656-.2568359.3154297-.2568359.0986328,0,.2167969.0986328.3544922.2177734l1.203125.9453125c.1181641.0986328.1972656.1972656.1972656.3164062,0,.1767578-.1777344.1962891-.2958984.1962891h-5.5791016c-.1972656.9072266-.3349609,1.3408203-.4541016,1.7158203h2.4648438l.6503906-.7294922c.0986328-.0986328.2167969-.2167969.3349609-.2167969s.2167969.0986328.2763672.1376953l1.4189453,1.2021484c.0986328.0791016.1582031.1777344.1582031.2763672,0,.2363281-.1972656.3349609-.8671875.6308594-.375.6308594-.828125,1.3408203-1.6367188,2.2675781,1.5576172.90625,2.9765625,1.1826172,3.765625,1.3203125l-.0400391.1386719c-.8271484.3349609-1.2617188,1.2021484-1.5771484,2.0498047-1.28125-.5322266-2.5029297-1.2421875-3.390625-2.3261719-1.65625,1.3603516-3.5283203,2.109375-5.6777344,2.3261719l-.0195312-.1181641c1.9316406-.6308594,3.5488281-1.9716797,4.8105469-3.4697266-.2373047-.453125-.6113281-1.1630859-1.0449219-2.4648438-.4931641,1.2226562-1.7744141,3.8447266-5.4414062,5.7763672l-.0595703-.1181641c3.2734375-3.0947266,4.0029297-6.1699219,4.3574219-8.3984375-.8867188.0205078-1.28125.0400391-1.8134766.1181641-.1386719.75-.6113281.9472656-1.0253906.9472656-.5126953,0-.7890625-.2958984-.8876953-.7294922-.0390625-.1191406-.1767578-.6904297-.1962891-.8085938-.1181641.0390625-.6708984.2167969-.7890625.2558594,0,.7099609.0400391,4.1796875.0400391,4.3378906,0,.8271484.0585938,2.7792969.0585938,4.0019531,0,.6894531-.5917969.8271484-1.0839844.8271484-.6904297,0-.7890625-.2363281-.7890625-.6503906,0-.0986328.1181641-4.0214844.1181641-4.2773438,0-.5722656-.0195312-3.1542969-.0195312-3.6865234-.6699219.2167969-1.5771484.5322266-2.1884766.7294922-.2167969.3740234-.3349609.5117188-.4921875.5117188-.1582031,0-.1972656-.1181641-.2568359-.2558594l-.8671875-2.2275391c.3154297.0585938.7099609.1181641,1.3994141.1181641.2763672,0,.8085938,0,1.8730469-.0390625.3554688-.6113281,1.5771484-2.7412109,2.2275391-4.7119141.0595703-.1582031.2373047-.8476562.2568359-1.0253906l2.1679688,1.0839844c.1386719.0595703.1972656.1777344.1972656.2763672,0,.1572266-.1767578.2558594-.7880859.4335938-.6708984.9267578-1.1826172,1.4785156-1.8730469,2.2675781,1.2021484.4335938,2.3457031.8271484,2.7998047,1.9511719.6503906.0390625,1.1826172.0595703,2.0107422.0791016.1181641-1.0644531.1376953-1.5771484.1572266-1.8730469-.7880859,0-1.1826172.0195312-1.7539062.1181641l-.3164062-.7099609ZM61.4465267,17.1513672c.5517578-1.4394531,1.0244141-4.1601562,1.0244141-5.5791016,0-.0791016-.0195312-.5527344-.0195312-.7890625l2.0107422.7685547c.1777344.0791016.2568359.1386719.2568359.2568359s-.1777344.2363281-.5322266.4140625c-.5917969,1.8134766-1.8144531,4.1005859-2.6220703,4.9482422l-.1181641-.0195312ZM61.7414486,3.4697266c.4345703.0585938,1.1435547.1376953,2.03125.5322266.6894531-2.0703125.7294922-3.1347656.7685547-3.8642578l2.3457031,1.0253906c.0791016.0390625.1582031.1181641.1582031.2363281,0,.1572266-.1181641.2363281-.6113281.4726562-.8085938.9667969-1.3408203,1.4990234-2.2275391,2.3466797.3154297.1972656,1.0449219.6503906,1.0449219,1.5175781,0,.6708984-.5917969,1.0449219-1.0449219,1.0449219-.5126953,0-.6308594-.2558594-1.3603516-1.6162109-.0791016-.1582031-.453125-.8085938-1.1435547-1.5976562l.0390625-.0976562ZM67.2814876,8.1611328c-.0986328-.1972656-.3154297-.7490234-.7490234-1.4189453-.3945312.4140625-.9853516,1.0449219-1.5175781,1.5371094.6699219-.0195312,1.6162109-.0585938,2.2666016-.1181641ZM66.7492611,10.3886719c2.9375.8476562,3.0166016,2.3271484,3.0166016,2.6025391,0,.6308594-.5722656,1.1044922-1.0849609,1.1044922-.5908203,0-.7285156-.4736328-1.0644531-1.7158203-.3349609-1.2021484-.6503906-1.5771484-.90625-1.8925781l.0390625-.0986328ZM68.6223079,2.6416016c1.4394531-.375,4.9091797-1.3408203,6.5449219-2.6025391l2.2871094,1.3007812c.0585938.0400391.1572266.0986328.1572266.1972656,0,.1777344-.2558594.2167969-.4726562.2167969-.4736328,0-.5722656.0195312-.8671875.0986328-1.1044922.2958984-3.0761719.5517578-4.4160156.7099609.8271484.2558594,2.7001953.828125,2.7001953,2.1884766,0,.5908203-.4335938.9853516-.90625.9853516-.6113281,0-.7490234-.4335938-.9667969-1.1435547-.2363281-.7685547-.5517578-1.4589844-1.0439453-2.0107422-.6904297.0791016-2.1884766.2167969-3.0166016.2167969v-.1572266ZM69.2531673,3.0751953c2.0703125.4726562,2.5820312,1.3994141,2.5820312,2.0898438,0,.7294922-.6308594.9658203-.9257812.9658203-.6308594,0-.75-.4736328-1.0058594-1.4199219-.0791016-.2558594-.2763672-1.0449219-.7294922-1.5175781l.0791016-.1181641ZM72.7228939,11.3154297c-.0195312.0595703-.0195312.0791016-.0400391.1386719.5126953,1.0048828,1.2822266,1.6748047,1.578125,1.9511719.6103516-.8867188.8671875-1.4980469,1.1230469-2.0898438h-2.6611328Z"/>
        <path class="cls-2" d="M85.4582454,4.3955078c.6308594,1.3408203.6513672,2.4052734.6513672,2.6025391,0,.8671875-.4541016,2.0703125-1.5185547,2.0703125-.6699219,0-.8867188-.5722656-.8867188-.8876953,0-.3740234.078125-.4921875.7685547-1.5175781.0791016-.1376953.6113281-.9658203.8671875-2.2675781h.1181641ZM99.1603939,6.9589844l.453125-.5917969c.1376953-.1777344.2363281-.3154297.3544922-.3154297.0986328,0,.1972656.0791016.3554688.1972656l1.1230469.8085938c.1777344.1181641.2568359.2363281.2568359.3935547,0,.1777344-.0595703.2373047-.5322266.6308594-.0195312.3554688.0390625,1.9521484.0390625,2.2675781,0,.9267578-1.0449219,1.0058594-1.1630859,1.0058594-.3544922,0-.7099609-.1972656-.7099609-.6308594v-.2177734h-7.4316406c.0195312.4345703-.1386719.9072266-1.0449219.9072266-.7695312,0-.7695312-.4726562-.7695312-.7099609,0-.3935547.0595703-2.1484375.0595703-2.5029297,0-.75-.0390625-1.3017578-.0791016-1.7939453-.3945312-.0791016-.5712891-.3359375-.7294922-.8876953-.1972656-.7294922-.3349609-1.2226562-.8476562-1.8330078-.0390625,3.6269531-.0390625,4.0214844-.0390625,4.9082031,0,1.3408203.0791016,7.2353516.0791016,8.4384766,0,.5517578,0,1.2021484-1.1835938,1.2021484-.8076172,0-.90625-.4335938-.90625-.8671875,0-1.3017578.0986328-7.2548828.0986328-8.2412109,0-.5908203.0195312-3.2128906.0195312-3.7451172,0-3.8837891-.1181641-4.3173828-.3945312-5.2636719l2.5429688.6699219c.2958984.0791016.4335938.1376953.4335938.3544922,0,.2177734-.078125.2568359-.6103516.6113281-.0205078.1972656-.0400391,1.3603516-.0400391,1.5576172,1.1240234.0791016,2.7802734.7490234,2.7802734,1.9912109,0,.3945312-.1777344.8476562-.6904297,1.0449219l1.6162109.6113281h6.9599609ZM97.8391048,11.4335938c.2167969-.1972656.3154297-.2753906.4335938-.2753906s.2763672.0986328.4140625.1972656l1.4589844.9853516c.1376953.0986328.2558594.2363281.2558594.4140625,0,.3349609-.1181641.3544922-1.1230469.5712891-.4931641.5126953-.9267578.9863281-1.9912109,1.7744141,2.0898438.5722656,3.8046875.5917969,4.7705078.5917969v.1572266c-1.0449219.7695312-1.2021484,1.4394531-1.3603516,2.2480469-.90625-.1582031-2.7792969-.4931641-5.046875-1.9521484-3.3115234,1.8134766-5.7958984,1.8535156-6.7226562,1.8730469v-.1582031c2.6621094-.7880859,4.1601562-1.734375,5.4814453-2.7001953-.7695312-.6708984-1.5380859-1.5966797-2.0117188-2.7011719-1.2021484,0-1.6552734.0390625-2.2861328.1376953l-.3154297-.7294922c.828125.0791016,1.9316406.1191406,2.7988281.1191406h4.6328125l.6113281-.5527344ZM97.7209407,1.1230469l.4736328-.5322266c.1376953-.1376953.2363281-.2558594.3349609-.2558594s.1376953.0390625.3740234.1972656l1.203125.8671875c.1376953.0986328.2753906.2363281.2753906.3945312,0,.1181641-.0390625.1972656-.0986328.2558594-.078125.0791016-.453125.3544922-.5126953.4140625,0,.0595703-.0195312.2363281-.0195312.3154297,0,.3349609.0595703,1.8730469.0595703,2.1884766,0,.5712891,0,.6894531-.1972656.8867188-.1376953.1386719-.4736328.4335938-.9853516.4335938-.3359375,0-.7890625-.1181641-.7890625-.5908203v-.2167969h-4.6132812c.0195312.2363281.0400391.9267578-1.0644531.9267578-.6699219,0-.7880859-.4140625-.7880859-.7099609,0-.2568359.0585938-1.4003906.0585938-1.6367188,0-2.5820312-.1181641-3.0947266-.2363281-3.7451172l2.2666016.8076172h4.2587891ZM91.9055111,7.4316406v2.6025391h1.3798828v-2.6025391h-1.3798828ZM92.8312923,12.4589844c.4345703.4736328,1.203125,1.2421875,2.5439453,1.9121094.9658203-.8671875,1.3603516-1.3408203,1.8330078-1.9121094h-4.3769531ZM93.2258236,1.5966797v1.4189453h4.6328125v-1.4189453h-4.6328125ZM93.2258236,3.4892578v1.5175781h4.6328125v-1.5175781h-4.6328125ZM94.8225032,7.4316406v2.6025391h1.4199219v-2.6025391h-1.4199219ZM97.8781673,7.4316406v2.6025391h1.4990234v-2.6025391h-1.4990234Z"/>
        <path class="cls-2" d="M112.802972,3.8046875c-.3554688.8671875-1.0449219,2.6806641-1.4589844,3.6464844-.3154297.7294922-1.5380859,3.4111328-1.6162109,3.8837891-.0205078.1191406-.0400391.2568359-.0400391.4140625,0,.4140625.0595703.6113281.4541016,1.6367188.1376953.3740234.2949219.9658203.2949219,1.4589844,0,1.1435547-.9658203,1.4589844-1.3994141,1.4589844-.5322266-.0205078-1.1826172-.4140625-1.1826172-1.2617188,0-.3945312.1767578-2.1298828.1767578-2.4648438,0-1.5576172-.90625-2.0898438-1.3603516-2.3261719l.0400391-.1376953c.5908203.0390625,1.28125-.0400391,1.65625-.3945312.4921875-.4736328,3.015625-3.9824219,4.4550781-6.5253906l.1777344.0986328c-.1386719.3544922-.1582031.3945312-.1972656.5126953ZM109.9240657,5.1650391c-.6699219,0-.8271484-.3945312-1.2216797-1.4003906-.2958984-.7294922-.828125-1.5566406-1.4394531-1.9707031l.0595703-.1582031c.7685547.0986328,3.7646484.4140625,3.7646484,2.2675781,0,.6308594-.4335938,1.2617188-1.1630859,1.2617188ZM122.9758236,7.9052734c-1.4990234-.7890625-3.2734375-2.03125-5.0869141-5.9140625-1.7939453,2.6015625-3.9228516,5.0068359-6.78125,6.3476562l-.0400391-.1582031c1.7548828-1.8525391,4.1992188-5.046875,5.0273438-8.1220703l2.2275391,1.0058594c.0791016.0390625.375.1767578.375.3935547,0,.2958984-.3349609.3359375-.5722656.375,1.5185547,1.9716797,4.8701172,3.7255859,6.6445312,3.8837891v.1777344c-1.0654297.5517578-1.4589844,1.3007812-1.7939453,2.0107422ZM122.1867611,11.0986328c.0986328,4.1796875.1181641,5.1064453-2.6416016,5.6386719-.1582031-.8085938-.3349609-1.7939453-1.6757812-2.5039062v-.1582031c.453125.0791016.9462891.1582031,1.6953125.1582031.3945312,0,.5517578,0,.6503906-.2763672.0595703-.1767578.0595703-1.2617188.0595703-1.8925781v-1.5771484h-2.8583984c-.0595703,1.7353516.078125,4.4951172.078125,6.2304688,0,.6308594,0,1.6552734-1.3398438,1.6552734-.7695312,0-.8681641-.4921875-.8681641-.8476562,0-1.1035156.1191406-6.0322266.0986328-7.0380859h-1.2412109c-1.0058594,0-1.6367188.0595703-2.1298828.1386719l-.3154297-.7294922c1.1835938.1181641,2.5830078.1181641,2.7998047.1181641h5.5195312l.6708984-.828125c.0791016-.0986328.1972656-.2167969.3154297-.2167969.1572266,0,.2753906.0986328.4335938.2167969l1.0449219.7294922c.1777344.1181641.3544922.2763672.3544922.453125,0,.2763672-.1767578.3945312-.6503906.7294922ZM120.1760189,7.609375h-3.5878906c-1.0849609,0-1.65625.0390625-2.1289062.1181641l-.3154297-.7099609c.5117188.0595703,1.4980469.1181641,2.0693359.1181641h1.4003906l.7880859-1.1230469c.0791016-.0986328.1777344-.2568359.2958984-.2568359.1376953,0,.3154297.1582031.3740234.2167969l1.2226562,1.1044922c.1181641.0986328.1972656.1972656.1972656.3154297,0,.1777344-.1376953.2167969-.3154297.2167969Z"/>
        <path class="cls-2" d="M132.6359798,10.4287109c-.1777344.4140625-.3554688.8671875-.3554688,1.4189453,0,.4736328.0986328.6904297.3554688,1.3212891.1972656.4726562.2558594.7880859.2558594,1.0644531,0,.7490234-.5908203,1.28125-1.2421875,1.28125-.7685547,0-1.0839844-.6503906-1.0839844-1.2021484,0-.1972656.0595703-1.0849609.0595703-1.2617188,0-1.4990234-.6113281-1.9130859-1.1630859-2.2675781l.0390625-.1572266c.9072266.0390625,1.0253906.0585938,1.6757812-.7099609,1.1630859-1.3798828,1.3603516-1.6953125,3.2919922-4.5742188l.1582031.0791016c-.828125,2.1884766-.9658203,2.484375-1.9912109,5.0078125ZM132.2609798,5.7363281c-.7490234,0-.9267578-.5908203-1.1826172-1.4589844-.4931641-1.7148438-.9267578-2.0898438-1.2021484-2.3261719l.0585938-.1777344c.7890625.2177734,3.4501953.9267578,3.4501953,2.7998047,0,.7890625-.6308594,1.1630859-1.1240234,1.1630859ZM145.9826595,17.2294922c-2.5234375-1.5175781-4.0615234-4.0214844-4.6728516-5.7753906,0,.7089844.0595703,3.9033203.0791016,4.5537109,0,.1767578.0390625.9462891.0390625,1.0839844,0,.2568359-.0195312.4931641-.2167969.7099609-.2753906.3154297-.7089844.453125-1.0644531.453125-.9462891,0-.9462891-.6113281-.9462891-.9267578,0-.2363281.0791016-1.28125.0791016-1.4980469,0-.4726562.0390625-2.5625.0595703-2.9765625-1.4003906,1.4384766-4.4160156,3.7451172-8.1621094,4.6914062l-.0595703-.1572266c2.5830078-1.3798828,5.9150391-4.4951172,7.1962891-6.4863281h-1.2226562c0,.4736328,0,.5722656-.2167969.7294922-.1972656.1582031-.5517578.3554688-1.0048828.3554688-.75,0-.7695312-.3554688-.7695312-.7099609,0-.4931641.0791016-2.6816406.0791016-3.1347656,0-2.5234375-.0390625-2.7207031-.1777344-3.6669922l2.3261719.8671875h2.0507812l-.0195312-2.0107422h-3.0166016c-1.2021484,0-1.6357422.0595703-2.1289062.1386719l-.3154297-.7294922c1.1826172.1181641,2.5820312.1181641,2.7988281.1181641h2.6621094c-.0195312-1.5576172-.0195312-1.9716797-.3154297-2.8583984l2.5429688.4921875c.2958984.0595703.4335938.0986328.4335938.2958984,0,.2763672-.453125.4931641-.6904297.5917969,0,.2363281-.0195312,1.4189453-.0195312,1.4785156h2.8984375l.7880859-1.2226562c.0791016-.1376953.1582031-.2558594.2958984-.2558594.1181641,0,.2363281.1181641.3554688.2167969l1.3994141,1.2216797c.0986328.0986328.1972656.1777344.1972656.3154297,0,.1777344-.1582031.1972656-.2958984.1972656h-5.6386719l-.0195312,2.0107422h2.1884766l.6308594-.6894531c.1777344-.1972656.2363281-.2568359.3154297-.2568359.0986328,0,.1777344.0595703.2958984.1582031l1.2021484.9658203c.1777344.1376953.2763672.3154297.2763672.4140625,0,.2558594-.3154297.4335938-.6503906.6308594-.0595703.6503906.0390625,3.5087891.0390625,4.0810547,0,1.1035156-.9267578,1.1826172-1.2421875,1.1826172-.7099609,0-.6894531-.3740234-.6894531-.9267578h-2.0898438c.6503906,1.0253906,2.7207031,3.4306641,6.4072266,4.21875v.1972656c-1.3212891.5527344-1.5185547.9462891-1.9912109,1.9121094ZM139.3781673,5.8154297h-2.2871094v1.9912109h2.2871094v-1.9912109ZM139.3781673,8.2792969h-2.2871094v2.1494141h2.2871094v-2.1494141ZM143.6564876,5.8154297h-2.3662109v1.9912109h2.3662109v-1.9912109ZM143.6564876,8.2792969h-2.3662109v2.1494141h2.3662109v-2.1494141Z"/>
        <path class="cls-2" d="M164.0598079,16.5791016c-.7880859.3554688-3.3115234.4335938-4.1992188.4335938-1.0839844,0-4.8291016-.078125-6.2685547-1.28125-.7294922-.6113281-1.0839844-1.4980469-1.0839844-2.2470703,0-2.6611328,3.1142578-4.5341797,4.0410156-5.046875-.5322266-.5517578-.8867188-1.4980469-.8867188-2.3466797,0-3.0556641,0-3.2919922-.1191406-3.7060547-.2753906-.9853516-1.4980469-1.2021484-1.9511719-1.28125.3544922-.2958984.7294922-.6113281,1.6162109-.6113281.9863281,0,3.0166016.7099609,3.0166016,1.4990234,0,.078125,0,.1572266-.1582031.5322266-.4726562,1.1425781-.5712891,2.4042969-.5712891,3.6464844,0,.5722656.0195312,1.1240234.3544922,1.5771484,1.1630859-.6113281,2.4648438-1.1630859,3.2724609-1.4785156.4345703-.1777344.6904297-.3349609.6904297-.6503906,0-.1777344-.0791016-.375-.2958984-.8085938,1.6171875.2373047,2.5039062,1.2226562,2.5039062,2.2871094,0,.828125-.4140625.8671875-1.3007812.9658203-4.9882812.5126953-9.3251953,2.8789062-9.3251953,5.0869141,0,1.9121094,2.6611328,1.9121094,4.0019531,1.9121094,1.8730469,0,2.7802734-.1582031,4.5742188-.4736328.3349609-.0585938.5712891-.0986328.7880859-.0986328.6308594,0,1.7939453.3554688,1.7939453,1.2822266,0,.3544922-.0791016.6103516-.4931641.8076172Z"/>
      </g>
      <g>
        <g>
          <g>
            <path class="cls-2" d="M5.5971547,49.7806125v.2933319c0,.0977773-.0486502.1464275-.1464275.1464275H.1469044c-.0982543,0-.1469044-.0486502-.1469044-.1464275v-.2933319c0-.0973003.0486502-.1464275.1469044-.1464275h.1464275c.2732995,0,.4879326-.0877611.6443763-.2637603.1564437-.1755222.2346655-.4101877.2346655-.7030427v-12.7768709c0-.3119335-.0782218-.5513686-.2346655-.7178285-.1564437-.165506-.3710768-.2489744-.6443763-.2489744h-.1464275c-.0982543,0-.1469044-.0486502-.1469044-.1464275v-.2933319c0-.0973003.0486502-.1464275.1469044-.1464275h4.2783534v14.3298607c0,.292855.0777449.5275205.2341886.7030427.1564437.1759992.3710768.2637603.6448533.2637603h.1464275c.0977773,0,.1464275.0491271.1464275.1464275Z"/>
            <path class="cls-2" d="M26.110357,29.8535971v2.8131247c0,.0982543-.0491271.1469044-.1464275.1469044h-.292855c-.0982543,0-.1469044-.0486502-.1469044-.1469044v-.0290947c0-.7421536-.2050939-1.3188013-.6152816-1.728989-.4101877-.4101877-.9868354-.6152816-1.728989-.6152816h-1.7580837c-.2933319,0-.5127347.0877611-.6596391.2637603-.1464275.1755222-.2194027.4101877-.2194027.7030427v8.1469961h.673948c.7421536,0,1.3188013-.2098635,1.728989-.6300674s.6152816-.991605.6152816-1.7146801v-.0290947c0-.0973003.0486502-.1464275.1464275-.1464275h.2933319c.0973003,0,.1464275.0491271.1464275.1464275v5.3333944c0,.0982543-.0491271.1464275-.1464275.1464275h-.2933319c-.0977773,0-.1464275-.0481732-.1464275-.1464275v-.0290947c0-.7426306-.2050939-1.3188013-.6152816-1.728989s-.9868354-.6157586-1.728989-.6157586h-.673948v8.6745166c0,.292855.0729753.5275205.2194027.7030427.1469044.1759992.3663072.2637603.6596391.2637603h1.7580837c.7421536,0,1.3188013-.2093865,1.728989-.6300674.4101877-.419727.6152816-.991128.6152816-1.7142032v-.0290947c0-.0977773.0486502-.1469044.1469044-.1469044h.292855c.0973003,0,.1464275.0491271.1464275.1469044v2.8131247c0,.0977773-.0491271.1464275-.1464275.1464275h-9.9637462c-.0977773,0-.1464275-.0486502-.1464275-.1464275v-.2933319c0-.0973003.0486502-.1464275.1464275-.1464275h.1469044c.292855,0,.5127347-.0877611.6591621-.2637603.1464275-.1755222.2198797-.4101877.2198797-.7030427v-17.4072226c0-.292855-.0734522-.5275205-.2198797-.7030427-.1464275-.1759992-.3663072-.2637603-.6591621-.2637603h-.1469044c-.0977773,0-.1464275-.0486502-.1464275-.1464275v-.2933319c0-.0973003.0486502-.1464275.1464275-.1464275h9.9637462c.0973003,0,.1464275.0491271.1464275.1464275Z"/>
            <path class="cls-2" d="M49.4948734,49.7806125v.2933319c0,.0977773-.0491271.1464275-.1464275.1464275h-5.56806c-.0977773,0-.1464275-.0486502-.1464275-.1464275v-.2933319c0-.0973003.0486502-.1464275.1464275-.1464275h.1464275c.1759992,0,.3124104-.0534198.4101877-.1612133.0977773-.1068396.1469044-.2585137.1469044-.4540683,0-.1559667-.0295717-.3224266-.0882381-.4984258l-3.3406452-8.0000917v8.1469961c0,.292855.0734522.5275205.2198797.7030427.1464275.1759992.3663072.2637603.6591621.2637603h.1469044c.0973003,0,.1464275.0491271.1464275.1464275v.2933319c0,.0977773-.0491271.1464275-.1464275.1464275h-5.56806c-.0977773,0-.1464275-.0486502-.1464275-.1464275v-.2933319c0-.0973003.0486502-.1464275.1464275-.1464275h.1464275c.2933319,0,.5127347-.0877611.6596391-.2637603.1464275-.1755222.2194027-.4101877.2194027-.7030427v-17.4072226c0-.292855-.0729753-.5275205-.2194027-.7030427-.1469044-.1759992-.3663072-.2637603-.6596391-.2637603h-.1464275c-.0977773,0-.1464275-.0486502-.1464275-.1464275v-.2933319c0-.0973003.0486502-.1464275.1464275-.1464275h5.7144875c1.3083081,0,2.4220155.2489744,3.3406452.7474002.9181528.4979488,1.6116562,1.1475717,2.0805103,1.9483917.4688541.801297.7035197,1.6607834.7035197,2.5789361,0,1.1332629-.3567679,2.1883039-1.0698268,3.165123s-1.7142032,1.6607834-3.0034327,2.0514156l3.838594,8.8791335c.2732995.3710768.6348371.5566152,1.0846127.5566152h.1464275c.0973003,0,.1464275.0491271.1464275.1464275ZM41.0550224,30.2933565v9.6413196h.8790418c.8985973,0,1.6068866-.5132116,2.1248678-1.538681.5175043-1.0254693.7764949-2.2126289.7764949-3.5605249,0-1.2501187-.2246493-2.3194685-.673948-3.2090036-.4497756-.8885811-1.0946289-1.3331101-1.9340829-1.3331101h-1.1723738Z"/>
            <path class="cls-2" d="M70.1254085,49.7806125v.2933319c0,.0977773-.0491271.1464275-.1464275.1464275h-5.8609149c-.0977773,0-.1464275-.0486502-.1464275-.1464275v-.2933319c0-.0973003.0486502-.1464275.1464275-.1464275h.2050939c.4101877,0,.6152816-.2437278.6152816-.7326144,0-.1364113-.0100162-.2341886-.0290947-.292855l-.5861869-3.3115505h-3.3702169l-.6152816,3.3702169c-.0195555.0977773-.0290947.2341886-.0290947.4101877,0,.1955546.038634.3367355.1173328.4249736.0777449.0877611.2146331.1316416.4101877.1316416h.1464275c.0973003,0,.1464275.0491271.1464275.1464275v.2933319c0,.0977773-.0491271.1464275-.1464275.1464275h-2.6962689c-.0977773,0-.1464275-.0486502-.1464275-.1464275v-.2933319c0-.0973003.0486502-.1464275.1464275-.1464275h.1469044c.292855,0,.546599-.1025469.7617091-.3076408.2146331-.2050939.3515213-.4636075.4101877-.7764949l3.3115505-18.8428797h2.4616034l3.3697399,19.0479736c.0782218.2737765.2198797.4884096.4249736.6448533s.444529.2341886.7183055.2341886h.0877611c.0973003,0,.1464275.0491271.1464275.1464275ZM64.2058272,44.5645508l-1.5820845-8.9087052-1.5534668,8.9087052h3.1355513Z"/>
          </g>
          <circle class="cls-1" cx="2.78403" cy="31.4377547" r="1.7305851"/>
        </g>
        <g>
          <g>
            <path class="cls-2" d="M156.6818782,50.1425781c-.7880859.3554688-3.3115234.4335938-4.1992188.4335938-1.0839844,0-4.8291016-.078125-6.2685547-1.28125-.7294922-.6113281-1.0839844-1.4980469-1.0839844-2.2470703,0-2.6611328,3.1142578-4.5341797,4.0410156-5.046875-.5322266-.5517578-.8867188-1.4980469-.8867188-2.3466797,0-3.0556641,0-3.2919922-.1191406-3.7060547-.2753906-.9853516-1.4980469-1.2021484-1.9511719-1.28125.3544922-.2958984.7294922-.6113281,1.6162109-.6113281.9863281,0,3.0166016.7099609,3.0166016,1.4990234,0,.078125,0,.1572266-.1582031.5322266-.4726562,1.1425781-.5712891,2.4042969-.5712891,3.6464844,0,.5722656.0195312,1.1240234.3544922,1.5771484,1.1630859-.6113281,2.4648438-1.1630859,3.2724609-1.4785156.4345703-.1777344.6904297-.3349609.6904297-.6503906,0-.1777344-.0791016-.375-.2958984-.8085938,1.6171875.2373047,2.5039062,1.2226562,2.5039062,2.2871094,0,.828125-.4140625.8671875-1.3007812.9658203-4.9882812.5126953-9.3251953,2.8789062-9.3251953,5.0869141,0,1.9121094,2.6611328,1.9121094,4.0019531,1.9121094,1.8730469,0,2.7802734-.1582031,4.5742188-.4736328.3349609-.0585938.5712891-.0986328.7880859-.0986328.6308594,0,1.7939453.3554688,1.7939453,1.2822266,0,.3544922-.0791016.6103516-.4931641.8076172Z"/>
            <path class="cls-2" d="M170.4230892,49.9853516l-.0390625-.1386719c2.8974609-1.1230469,6.2099609-3.4492188,6.2099609-7.7080078,0-2.8583984-1.7939453-5.2832031-5.6191406-5.2832031-.5517578,0-.7089844.0390625-.9453125.1181641,1.7539062.9267578,1.7539062,1.7744141,1.7539062,2.0302734,0,.7099609-1.7148438,4.3574219-2.9960938,6.4472656-1.5185547,2.4833984-2.2675781,3.1337891-2.9570312,3.1337891-.6308594,0-.8085938-.2949219-1.4199219-1.2412109-.2558594-.3945312-.2763672-.4140625-.7685547-.828125-.6113281-.5126953-.8876953-1.4589844-.8876953-2.3857422,0-4.3564453,3.7460938-7.9443359,8.6748047-7.9443359,3.8046875,0,7.5107422,2.2275391,7.5107422,6.4462891,0,6.1503906-6.9394531,7.1367188-8.5166016,7.3535156ZM169.3586361,37.0917969c-2.2666016.6699219-4.9091797,3.5097656-4.9091797,6.7822266,0,.8076172.375,2.7402344,1.203125,2.7402344.8085938,0,1.7744141-2.0107422,2.5820312-3.7265625.4736328-.9658203,1.6171875-3.3515625,1.6171875-4.5146484,0-.6699219-.3349609-1.1035156-.4931641-1.28125Z"/>
            <path class="cls-2" d="M193.1340267,40.7978516h-4.3759766l-.0400391,6.8808594c1.5576172-.2763672,3.0556641-.5917969,4.5146484-1.0449219v.1376953c-1.7548828,1.203125-2.0703125,1.3603516-6.7226562,3.5488281-.0390625.0195312-.1777344.0791016-.2558594.1181641-.0595703.1972656-.1582031.6113281-.375.6113281-.1376953,0-.2958984-.1777344-.3544922-.2763672l-1.5576172-2.6416016c.2763672.0400391.4140625.0595703.5917969.0595703.8671875,0,1.2412109-.0595703,2.0498047-.1386719,0-1.6552734.0400391-7.7675781.0400391-9.0292969,0-3.6865234-.0400391-3.9423828-.3359375-5.0068359l2.8388672.7294922c.1582031.0390625.3945312.1181641.3945312.2958984,0,.2167969-.4140625.4726562-.7490234.6699219-.0195312.2167969-.0195312.6699219-.0390625,4.6132812h1.3203125l.9863281-1.5185547c.0976562-.1572266.1962891-.2363281.2949219-.2363281s.2167969.0791016.3554688.2167969l1.5371094,1.4980469c.0986328.0986328.1777344.1972656.1777344.3164062,0,.1767578-.1582031.1962891-.2958984.1962891ZM197.9641048,50.9121094c-3.0751953,0-3.3515625-.1582031-3.765625-.4931641-.6103516-.5126953-.6103516-.8671875-.6103516-2.6611328,0-1.4990234.078125-8.1425781.078125-9.5029297,0-2.8583984-.0585938-3.3310547-.3349609-4.1201172l2.7998047.7294922c.2558594.0595703.3935547.1572266.3935547.2763672,0,.1767578-.2753906.3935547-.7490234.7089844-.0390625.9072266-.0585938,4.96875-.0585938,5.7958984.5322266-.4921875,2.8193359-2.8779297,3.5283203-4.5732422l2.1494141,1.9912109c.0986328.0986328.1572266.1777344.1572266.2958984,0,.2949219-.3544922.2558594-.8671875.2167969-1.8535156,1.3203125-4.1396484,2.2470703-4.9677734,2.5429688,0,.0986328-.0791016,3.7851562-.0791016,4.4951172,0,2.1484375,0,2.2080078,1.8730469,2.2080078,1.7548828,0,1.9511719-.1181641,2.2470703-.6503906.2167969-.375.453125-1.5185547.7294922-2.8984375h.1777344c.0585938.6503906.2558594,2.7207031.5712891,3.0361328.0791016.0791016.4736328.3349609.5322266.4140625.0791016.1181641.1181641.2753906.1181641.4140625,0,1.7744141-2.5234375,1.7744141-3.9228516,1.7744141Z"/>
            <path class="cls-2" d="M223.2189876,51.3652344c-1.7939453-.8876953-3.0361328-2.4248047-3.765625-3.4892578-1.8339844,1.9316406-3.7851562,2.9765625-6.1113281,3.5878906l-.0400391-.1972656c1.2617188-.6503906,3.3515625-1.8730469,5.2636719-4.8496094-.5322266-.9462891-1.3203125-2.6816406-1.4384766-5.1455078-.5722656.453125-1.4199219,1.0449219-2.0703125,1.3408203,0,.2363281.0195312,1.7744141,0,1.8720703-.0791016.4345703-.7685547.6113281-1.1035156.6113281-.6113281,0-.6113281-.3544922-.5917969-.6699219h-1.1435547l.0195312,2.3652344h.828125l.6708984-1.0048828c.0585938-.0986328.1767578-.2568359.2949219-.2568359.0986328,0,.2373047.1191406.375.2167969l1.2617188,1.0058594c.1376953.0986328.1972656.2167969.1972656.3154297,0,.1777344-.1777344.1972656-.2958984.1972656h-3.3320312c0,.4335938.0400391,3.5683594-.0195312,3.765625-.1777344.6699219-1.1435547.6699219-1.2421875.6699219-.7099609,0-.7099609-.4726562-.7099609-.6699219,0-.4541016.0791016-3.1347656.0986328-3.765625h-1.1826172c-1.2021484,0-1.6357422.0585938-2.1289062.1376953l-.3154297-.7294922c1.2021484.1181641,2.5830078.1181641,2.7998047.1181641h.8476562l.0585938-2.3652344h-1.0839844c.0195312.828125-.5917969.9462891-.9863281.9462891-.1767578,0-.7490234-.0400391-.7490234-.6113281,0-.1572266.0595703-.7880859.0595703-.9267578.0390625-.828125.0585938-1.6357422.0585938-3.9619141,0-.4736328-.0195312-.7294922-.1376953-1.9521484l1.9521484.8867188h.90625l-.0195312-1.9707031h-.90625c-1.203125,0-1.6367188.0390625-2.1298828.1181641l-.3154297-.7099609c1.203125.0986328,2.5830078.1181641,2.7998047.1181641h.5517578c-.0390625-1.5576172-.0390625-1.6953125-.2753906-2.7207031l2.3652344.4931641c.1582031.0390625.3945312.1582031.3945312.3349609,0,.2958984-.5126953.5722656-.6503906.6503906,0,.1777344-.0205078,1.0058594-.0205078,1.2421875h.6904297l.6503906-.9853516c.0986328-.1386719.1777344-.2568359.2958984-.2568359s.2558594.1181641.3544922.1972656l1.2822266,1.0253906c.1376953.1181641.1572266.1972656.1572266.2763672,0,.078125-.0195312.0986328-.0585938.1376953,1.0244141.0791016,2.0107422.1181641,2.9765625.1181641,0-1.8730469,0-2.2470703-.2568359-3.3115234l2.4453125.5117188c.0986328.0205078.453125.0986328.453125.3554688,0,.1972656-.2568359.3349609-.6904297.5712891-.0195312.2958984-.0195312,1.5966797-.0195312,1.8730469h1.5185547l.7294922-1.2021484c.0390625-.0595703.1767578-.2568359.2949219-.2568359.1386719,0,.2568359.1181641.3945312.2363281l1.3007812,1.1640625c.0791016.078125.1777344.1962891.1777344.3144531,0,.1777344-.1572266.2177734-.2958984.2177734h-6.7021484c-1.203125,0-1.6367188.0390625-2.1298828.1181641l-.2949219-.6503906q-.0791016.0195312-.1386719.0195312h-3.1347656l-.0195312,1.9707031h1.0449219l.4335938-.6103516c.0986328-.1181641.1582031-.1777344.2763672-.1777344s.2167969.0595703.3544922.1572266l1.0644531.7695312c.0791016.0585938.1972656.1972656.1972656.3544922,0,.2363281-.1181641.3154297-.5517578.6308594v2.3457031c1.0644531-1.3603516,1.8925781-2.9169922,2.4248047-4.5732422l2.0507812,1.28125c.2558594.1582031.2558594.2568359.2558594.3349609,0,.1972656-.0791016.2167969-.8476562.3554688-.3945312.4140625-.6699219.7089844-1.6162109,1.4384766.2363281.8681641.6103516,2.2480469,1.9707031,4.0224609.8681641-1.65625,1.3017578-3.3916016,1.3017578-3.9433594,0-.1181641-.0195312-.3154297-.0195312-.4140625l2.3457031,1.1630859c.0986328.0400391.3154297.1777344.3154297.3554688,0,.1376953-.0986328.1972656-.1972656.2363281-.1181641.0390625-.4140625.1972656-.5126953.2363281-.3544922.9462891-.8867188,2.2275391-1.9716797,3.765625,1.3017578,1.2021484,2.8789062,2.1289062,4.6132812,2.5429688v.1777344c-.9267578.5712891-1.4189453.9658203-1.9511719,2.109375ZM210.4631282,39.2802734h-1.1035156v2.0107422h1.1240234l-.0205078-2.0107422ZM209.3596126,41.7646484v2.1875h1.0839844c.0400391-1.4980469.0400391-1.6552734.0400391-2.1875h-1.1240234ZM213.3615657,39.2802734h-1.1240234l-.0390625,2.0107422h1.1630859v-2.0107422ZM213.3615657,41.7646484h-1.1630859v2.1875h1.1630859v-2.1875ZM223.5344173,41.8828125c-.4931641,0-.5917969-.1777344-1.0449219-.9072266-1.4199219-2.2871094-1.6367188-2.4248047-2.0898438-2.7011719l.1181641-.1767578c1.2421875.2363281,4.0410156,1.0839844,4.0410156,2.7402344,0,.453125-.3740234,1.0449219-1.0244141,1.0449219Z"/>
          </g>
          <g>
            <path class="cls-2" d="M85.1369564,28.953125c-.3310547.2363281-.4736328.3896484-.7695312.7089844-.1884766.2011719-1.0048828,1.1240234-1.1816406,1.3125.2001953.1181641.6142578.4023438.6142578.5683594,0,.0820312-.1181641.4130859-.1298828.484375-.0117188.0947266-.0351562.7216797-.0351562,1.4785156,0,.4609375.0820312,2.4951172.0820312,2.8964844,0,.2958984-.1064453.8164062-.4609375.8164062-.3662109,0-.6503906-.6152344-.6503906-.9345703,0-.1181641.1064453-.6503906.1181641-.7568359.0830078-.6738281.0947266-1.3359375.0947266-2.0097656,0-.2363281,0-1.5253906-.0703125-1.7617188q-.0244141-.0712891-.1542969-.1660156c-1.7978516,1.75-3.1923828,2.3300781-4.0917969,2.6367188l-.046875-.0703125c2.4121094-1.4785156,5.5693359-5.4638672,5.5693359-5.9482422,0-.2958984-.3193359-.5683594-.5908203-.7929688.1533203-.0234375.3076172-.046875.5205078-.046875.7324219,0,1.5488281.921875,1.5488281,1.1943359,0,.1416016-.046875.1777344-.3662109.390625Z"/>
            <path class="cls-2" d="M98.6799251,35.1728516c-.1416016,0-.7441406-.1777344-.8632812-.2011719-.53125-.1064453-2.2578125-.2363281-2.7431641-.2363281-1.9394531,0-3.9736328.3310547-4.3632812.4726562-.0830078.0361328-.4619141.2255859-.5439453.2255859-.3427734,0-1.0644531-.7929688-1.0644531-1.4316406,0-.1767578.046875-.3193359.0830078-.4609375.2480469.3789062.5322266.828125,1.3955078.828125.0117188,0,1.7734375-.1181641,2.1044922-.1425781.3193359-.0117188.3662109-.0234375.8632812-.046875,0-.3789062.0117188-2.0341797.0117188-2.3769531,0-1.2421875-.1064453-1.2773438-.5205078-1.4306641-.2128906.0351562-1.1708984.2011719-1.3242188.2011719-.2714844,0-1.0048828-.6630859-1.0166016-1.2070312.2363281.1542969.6259766.4140625,1.5839844.4140625.4023438,0,2.9570312-.1767578,3.3945312-.3310547.0820312-.0351562.4013672-.2011719.4726562-.2011719.1533203,0,1.0166016.1894531,1.0166016.6035156,0,.0234375,0,.3779297-.4726562.3779297-.2958984,0-1.5605469-.0234375-1.8212891-.0234375-.2597656,0-.3427734,0-.5556641.0234375.3076172.2246094.3662109.2841797.3662109.4140625,0,.0947266-.1533203.5087891-.1650391.5917969-.0830078.7089844-.1660156,2.6132812-.1777344,2.8847656,1.0996094-.0585938,1.703125-.0820312,2.0458984-.0820312s.6035156,0,.8046875-.0478516c.1884766-.0351562.4492188-.0830078.5195312-.0830078.3789062,0,1.2421875.4501953,1.2421875.9697266,0,.2128906-.1533203.2958984-.2724609.2958984Z"/>
            <path class="cls-2" d="M108.6643001,31.625c-.0595703.0478516-.0947266.1064453-.34375.6503906-.53125,1.1357422-1.0634766,2.3300781-2.5302734,3.5009766-.5908203.484375-1.9277344,1.4072266-3.2167969,1.4423828v-.0830078c1.1943359-.4726562,2.8740234-2.1523438,3.1933594-2.5185547.5087891-.5791016,1.2412109-1.6201172,1.7617188-3.3115234-.7089844.0712891-3.6181641.3671875-4.2929688.6503906-.0703125.0361328-.3779297.2011719-.4492188.2011719-.2480469,0-1.1943359-.6738281-1.1943359-1.4902344,0-.1298828.0234375-.2480469.0947266-.4248047.0947266.1298828.2128906.3066406.5205078.5439453.2714844.2001953.3544922.2246094.6855469.2246094.78125,0,4.5410156-.2958984,4.6835938-.3671875.09375-.0585938.4130859-.4609375.5078125-.4609375.1181641,0,1.0527344.6621094,1.0527344.9697266,0,.1533203-.1181641.2363281-.4726562.4726562ZM107.0910579,29.3076172c-.5556641.0234375-2.3056641.1298828-2.8027344.2246094-.5322266.0947266-.5908203.1181641-.7568359.1181641-.5556641,0-1.0878906-.828125-1.0283203-1.4189453.5556641.5673828,1.2060547.5673828,1.6787109.5673828,1.3369141,0,2.2587891-.2480469,2.4003906-.2958984.1064453-.0234375.5205078-.2363281.6152344-.2363281s.6035156.1777344.7451172.2490234c.1660156.0703125.3193359.1884766.3193359.4248047,0,.3076172-.1894531.3320312-1.1708984.3671875Z"/>
            <path class="cls-2" d="M87.9162532,44.3300781c-.2246094.0712891-.2363281.0830078-.8632812.6152344-.3193359.2714844-1.6669922,1.4775391-1.9628906,1.7021484-.2832031.2128906-.4726562.3310547-.6152344.4257812.7216797.5800781,1.1708984,1.3720703,1.1708984,1.8212891,0,.3076172-.1884766.6386719-.5556641.6386719-.1767578,0-.3662109-.0351562-.6386719-.5205078-.7451172-1.3125-1.8681641-2.3408203-3.0742188-3.2402344,1.7617188.4501953,2.578125.9345703,2.8144531,1.0878906,1.8564453-2.1044922,2.0224609-2.2939453,2.4951172-3.109375-3.2519531.3066406-5.0498047.4726562-6.0078125.8037109-.09375.0351562-.4726562.2246094-.5556641.2246094-.2714844,0-1.0283203-.9697266-1.0283203-1.4189453,0-.2011719.046875-.390625.1533203-.6972656.4609375.7685547.5205078.8505859,1.0644531.8505859,1.265625,0,6.03125-.3310547,6.2207031-.3662109.2128906-.046875.2949219-.0947266.53125-.2714844.1425781-.0947266.2255859-.1064453.2841797-.1064453.1660156,0,.4853516.3544922.6982422.5908203.1181641.1416016.4492188.4970703.4492188.6269531,0,.1767578-.0595703.1894531-.5800781.3427734Z"/>
            <path class="cls-2" d="M97.2736751,42.5566406c-.3310547.2363281-.4736328.3896484-.7695312.7089844-.1884766.2011719-1.0048828,1.1240234-1.1816406,1.3125.2001953.1181641.6142578.4023438.6142578.5683594,0,.0820312-.1181641.4130859-.1298828.484375-.0117188.0947266-.0351562.7216797-.0351562,1.4785156,0,.4609375.0820312,2.4951172.0820312,2.8964844,0,.2958984-.1064453.8164062-.4609375.8164062-.3662109,0-.6503906-.6152344-.6503906-.9345703,0-.1181641.1064453-.6503906.1181641-.7568359.0830078-.6738281.0947266-1.3359375.0947266-2.0097656,0-.2363281,0-1.5253906-.0703125-1.7617188q-.0244141-.0712891-.1542969-.1660156c-1.7978516,1.75-3.1923828,2.3300781-4.0917969,2.6367188l-.046875-.0703125c2.4121094-1.4785156,5.5693359-5.4638672,5.5693359-5.9482422,0-.2958984-.3193359-.5683594-.5908203-.7929688.1533203-.0234375.3076172-.046875.5205078-.046875.7324219,0,1.5488281.921875,1.5488281,1.1943359,0,.1416016-.046875.1777344-.3662109.390625Z"/>
            <path class="cls-2" d="M109.7883236,45.0751953c-.0947266,0-1.0644531-.1298828-1.2177734-.1542969-.3554688-.046875-.6035156-.046875-.9697266-.046875-.5800781,0-.9462891.0234375-1.2060547.0234375-.0595703,1.2773438-.1777344,2.578125-.828125,3.6894531-.3427734.5800781-1.3007812,1.9638672-2.96875,2.3417969l-.0351562-.1181641c.5087891-.3544922,1.9873047-1.4306641,2.6376953-3.9501953.2001953-.8037109.2480469-1.4658203.2597656-1.8916016-.6855469.0585938-2.0693359.2363281-2.5898438.5791016-.2480469.1660156-.2724609.1777344-.4257812.1777344-.2714844,0-1.3242188-.5791016-1.3242188-1.5615234,0-.1884766.0234375-.2832031.046875-.4013672.3671875.5205078.9345703.7919922,1.2773438.7919922.1777344,0,2.625-.2246094,3.0390625-.2597656,0-.6865234-.0234375-1.7382812-.0703125-2.0224609-.0595703-.3193359-.390625-.4492188-.9580078-.6269531.3193359-.3779297.7685547-.3896484.8632812-.3896484.5908203,0,1.3828125.3779297,1.3828125.7919922,0,.1298828-.046875.2363281-.1064453.3310547-.1298828.2480469-.1884766.3427734-.1884766,1.2060547v.6269531c.5556641-.0234375,1.4306641-.0478516,1.9746094-.1064453.1181641-.0117188.6152344-.1894531.7099609-.1894531.1884766,0,1.2412109.2246094,1.2412109.7451172,0,.390625-.3193359.4140625-.5439453.4140625Z"/>
            <path class="cls-2" d="M120.6115657,50.0058594c-.3193359,0-.4970703-.3066406-.6152344-.4960938-.9101562-1.5136719-1.4541016-2.2705078-2.4003906-3.015625-1.8095703,2.1523438-3.6064453,3.2998047-5.2744141,3.5947266v-.0947266c2.8271484-1.3125,5.7480469-5.2734375,6.1376953-6.953125-.0351562.0117188-2.4003906.4375-3.0273438.7451172-.3427734.1777344-.3896484.1894531-.484375.1894531-.1777344,0-.9228516-.5439453-.9228516-1.3007812,0-.3076172.0478516-.390625.1064453-.5205078.4853516.6269531.5800781.7568359.9697266.7568359.2841797,0,2.8740234-.2246094,3.3583984-.5322266.0830078-.0595703.4609375-.3789062.5556641-.3789062.1542969,0,1.0761719.8759766,1.0761719,1.0644531,0,.1308594-.0830078.1660156-.4609375.3076172-.1064453.0478516-.1533203.1298828-.3310547.4492188-.7802734,1.4189453-.9101562,1.65625-1.5253906,2.4482422,1.4423828.6035156,3.2988281,2.0224609,3.2988281,3.0859375,0,.2841797-.1064453.6503906-.4609375.6503906Z"/>
            <path class="cls-2" d="M126.8820736,44.8857422c1.0400391,0,2.0576172.9814453,2.0576172,2.6728516,0,1.9746094-1.3837891,3.0507812-2.5195312,3.0507812-1.1943359,0-2.7548828-1.1708984-2.7548828-4.0683594,0-2.3408203,1.1347656-5.0019531,3.2636719-5.0019531.9228516,0,1.6679688.5087891,1.6679688,1.2060547,0,.4257812-.2841797.7216797-.6865234.7216797-.3779297,0-.7451172-.2841797-.7451172-.7333984,0-.0585938.0478516-.3427734.0478516-.4013672,0-.3076172-.2958984-.390625-.5087891-.390625-.4375,0-1.5253906.4726562-1.7382812,3.9736328.6972656-.78125,1.4306641-1.0292969,1.9160156-1.0292969ZM126.4328548,50.1953125c.9453125,0,1.2412109-1.4658203,1.2412109-2.4951172,0-1.2060547-.4140625-2.2226562-1.1943359-2.2226562-.1064453,0-.8398438,0-1.5253906.921875.0351562,1.2304688.1064453,3.7958984,1.4785156,3.7958984Z"/>
            <path class="cls-2" d="M131.709222,42.7929688l-.1064453,2.8613281c.2832031-.2363281,1.0166016-.8398438,1.9150391-.8398438,1.0410156,0,2.5078125.8632812,2.5078125,2.6259766,0,1.9277344-1.6318359,3.1689453-3.0517578,3.1689453-1.2529297,0-2.1992188-.9580078-2.1992188-1.7978516,0-.5439453.4257812-.875.8037109-.875.2958984,0,.6630859.2373047.6630859.7451172,0,.1542969-.0244141.2607422-.0830078.4023438-.0478516.1064453-.0595703.1416016-.0595703.3662109,0,.2607422.0478516.7451172.8164062.7451172,1.0878906,0,1.796875-1.1347656,1.796875-2.6367188,0-1.3720703-.6142578-2.1992188-1.5371094-2.1992188-.8632812,0-1.5019531.6972656-1.8085938,1.0517578l-.1660156-.1533203.1660156-4.5058594h4.1738281l-.2480469,1.0410156h-3.5830078Z"/>
          </g>
        </g>
      </g>
    </g>
  </g>
</svg>