<?xml version="1.0" encoding="UTF-8"?>
<svg id="_レイヤー_2" data-name="レイヤー 2" xmlns="http://www.w3.org/2000/svg" xmlns:xlink="http://www.w3.org/1999/xlink" viewBox="0 0 338.2236328 24.5683594">
  <defs>
    <style>
      .cls-1 {
        fill: url(#_名称未設定グラデーション_34);
      }

      .cls-2 {
        fill: #776c66;
      }
    </style>
    <radialGradient id="_名称未設定グラデーション_34" data-name="名称未設定グラデーション 34" cx="107.1065366" cy="16.1398998" fx="107.1065366" fy="16.1398998" r="1.7531352" gradientTransform="translate(10.1082069 -11.8627236) scale(.9871373)" gradientUnits="userSpaceOnUse">
      <stop offset="0" stop-color="#00a0e9"/>
      <stop offset="1" stop-color="#1d2088"/>
    </radialGradient>
  </defs>
  <g id="_レイヤー_1-2" data-name="レイヤー 1">
    <g>
      <g>
        <text x="0" y="20" font-family="Arial, sans-serif" font-weight="700" font-size="20" fill="#776c66" textLength="100" lengthAdjust="spacingAndGlyphs">So sánh giữa</text>
        <g>
          <g>
            <path class="cls-2" d="M118.6501865,22.412431v.2933319c0,.0977773-.0486502.1464275-.1464275.1464275h-5.3038228c-.0982543,0-.1469044-.0486502-.1469044-.1464275v-.2933319c0-.0973003.0486502-.1464275.1469044-.1464275h.1464275c.2732995,0,.4879326-.0877611.6443763-.2637603.1564437-.1755222.2346655-.4101877.2346655-.7030427v-12.7768709c0-.3119335-.0782218-.5513686-.2346655-.7178285-.1564437-.165506-.3710768-.2489744-.6443763-.2489744h-.1464275c-.0982543,0-.1469044-.0486502-.1469044-.1464275v-.2933319c0-.0973003.0486502-.1464275.1469044-.1464275h4.2783534v14.3298607c0,.292855.0777449.5275205.2341886.7030427.1564437.1759992.3710768.2637603.6448533.2637603h.1464275c.0977773,0,.1464275.0491271.1464275.1464275Z"/>
            <path class="cls-2" d="M139.1633888,2.4854156v2.8131247c0,.0982543-.0491271.1469044-.1464275.1469044h-.292855c-.0982543,0-.1469044-.0486502-.1469044-.1469044v-.0290947c0-.7421536-.2050939-1.3188013-.6152816-1.728989-.4101877-.4101877-.9868354-.6152816-1.728989-.6152816h-1.7580837c-.2933319,0-.5127347.0877611-.6596391.2637603-.1464275.1755222-.2194027.4101877-.2194027.7030427v8.1469961h.673948c.7421536,0,1.3188013-.2098635,1.728989-.6300674s.6152816-.991605.6152816-1.7146801v-.0290947c0-.0973003.0486502-.1464275.1464275-.1464275h.2933319c.0973003,0,.1464275.0491271.1464275.1464275v5.3333944c0,.0982543-.0491271.1464275-.1464275.1464275h-.2933319c-.0977773,0-.1464275-.0481732-.1464275-.1464275v-.0290947c0-.7426306-.2050939-1.3188013-.6152816-1.728989s-.9868354-.6157586-1.728989-.6157586h-.673948v8.6745166c0,.292855.0729753.5275205.2194027.7030427.1469044.1759992.3663072.2637603.6596391.2637603h1.7580837c.7421536,0,1.3188013-.2093865,1.728989-.6300674.4101877-.419727.6152816-.991128.6152816-1.7142032v-.0290947c0-.0977773.0486502-.1469044.1469044-.1469044h.292855c.0973003,0,.1464275.0491271.1464275.1469044v2.8131247c0,.0977773-.0491271.1464275-.1464275.1464275h-9.9637462c-.0977773,0-.1464275-.0486502-.1464275-.1464275v-.2933319c0-.0973003.0486502-.1464275.1464275-.1464275h.1469044c.292855,0,.5127347-.0877611.6591621-.2637603.1464275-.1755222.2198797-.4101877.2198797-.7030427V3.8919779c0-.292855-.0734522-.5275205-.2198797-.7030427-.1464275-.1759992-.3663072-.2637603-.6591621-.2637603h-.1469044c-.0977773,0-.1464275-.0486502-.1464275-.1464275v-.2933319c0-.0973003.0486502-.1464275.1464275-.1464275h9.9637462c.0973003,0,.1464275.0491271.1464275.1464275Z"/>
            <path class="cls-2" d="M162.5479053,22.412431v.2933319c0,.0977773-.0491271.1464275-.1464275.1464275h-5.56806c-.0977773,0-.1464275-.0486502-.1464275-.1464275v-.2933319c0-.0973003.0486502-.1464275.1464275-.1464275h.1464275c.1759992,0,.3124104-.0534198.4101877-.1612133.0977773-.1068396.1469044-.2585137.1469044-.4540683,0-.1559667-.0295717-.3224266-.0882381-.4984258l-3.3406452-8.0000917v8.1469961c0,.292855.0734522.5275205.2198797.7030427.1464275.1759992.3663072.2637603.6591621.2637603h.1469044c.0973003,0,.1464275.0491271.1464275.1464275v.2933319c0,.0977773-.0491271.1464275-.1464275.1464275h-5.56806c-.0977773,0-.1464275-.0486502-.1464275-.1464275v-.2933319c0-.0973003.0486502-.1464275.1464275-.1464275h.1464275c.2933319,0,.5127347-.0877611.6596391-.2637603.1464275-.1755222.2194027-.4101877.2194027-.7030427V3.8919779c0-.292855-.0729753-.5275205-.2194027-.7030427-.1469044-.1759992-.3663072-.2637603-.6596391-.2637603h-.1464275c-.0977773,0-.1464275-.0486502-.1464275-.1464275v-.2933319c0-.0973003.0486502-.1464275.1464275-.1464275h5.7144875c1.3083081,0,2.4220155.2489744,3.3406452.7474002.9181528.4979488,1.6116562,1.1475717,2.0805103,1.9483917.4688541.801297.7035197,1.6607834.7035197,2.5789361,0,1.1332629-.3567679,2.1883039-1.0698268,3.165123s-1.7142032,1.6607834-3.0034327,2.0514156l3.838594,8.8791335c.2732995.3710768.6348371.5566152,1.0846127.5566152h.1464275c.0973003,0,.1464275.0491271.1464275.1464275ZM154.1080542,2.925175v9.6413196h.8790418c.8985973,0,1.6068866-.5132116,2.1248678-1.538681.5175043-1.0254693.7764949-2.2126289.7764949-3.5605249,0-1.2501187-.2246493-2.3194685-.673948-3.2090036-.4497756-.8885811-1.0946289-1.3331101-1.9340829-1.3331101h-1.1723738Z"/>
            <path class="cls-2" d="M183.1784403,22.412431v.2933319c0,.0977773-.0491271.1464275-.1464275.1464275h-5.8609149c-.0977773,0-.1464275-.0486502-.1464275-.1464275v-.2933319c0-.0973003.0486502-.1464275.1464275-.1464275h.2050939c.4101877,0,.6152816-.2437278.6152816-.7326144,0-.1364113-.0100162-.2341886-.0290947-.292855l-.5861869-3.3115505h-3.3702169l-.6152816,3.3702169c-.0195555.0977773-.0290947.2341886-.0290947.4101877,0,.1955546.038634.3367355.1173328.4249736.0777449.0877611.2146331.1316416.4101877.1316416h.1464275c.0973003,0,.1464275.0491271.1464275.1464275v.2933319c0,.0977773-.0491271.1464275-.1464275.1464275h-2.6962689c-.0977773,0-.1464275-.0486502-.1464275-.1464275v-.2933319c0-.0973003.0486502-.1464275.1464275-.1464275h.1469044c.292855,0,.546599-.1025469.7617091-.3076408.2146331-.2050939.3515213-.4636075.4101877-.7764949l3.3115505-18.8428797h2.4616034l3.3697399,19.0479736c.0782218.2737765.2198797.4884096.4249736.6448533s.444529.2341886.7183055.2341886h.0877611c.0973003,0,.1464275.0491271.1464275.1464275ZM177.258859,17.1963693l-1.5820845-8.9087052-1.5534668,8.9087052h3.1355513Z"/>
          </g>
          <circle class="cls-1" cx="115.8370618" cy="4.0695732" r="1.7305851"/>
        </g>
      </g>
      <g>
        <text x="256" y="22" font-family="Arial, sans-serif" font-weight="700" font-size="19" fill="#776c66" textLength="82" lengthAdjust="spacingAndGlyphs">và Cấp đông chậm</text>
        <text x="192" y="18" font-family="Arial, sans-serif" font-weight="700" font-size="12" fill="#776c66" textLength="57" lengthAdjust="spacingAndGlyphs">Minus 65</text>
      </g>
    </g>
  </g>
</svg>