<?xml version="1.0" encoding="UTF-8"?>
<svg id="_レイヤー_2" data-name="レイヤー 2" xmlns="http://www.w3.org/2000/svg" xmlns:xlink="http://www.w3.org/1999/xlink" viewBox="0 0 240.9448819 66.5213388">
  <defs>
    <style>
      .cls-1 {
        fill: url(#_名称未設定グラデーション_34);
      }

      .cls-2 {
        fill: url(#_名称未設定グラデーション_14);
      }

      .cls-3 {
        fill: #776c66;
      }

      .cls-4 {
        fill: url(#_名称未設定グラデーション_34-2);
      }

      .cls-5 {
        fill: none;
        stroke: #776c66;
        stroke-miterlimit: 10;
        stroke-width: .9662986px;
      }
    </style>
    <radialGradient id="_名称未設定グラデーション_34" data-name="名称未設定グラデーション 34" cx="-156.795106" cy="311.4165718" fx="-156.795106" fy="311.4165718" r="43.0456311" gradientTransform="translate(172.1017656 -234.317471) scale(.8)" gradientUnits="userSpaceOnUse">
      <stop offset="0" stop-color="#00a0e9"/>
      <stop offset="1" stop-color="#1d2088"/>
    </radialGradient>
    <radialGradient id="_名称未設定グラデーション_14" data-name="名称未設定グラデーション 14" cx="-156.9625214" cy="311.9691946" fx="-156.9625214" fy="311.9691946" r="43.141254" gradientTransform="translate(172.1017656 -234.317471) scale(.8)" gradientUnits="userSpaceOnUse">
      <stop offset="0" stop-color="#eae5e3"/>
      <stop offset="1" stop-color="#a89990"/>
    </radialGradient>
    <radialGradient id="_名称未設定グラデーション_34-2" data-name="名称未設定グラデーション 34" cx="-7.3714077" cy="43.5830042" fx="-7.3714077" fy="43.5830042" r="2.3265874" gradientTransform="translate(11.070423 -1.4274986) scale(.9871373)" xlink:href="#_名称未設定グラデーション_34"/>
  </defs>
  <g id="_レイヤー_1-2" data-name="レイヤー 1">
    <g>
      <g>
        <g>
          <path class="cls-1" d="M88.6972952,5.3330256s2.5201868,1.5908155,2.4866899,5.7771619c-.0584292,7.3023397-10.2170184,10.2520857-16.0603174,10.2520857-13.0111277,0-27.4108287-7.1865757-37.2517925-13.3142413C21.3558768-2.2359091,1.4037406-5.1640656.2734594,14.4591838.9265267,12.315789,1.4316679-1.2384021,17.1045351,3.5840279c8.6660519,2.6664977,21.5901578,15.6750088,34.6525065,21.8462108,13.0623683,6.171202,39.4976009,7.2574948,41.2270716-8.7103736.7367882-6.8027892-4.286818-11.3868395-4.286818-11.3868395Z"/>
          <path class="cls-2" d="M10.1419223.5238707S1.810794,3.6094598,1.810794,10.9120374s10.2857225,10.9485968,16.1290215,10.9485968c13.0111277.0000238,27.4056424-7.1948785,37.2518163-13.3141699,16.3970227-10.1906113,36.7416077-13.2046081,37.8718651,6.4186458-.001827-.0034972-1.4316577-15.7050322-17.104525-10.8826261-8.6660757,2.6664739-21.5901781,15.674985-34.6525503,21.8461632C28.2440527,32.0998255,3.3492205,32.7677643.3705241,16.9851279-2.278157,2.9511323,10.1419223.5238707,10.1419223.5238707Z"/>
        </g>
        <g>
          <g>
            <path class="cls-3" d="M7.5271321,65.9377337v.3892811c0,.1297604-.0645637.1943241-.1943241.1943241H.2940998c-.1303933,0-.194957-.0645637-.194957-.1943241v-.3892811c0-.1291274.0645637-.1943241.194957-.1943241h.1943241c.362696,0,.6475358-.1164678.8551524-.3500365.2076166-.2329357.3114249-.5443605.3114249-.9330086v-16.9561976c0-.4139672-.1038083-.7317218-.3114249-.9526309-.2076166-.2196431-.4924564-.3304142-.8551524-.3304142h-.1943241c-.1303933,0-.194957-.0645637-.194957-.1943241v-.3892811c0-.1291274.0645637-.1943241.194957-.1943241h5.677807v19.0171719c0,.3886481.1031753.700073.3107919.9330086.2076166.2335686.4924564.3500365.8557854.3500365h.1943241c.1297604,0,.1943241.0651967.1943241.1943241Z"/>
            <path class="cls-3" d="M34.7502226,39.4925724v3.7333005c0,.1303933-.0651967.194957-.1943241.194957h-.3886481c-.1303933,0-.194957-.0645637-.194957-.194957v-.0386116c0-.9849128-.2721803-1.7501824-.8165408-2.2945429s-1.3096302-.8165408-2.2945429-.8165408h-2.3331546c-.3892811,0-.6804507.1164678-.8754077.3500365-.1943241.2329357-.2911696.5443605-.2911696.9330086v10.8118863h.894397c.9849128,0,1.7501824-.27851,2.2945429-.8361631s.8165408-1.3159599.8165408-2.2755536v-.0386116c0-.1291274.0645637-.1943241.1943241-.1943241h.3892811c.1291274,0,.1943241.0651967.1943241.1943241v7.0779529c0,.1303933-.0651967.1943241-.1943241.1943241h-.3892811c-.1297604,0-.1943241-.0639307-.1943241-.1943241v-.0386116c0-.9855458-.2721803-1.7501824-.8165408-2.2945429-.5443605-.5443605-1.3096302-.8171738-2.2945429-.8171738h-.894397v11.5119593c0,.3886481.0968455.700073.2911696.9330086.194957.2335686.4861266.3500365.8754077.3500365h2.3331546c.9849128,0,1.7501824-.2778771,2.2945429-.8361631.5443605-.5570201.8165408-1.315327.8165408-2.2749206v-.0386116c0-.1297604.0645637-.194957.194957-.194957h.3886481c.1291274,0,.1943241.0651967.1943241.194957v3.7333005c0,.1297604-.0651967.1943241-.1943241.1943241h-13.2228971c-.1297604,0-.1943241-.0645637-.1943241-.1943241v-.3892811c0-.1291274.0645637-.1943241.1943241-.1943241h.194957c.3886481,0,.6804507-.1164678.8747747-.3500365.1943241-.2329357.2918026-.5443605.2918026-.9330086v-23.1011419c0-.3886481-.0974785-.700073-.2918026-.9330086-.1943241-.2335686-.4861266-.3500365-.8747747-.3500365h-.194957c-.1297604,0-.1943241-.0645637-.1943241-.1943241v-.3892811c0-.1291274.0645637-.1943241.1943241-.1943241h13.2228971c.1291274,0,.1943241.0651967.1943241.1943241Z"/>
            <path class="cls-3" d="M65.7838368,65.9377337v.3892811c0,.1297604-.0651967.1943241-.1943241.1943241h-7.3893777c-.1297604,0-.1943241-.0645637-.1943241-.1943241v-.3892811c0-.1291274.0645637-.1943241.1943241-.1943241h.1943241c.2335686,0,.4146002-.0708935.5443605-.2139463.1297604-.1417869.194957-.3430737.194957-.6025945,0-.2069836-.0392446-.4278927-.1171008-.6614613l-4.4333735-10.6169293v10.8118863c0,.3886481.0974785.700073.2918026.9330086.1943241.2335686.4861266.3500365.8747747.3500365h.194957c.1291274,0,.1943241.0651967.1943241.1943241v.3892811c0,.1297604-.0651967.1943241-.1943241.1943241h-7.3893777c-.1297604,0-.1943241-.0645637-.1943241-.1943241v-.3892811c0-.1291274.0645637-.1943241.1943241-.1943241h.1943241c.3892811,0,.6804507-.1164678.8754077-.3500365.1943241-.2329357.2911696-.5443605.2911696-.9330086v-23.1011419c0-.3886481-.0968455-.700073-.2911696-.9330086-.194957-.2335686-.4861266-.3500365-.8754077-.3500365h-.1943241c-.1297604,0-.1943241-.0645637-.1943241-.1943241v-.3892811c0-.1291274.0645637-.1943241.1943241-.1943241h7.5837018c1.7362569,0,3.2142591.3304142,4.4333735.9918755,1.2184814.6608284,2.1388305,1.5229435,2.7610473,2.5857125.6222167,1.063402.9336416,2.2040272.9336416,3.4225086,0,1.5039542-.4734671,2.9041001-1.4197682,4.2004378s-2.2749206,2.2040272-3.9858585,2.7224356l5.0942018,11.7835066c.362696.4924564.8424929.7386846,1.4393905.7386846h.1943241c.1291274,0,.1943241.0651967.1943241.1943241ZM54.5833023,40.0761775v12.7950044h1.1665773c1.1925294,0,2.1325007-.6810836,2.8199142-2.041985.6867804-1.3609013,1.0304871-2.936382,1.0304871-4.725176,0-1.6590337-.2981323-3.0781689-.894397-4.2586717-.5968977-1.1792368-1.452683-1.7691717-2.5667232-1.7691717h-1.5558584Z"/>
            <path class="cls-3" d="M93.1626397,65.9377337v.3892811c0,.1297604-.0651967.1943241-.1943241.1943241h-7.7780258c-.1297604,0-.1943241-.0645637-.1943241-.1943241v-.3892811c0-.1291274.0645637-.1943241.1943241-.1943241h.2721803c.5443605,0,.8165408-.3234514.8165408-.9722532,0-.1810315-.0132925-.3107919-.0386116-.3886481l-.7779292-4.3947618h-4.4726181l-.8165408,4.4726181c-.0259521.1297604-.0386116.3107919-.0386116.5443605,0,.2595207.0512712.446882.1557124.5639828.1031753.1164678.2848398.1747018.5443605.1747018h.1943241c.1291274,0,.1943241.0651967.1943241.1943241v.3892811c0,.1297604-.0651967.1943241-.1943241.1943241h-3.578221c-.1297604,0-.1943241-.0645637-.1943241-.1943241v-.3892811c0-.1291274.0645637-.1943241.1943241-.1943241h.194957c.3886481,0,.7253921-.1360901,1.0108648-.4082704.2848398-.2721803.4665043-.615254.5443605-1.0304871l4.3947618-25.0064037h3.2667962l4.4719851,25.278584c.1038083.363329.2918026.6481688.5639828.8557854.2721803.2076166.5899349.3107919.9532639.3107919h.1164678c.1291274,0,.1943241.0651967.1943241.1943241ZM85.3067576,59.0154932l-2.0995859-11.8227512-2.0616073,11.8227512h4.1611932Z"/>
          </g>
          <circle class="cls-4" cx="3.7938316" cy="41.5949095" r="2.2966612"/>
        </g>
      </g>
      <line class="cls-5" x1="109.7929744" x2="109.7929744" y2="66.5213388"/>
      <g>
        <path class="cls-3" d="M139.9882964,13.1507426c-.6575361.4691626-.9389693.7744242-1.5256641,1.4078099-.3754589.3989653-1.9945047,2.229247-2.3467792,2.6047059.3992873.2347423,1.2204025.7979307,1.2204025,1.1263767,0,.164545-.2344203.8214371-.2582488.9621537-.0231844.1877295-.0701973,1.4316383-.0701973,2.933474,0,.9151408.164223,4.9511631.164223,5.7490938,0,.5866948-.2112359,1.6190458-.9151408,1.6190458-.7277334,0-1.2905997-1.2200804-1.2905997-1.8537881,0-.2344203.2112359-1.2905997.2344203-1.5018356.164223-1.3376126.1880515-2.6517188.1880515-3.9890094,0-.4694846,0-3.0271777-.1410386-3.4966623q-.0470129-.1407166-.3046176-.328446c-3.5671816,3.4728339-6.3364326,4.6227171-8.1197014,5.2329183l-.0940257-.1407166c4.7875841-2.933474,11.0525313-10.8416175,11.0525313-11.8034492,0-.5866948-.6330636-1.1263767-1.1727456-1.5723549.3046176-.0470129.6098792-.0940257,1.032351-.0940257,1.4548228,0,3.0738686,1.8306037,3.0738686,2.3702856,0,.2814332-.0940257.3519525-.7270894.7744242Z"/>
        <path class="cls-3" d="M166.8577588,25.4938737c-.2814332,0-1.4786512-.3519525-1.7130715-.3989653-1.0561794-.2112359-4.4816785-.4691626-5.4438322-.4691626-3.8486148,0-7.8846371.6568921-8.6593833.9386473-.164223.0701973-.9151408.4456562-1.0793639.4456562-.6807205,0-2.1117149-1.5720329-2.1117149-2.8394482,0-.3519525.0933817-.6333857.164223-.9151408.4926691.7509178,1.0555354,1.6425522,2.7686069,1.6425522.0238284,0,3.5201688-.2344203,4.1770609-.2814332.6337077-.0235064.7277334-.0470129,1.7130715-.0940257,0-.7509178.0238284-4.0360223.0238284-4.7164208,0-2.4639893-.2112359-2.5345086-1.032995-2.8394482-.4224718.0701973-2.3229507.3989653-2.6282124.3989653-.5396819,0-1.9945047-1.3141062-2.0176891-2.393792.4688406.3052616,1.2435869.8214371,3.1440658.8214371.7979307,0,5.8669479-.3519525,6.7350759-.6572141.164223-.0701973.7979307-.3986433.9383253-.3986433.3052616,0,2.0183331.3754589,2.0183331,1.196574,0,.0470129,0,.7509178-.9383253.7509178-.5866948,0-3.097697-.0470129-3.6141945-.0470129-.5158535,0-.6807205,0-1.1025483.0470129.6098792.4459782.7270894.5631884.7270894.8214371,0,.1877295-.3052616,1.0088446-.328446,1.1733896-.164223,1.4078099-.328446,5.1859054-.3522745,5.7255873,2.1825562-.1172102,3.3791302-.164223,4.0598507-.164223s1.196574,0,1.5958614-.0940257c.3754589-.0701973.8919564-.164223,1.032351-.164223.7509178,0,2.4639893.8919564,2.4639893,1.9243074,0,.4224718-.3052616.5866948-.5396819.5866948Z"/>
        <path class="cls-3" d="M186.6643432,18.4541801c-.1172102.0937037-.1880515.2109139-.6807205,1.2905997-1.0561794,2.2527534-2.1117149,4.6227171-5.0213604,6.9459898-1.1733896.9618317-3.8254304,2.7924354-6.3828014,2.8626327v-.164223c2.3699636-.9386473,5.7020809-4.2707646,6.3357886-4.998176,1.0085226-1.1498832,2.4639893-3.2149071,3.4963403-6.5705309-1.4078099.1407166-7.1807321.7274114-8.5183447,1.2905997-.1410386.0705193-.7509178.3989653-.8919564.3989653-.4926691,0-2.3699636-1.3376126-2.3699636-2.9566584,0-.2582488.0470129-.4929911.1880515-.8449435.1874074.2582488.4224718.6102012,1.032351,1.0793639.5396819.3989653.703905.4459782,1.360797.4459782,1.5488485,0,9.0110138-.5866948,9.293091-.7274114.1874074-.1175322.8211151-.9151408,1.0085226-.9151408.2350643,0,2.0885304,1.3141062,2.0885304,1.9239854,0,.3052616-.2344203.4694846-.9383253.9389693ZM183.5434618,13.8546475c-1.1031923.0470129-4.5763482.2582488-5.5616863.4459782-1.0561794.1877295-1.1733896.2344203-1.5018356.2344203-1.1031923,0-2.1587277-1.6425522-2.0415176-2.8159418,1.1025483,1.1263767,2.393792,1.1263767,3.3321173,1.1263767,2.6513968,0,4.4823225-.4926691,4.7637556-.5866948.2112359-.0466909,1.032351-.4691626,1.2204025-.4691626.1874074,0,1.196574.3519525,1.4780072.4926691.328446.1410386.6337077.3754589.6337077.8449435,0,.6102012-.3754589.6568921-2.3229507.7274114Z"/>
        <path class="cls-3" d="M145.5029699,43.6579059c-.4463002.1407166-.4694846.164223-1.7130715,1.2200804-.6337077.5400039-3.3089329,2.933474-3.8956277,3.3791302-.5635104.4224718-.9389693.6572141-1.2204025.8449435,1.4316383,1.1498832,2.3235948,2.7222381,2.3235948,3.6138725,0,.6102012-.3754589,1.2670933-1.1031923,1.2670933-.3522745,0-.7277334-.0705193-1.2674153-1.032351-1.4780072-2.6050279-3.7075762-4.6465455-6.1007242-6.4298143,3.4963403.8916344,5.1153861,1.8537881,5.5848708,2.1587277,3.6837478-4.1770609,4.0128378-4.5525198,4.9511631-6.1715655-6.4529987.6102012-10.0201804.9386473-11.9206593,1.5958614-.1880515.0701973-.9389693.4456562-1.1031923.4456562-.5396819,0-2.0415176-1.9243074-2.0415176-2.8159418,0-.3989653.0940257-.7744242.3052616-1.3843035.9151408,1.5250201,1.032351,1.6895651,2.1117149,1.6895651,2.5110022,0,11.9676722-.6572141,12.3431311-.7274114.4224718-.0940257.5866948-.1880515,1.0561794-.5400039.2814332-.1877295.4456562-.2109139.5635104-.2109139.328446,0,.9615097.703905,1.3839815,1.1730676.2350643.2817552.8919564.9856601.8919564,1.2439089,0,.3519525-.1172102.3754589-1.1495612.6803985Z"/>
        <path class="cls-3" d="M164.0653234,40.1380591c-.6568921.4691626-.9383253.7744242-1.5250201,1.4078099-.3754589.3989653-1.9951487,2.229247-2.3467792,2.6047059.3986433.2347423,1.2204025.7979307,1.2204025,1.1263767,0,.164545-.2350643.8214371-.2582488.9621537-.0238284.1877295-.0701973,1.4316383-.0701973,2.933474,0,.9151408.164223,4.9511631.164223,5.7490938,0,.5866948-.2112359,1.6190458-.9151408,1.6190458-.7277334,0-1.2912438-1.2200804-1.2912438-1.8537881,0-.2344203.2112359-1.2905997.2350643-1.5018356.164223-1.3376126.1874074-2.6517188.1874074-3.9890094,0-.4694846,0-3.0271777-.1403946-3.4966623q-.0470129-.1407166-.3052616-.328446c-3.5665376,3.4728339-6.3357886,4.6227171-8.1190574,5.2329183l-.0940257-.1407166c4.7869401-2.933474,11.0525313-10.8416175,11.0525313-11.8034492,0-.5866948-.6337077-1.1263767-1.1733896-1.5723549.3052616-.0470129.6098792-.0940257,1.032351-.0940257,1.4548228,0,3.0745126,1.8306037,3.0745126,2.3702856,0,.2814332-.0940257.3519525-.7277334.7744242Z"/>
        <path class="cls-3" d="M188.8939122,45.1362351c-.1874074,0-2.1117149-.2582488-2.4169765-.3049396-.703905-.0940257-1.196574-.0940257-1.9243074-.0940257-1.1495612,0-1.8772945.0470129-2.393148.0470129-.1178542,2.5345086-.3522745,5.1157081-1.6428742,7.3214487-.6807205,1.1498832-2.5811995,3.8953057-5.8901324,4.6462235l-.0701973-.2347423c1.0091666-.703905,3.9419965-2.8391262,5.2325963-7.8376242.3992873-1.5955394.4933131-2.9096455.5164975-3.7545891-1.360797.1175322-4.1068636.4694846-5.1392146,1.1498832-.4926691.328446-.5396819.3519525-.8449435.3519525-.5396819,0-2.6282124-1.1498832-2.6282124-3.097375,0-.3754589.0470129-.5631884.0940257-.7979307.7277334,1.032673,1.8541101,1.5723549,2.5341866,1.5723549.3522745,0,5.2100559-.4459782,6.031171-.5164975,0-1.360797-.0470129-3.4493275-.1410386-4.0125158-.1172102-.6337077-.7741022-.8916344-1.900479-1.2439089.6337077-.7509178,1.5250201-.7741022,1.7130715-.7741022,1.1733896,0,2.7454225.7509178,2.7454225,1.5720329,0,.2582488-.0940257.4694846-.2112359.6572141-.2582488.4926691-.3754589.6803985-.3754589,2.39347v1.2435869c1.1031923-.0470129,2.8394482-.0937037,3.9188121-.2112359.2344203-.0231844,1.2204025-.3754589,1.4078099-.3754589.3754589,0,2.4639893.4459782,2.4639893,1.4786512,0,.7741022-.6337077.8211151-1.0793639.8211151Z"/>
        <path class="cls-3" d="M210.3665553,54.9216731c-.6337077,0-.9853381-.6102012-1.2204025-.9856601-1.8064532-3.0036713-2.8864611-4.5055069-4.7637556-5.9838361-3.589722,4.2707646-7.1569037,6.5470245-10.4658366,7.1337192v-.1877295c5.6086992-2.6047059,11.4048058-10.4658366,12.1789081-13.7979539-.0701973.0231844-4.7631116.868128-6.0073425,1.4783292-.6800765.3519525-.7741022.3754589-.9621537.3754589-.3516305,0-1.8302817-1.0796859-1.8302817-2.5815215,0-.6098792.0940257-.7741022.2112359-1.032351.9621537,1.2435869,1.1502052,1.5018356,1.9243074,1.5018356.5635104,0,5.7020809-.4459782,6.6642346-1.0558574.164223-.1175322.9151408-.7509178,1.1031923-.7509178.3052616,0,2.1355433,1.7362559,2.1355433,2.1117149,0,.2582488-.164223.328768-.9151408.6102012-.2112359.0940257-.3052616.2582488-.6575361.8916344-1.5482045,2.8159418-1.8064532,3.2854264-3.0268557,4.8574594,2.8626327,1.196896,6.5470245,4.0128378,6.5470245,6.1248747,0,.5631884-.2112359,1.2905997-.9151408,1.2905997Z"/>
        <path class="cls-3" d="M222.8050001,44.7607761c2.064702,0,4.0830351,1.9478138,4.0830351,5.3034376,0,3.9188121-2.7460665,6.0543554-4.99882,6.0543554-2.3699636,0-5.4670166-2.3232727-5.4670166-8.0723665,0-4.6465455,2.2527534-9.9264766,6.4761832-9.9264766,1.8302817,0,3.3089329,1.0091666,3.3089329,2.393792,0,.8446215-.5635104,1.4313163-1.360797,1.4313163-.7509178,0-1.4786512-.5631884-1.4786512-1.4548228,0-.1175322.0940257-.6803985.0940257-.7979307,0-.6102012-.5866948-.7744242-1.0091666-.7744242-.868128,0-3.0268557.9386473-3.4493275,7.8846371,1.3839815-1.5488485,2.8394482-2.0415176,3.8016019-2.0415176ZM221.9130437,55.297132c1.8772945,0,2.4639893-2.9099675,2.4639893-4.9514851,0-2.39347-.8211151-4.4114812-2.3699636-4.4114812-.2112359,0-1.6660587,0-3.0274997,1.8302817.0708413,2.4404829.2112359,7.5326846,2.933474,7.5326846Z"/>
        <path class="cls-3" d="M232.3795243,40.6072217l-.2112359,5.6788965c.5635104-.4691626,2.0183331-1.6660587,3.8016019-1.6660587,2.064702,0,4.9749915,1.7130715,4.9749915,5.2094118,0,3.8251084-3.2387356,6.2890977-6.0543554,6.2890977-2.4878178,0-4.3651123-1.900801-4.3651123-3.5668596,0-1.0796859.8449435-1.736578,1.5958614-1.736578.5866948,0,1.3144282.4691626,1.3144282,1.4783292,0,.3049396-.0470129.5161755-.164223.7979307-.0940257.2112359-.1178542.2814332-.1178542.7274114,0,.5161755.0940257,1.4783292,1.6196898,1.4783292,2.1587277,0,3.5665376-2.2527534,3.5665376-5.2329183,0-2.7222381-1.2204025-4.3647903-3.0506841-4.3647903-1.7130715,0-2.9798428,1.3846255-3.5903661,2.0885304l-.328446-.3049396.328446-8.9408165h8.2839244l-.4926691,2.065024h-7.1105348Z"/>
      </g>
    </g>
  </g>
</svg>