<?xml version="1.0" encoding="UTF-8"?>
<svg id="_レイヤー_2" data-name="レイヤー 2" xmlns="http://www.w3.org/2000/svg" xmlns:xlink="http://www.w3.org/1999/xlink" viewBox="0 0 77.413053 55.2755906">
  <defs>
    <style>
      .cls-1 {
        fill: #d3cbc5;
      }

      .cls-2 {
        fill: url(#_名称未設定グラデーション_34);
      }

      .cls-3 {
        fill: url(#_名称未設定グラデーション_14);
      }

      .cls-4 {
        fill: url(#_名称未設定グラデーション_34-2);
      }
    </style>
    <radialGradient id="_名称未設定グラデーション_34" data-name="名称未設定グラデーション 34" cx="-124.2355155" cy="280.8366936" fx="-124.2355155" fy="280.8366936" r="24.4571369" gradientTransform="translate(184.1321789 -316.2678242) scale(1.17)" gradientUnits="userSpaceOnUse">
      <stop offset="0" stop-color="#00a0e9"/>
      <stop offset="1" stop-color="#1d2088"/>
    </radialGradient>
    <radialGradient id="_名称未設定グラデーション_14" data-name="名称未設定グラデーション 14" cx="-124.3306355" cy="281.1506761" fx="-124.3306355" fy="281.1506761" r="24.5114668" gradientTransform="translate(184.1321789 -316.2678242) scale(1.17)" gradientUnits="userSpaceOnUse">
      <stop offset="0" stop-color="#eae5e3"/>
      <stop offset="1" stop-color="#a89990"/>
    </radialGradient>
    <radialGradient id="_名称未設定グラデーション_34-2" data-name="名称未設定グラデーション 34" cx="297.0125473" cy="55.1598872" fx="297.0125473" fy="55.1598872" r="1.3218918" gradientTransform="translate(-425.6410639 -45.0705896) scale(1.4436883)" xlink:href="#_名称未設定グラデーション_34"/>
  </defs>
  <g id="_レイヤー_1-2" data-name="レイヤー 1">
    <g>
      <g>
        <path class="cls-2" d="M73.7025962,4.4314523s2.0941372,1.3218805,2.0663032,4.8005052c-.0485515,6.0678445-8.4897829,8.5189219-13.3452445,8.5189219-10.8115347,0-22.7768979-5.9716509-30.9542-11.0634056C17.7455644-1.8579181,1.1664315-4.2910558.2272298,12.0147901.7698929,10.2337464,1.1896377-1.0290443,14.2129322,2.9781309c7.2010147,2.2157136,17.9402391,13.0250741,28.7943357,18.1530051,10.8541129,5.127931,32.8203439,6.0305808,34.2574393-7.2378436.6122307-5.6527454-3.5621111-9.4618402-3.5621111-9.4618402Z"/>
        <path class="cls-3" d="M8.4273822.4353079S1.5046707,2.9992635,1.5046707,9.0673056s8.5468722,9.0976845,13.4023338,9.0976845c10.8115347.0000198,22.7725884-5.9785501,30.9542198-11.0633463,13.6250282-8.4678401,30.5302644-10.9723064,31.4694464,5.3335433-.0015181-.002906-1.1896292-13.0500219-14.2129238-9.0428664-7.2010344,2.2156938-17.940256,13.0250543-28.7943721,18.1529656C23.4692615,26.6731975,2.7830188,27.2282181.3078853,14.1137113-1.8930238,2.4522293,8.4273822.4353079,8.4273822.4353079Z"/>
      </g>
      <g>
        <g>
          <path class="cls-1" d="M6.2546347,54.7906466v.3234713c0,.1078238-.0536489.1614726-.1614726.1614726H.2443808c-.1083497,0-.1619986-.0536489-.1619986-.1614726v-.3234713c0-.1072978.0536489-.1614726.1619986-.1614726h.1614726c.3013805,0,.5380668-.0967784.7105848-.2908612.172518-.1935568.258777-.4523338.258777-.7752791v-14.0896719c0-.3439841-.086259-.6080208-.258777-.7915841-.172518-.1825114-.4092043-.2745561-.7105848-.2745561h-.1614726c-.1083497,0-.1619986-.0536489-.1619986-.1614726v-.3234713c0-.1072978.0536489-.1614726.1619986-.1614726h4.7179467v15.8022287c0,.3229453.085733.5817223.258251.7752791.172518.1940828.4092043.2908612.7111108.2908612h.1614726c.1078238,0,.1614726.0541749.1614726.1614726Z"/>
          <path class="cls-1" d="M28.8755324,32.8161655v3.1021683c0,.1083497-.0541749.1619986-.1614726.1619986h-.3229453c-.1083497,0-.1619986-.0536489-.1619986-.1619986v-.0320841c0-.8184086-.2261669-1.4543058-.6785007-1.9066396s-1.088231-.6785007-1.9066396-.6785007h-1.9387237c-.3234713,0-.5654172.0967784-.7274159.2908612-.1614726.1935568-.241946.4523338-.241946.7752791v8.9840856h.743195c.8184086,0,1.4543058-.2314266,1.9066396-.6948058s.6785007-1.0934907.6785007-1.8908605v-.0320841c0-.1072978.0536489-.1614726.1614726-.1614726h.3234713c.1072978,0,.1614726.0541749.1614726.1614726v5.8813913c0,.1083497-.0541749.1614726-.1614726.1614726h-.3234713c-.1078238,0-.1614726-.0531229-.1614726-.1614726v-.0320841c0-.8189346-.2261669-1.4543058-.6785007-1.9066396-.4523338-.4523338-1.088231-.6790267-1.9066396-.6790267h-.743195v9.5658079c0,.3229453.0804733.5817223.241946.7752791.1619986.1940828.4039446.2908612.7274159.2908612h1.9387237c.8184086,0,1.4543058-.2309006,1.9066396-.6948058.4523338-.4628532.6785007-1.0929647.6785007-1.8903345v-.0320841c0-.1078238.0536489-.1619986.1619986-.1619986h.3229453c.1072978,0,.1614726.0541749.1614726.1619986v3.1021683c0,.1078238-.0541749.1614726-.1614726.1614726h-10.9875036c-.1078238,0-.1614726-.0536489-.1614726-.1614726v-.3234713c0-.1072978.0536489-.1614726.1614726-.1614726h.1619986c.3229453,0,.5654172-.0967784.7268899-.2908612.1614726-.1935568.242472-.4523338.242472-.7752791v-19.1957841c0-.3229453-.0809993-.5817223-.242472-.7752791-.1614726-.1940828-.4039446-.2908612-.7268899-.2908612h-.1619986c-.1078238,0-.1614726-.0536489-.1614726-.1614726v-.3234713c0-.1072978.0536489-.1614726.1614726-.1614726h10.9875036c.1072978,0,.1614726.0541749.1614726.1614726Z"/>
          <path class="cls-1" d="M54.6627667,54.7906466v.3234713c0,.1078238-.0541749.1614726-.1614726.1614726h-6.1401683c-.1078238,0-.1614726-.0536489-.1614726-.1614726v-.3234713c0-.1072978.0536489-.1614726.1614726-.1614726h.1614726c.1940828,0,.34451-.0589086.4523338-.1777777.1078238-.1178172.1619986-.2850755.1619986-.500723,0-.171992-.0326101-.3555554-.0973044-.5496382l-3.6838906-8.822087v8.9840856c0,.3229453.0809993.5817223.242472.7752791.1614726.1940828.4039446.2908612.7268899.2908612h.1619986c.1072978,0,.1614726.0541749.1614726.1614726v.3234713c0,.1078238-.0541749.1614726-.1614726.1614726h-6.1401683c-.1078238,0-.1614726-.0536489-.1614726-.1614726v-.3234713c0-.1072978.0536489-.1614726.1614726-.1614726h.1614726c.3234713,0,.5654172-.0967784.7274159-.2908612.1614726-.1935568.241946-.4523338.241946-.7752791v-19.1957841c0-.3229453-.0804733-.5817223-.241946-.7752791-.1619986-.1940828-.4039446-.2908612-.7274159-.2908612h-.1614726c-.1078238,0-.1614726-.0536489-.1614726-.1614726v-.3234713c0-.1072978.0536489-.1614726.1614726-.1614726h6.301641c1.4427344,0,2.6708733.2745561,3.6838906.8241943,1.0124914.5491122,1.7772511,1.2654827,2.2942791,2.1485855.5170281.8836288.7758051,1.8314259.7758051,2.8439173,0,1.2497036-.3934252,2.4131482-1.1797497,3.4903338-.7863245,1.0771856-1.8903345,1.8314259-3.3120302,2.262195l4.2330028,9.7914488c.3013805.4092043.7000654.6138064,1.1960547.6138064h.1614726c.1072978,0,.1614726.0541749.1614726.1614726ZM45.3557358,33.3011094v10.6319482h.9693619c.9909266,0,1.7719914-.5659432,2.3431943-1.6967777.5706769-1.1308345.8562784-2.4399727.8562784-3.9263626,0-1.3785661-.2477317-2.5577898-.743195-3.538723-.4959893-.9798812-1.2071001-1.4700848-2.1328065-1.4700848h-1.2928331Z"/>
          <path class="cls-1" d="M77.413053,54.7906466v.3234713c0,.1078238-.0541749.1614726-.1614726.1614726h-6.4631136c-.1078238,0-.1614726-.0536489-.1614726-.1614726v-.3234713c0-.1072978.0536489-.1614726.1614726-.1614726h.2261669c.4523338,0,.6785007-.2687704.6785007-.8078892,0-.1504273-.0110454-.258251-.0320841-.3229453l-.6464166-3.6518065h-3.7165007l-.6785007,3.7165007c-.0215648.1078238-.0320841.258251-.0320841.4523338,0,.2156475.0426035.3713345.1293885.4686389.085733.0967784.2366863.1451676.4523338.1451676h.1614726c.1072978,0,.1614726.0541749.1614726.1614726v.3234713c0,.1078238-.0541749.1614726-.1614726.1614726h-2.9733058c-.1078238,0-.1614726-.0536489-.1614726-.1614726v-.3234713c0-.1072978.0536489-.1614726.1614726-.1614726h.1619986c.3229453,0,.6027611-.1130834.8399733-.3392503.2366863-.2261669.3876395-.5112424.4523338-.8562784l3.6518065-20.7789524h2.7145288l3.7159748,21.0051193c.086259.3019065.242472.5385928.4686389.7111108s.4902036.258251.7921101.258251h.0967784c.1072978,0,.1614726.0541749.1614726.1614726ZM70.8852451,49.0386438l-1.7446409-9.824059-1.7130828,9.824059h3.4577237Z"/>
        </g>
        <circle class="cls-4" cx="3.1524664" cy="34.5630925" r="1.9083997"/>
      </g>
    </g>
  </g>
</svg>