<?xml version="1.0" encoding="UTF-8"?>
<svg id="_レイヤー_2" data-name="レイヤー 2" xmlns="http://www.w3.org/2000/svg" viewBox="0 0 142.1730709 26.8172804">
  <defs>
    <style>
      .cls-1 {
        fill: #efea3a;
      }

      .cls-2 {
        fill: #ab539b;
      }

      .cls-3 {
        fill: #17499d;
      }

      .cls-4 {
        fill: #231815;
      }

      .cls-5 {
        fill: #71c7d5;
      }

      .cls-6 {
        fill: #6ab82d;
      }

      .cls-7 {
        fill: #ed8f26;
      }

      .cls-8 {
        fill: #e71e19;
      }
    </style>
  </defs>
  <g id="_レイヤー_1-2" data-name="レイヤー 1">
    <g>
      <g>
        <path class="cls-4" d="M45.6075328,15.0444695l4.869237,10.9557655h-3.3857169l-4.1842625-9.3581874h-3.2336162v9.3581874h-3.0430558V.855213h3.0430558v12.9719647h3.1194886l3.7279607-6.542761h3.5378175l-4.4509081,7.7600528Z"/>
        <path class="cls-4" d="M62.4565546,26.000235h-9.8144895V7.2844167h13.2001368v15.3301016c0,1.8641541-1.5219104,3.3857168-3.3856473,3.3857168ZM55.4570047,10.1372597v12.9720203h7.5319368v-12.9720203h-7.5319368Z"/>
        <path class="cls-4" d="M83.0330502,22.6145183c0,1.8261116-1.4454776,3.3096317-3.2331989,3.3857168h-9.6243463V.8171844h3.0430558v6.4672323h9.8144895v15.3301016ZM73.2185608,10.0611746v13.2382485h6.8475188v-13.2382485h-6.8475188Z"/>
        <path class="cls-4" d="M100.1481612,22.6145183c0,1.8261116-1.445408,3.3096317-3.2331294,3.3857168h-9.5482612v-12.1730573h9.7384044v-3.7660031h-9.3961606v-2.7767579h12.4391468v15.3301016ZM90.2957683,16.6040747v6.6953485h6.8094067v-6.6953485h-6.8094067Z"/>
        <path class="cls-4" d="M104.4819511,26.000235v-2.776897h10.0805786v-6.2386428h-9.8523929V7.2844167h12.9719511v2.7767579h-9.9290344v3.7660031h9.8529493v8.7873406c0,1.8641541-1.5219104,3.3857168-3.3857169,3.3857168h-9.7383348Z"/>
        <path class="cls-4" d="M134.7967816,26.000235h-2.9669707v-15.9390604h-6.8094763v15.9390604h-3.0429862V.8171844l3.0429862.0380286v6.4292037h6.3912169c1.8637369,0,3.38523,1.5214235,3.38523,3.3851604v15.3306579Z"/>
        <path class="cls-4" d="M142.1730709,2.6433656v2.852843h-3.0429862v-2.852843h3.0429862ZM142.1730709,7.2844167v18.7158183h-3.0429862V7.2844167h3.0429862Z"/>
      </g>
      <g>
        <path class="cls-4" d="M26.8174372,14.8688618V0h-2.1746843v6.6536894h-1.3330191V.0017387H0v2.177327h6.1382721v1.4635599L0,6.9175531v19.8790021h23.3097338v-7.5723438h3.5077034v-2.177327h-3.5077034v-8.216772h1.3330191v6.0387495h2.1746843ZM21.1333628,6.6536894h-6.8717907V2.1798308h6.8717907v4.4738587ZM12.0843841,2.1790657v3.275762l-3.7689241-1.9004719v-1.3752901h3.7689241ZM7.3093843,5.4850809l6.5949912,3.3260449H1.0761102l6.2332741-3.3260449ZM2.1245575,10.9883001h9.8819333v6.0585842H2.1245575v-6.0585842ZM12.0056562,24.6193672H2.1236363v-5.3951559h9.88202v5.3951559ZM21.1333628,24.6193672h-6.9504491v-5.3951559h6.9504491v5.3951559ZM21.1333628,17.0468843h-6.9504491v-8.216772h6.9504491v8.216772Z"/>
        <rect class="cls-4" x="24.6427529" y="24.683351" width="2.1746843" height="2.1339293"/>
        <rect class="cls-2" x="14.2615721" y="2.1798308" width="6.8717907" height="4.4738587"/>
        <polygon class="cls-6" points="12.0845232 2.1792048 12.0845232 5.4549668 8.3155991 3.5545784 8.3155991 2.1792048 12.0845232 2.1792048"/>
        <polygon class="cls-8" points="7.3091757 5.4855678 13.9040974 8.8107644 1.075832 8.8107644 7.3091757 5.4855678"/>
        <rect class="cls-1" x="2.1245575" y="10.9883001" width="9.8819333" height="6.0585842"/>
        <rect class="cls-5" x="2.1236363" y="19.2242114" width="9.88202" height="5.3951559"/>
        <rect class="cls-3" x="14.1829137" y="19.2242114" width="6.9504491" height="5.3951559"/>
        <rect class="cls-7" x="14.1829137" y="8.8301124" width="6.9504491" height="8.216772"/>
      </g>
    </g>
  </g>
</svg>