<?xml version="1.0" encoding="UTF-8"?>
<svg id="_レイヤー_2" data-name="レイヤー 2" xmlns="http://www.w3.org/2000/svg" viewBox="0 0 18.4678364 13.427269">
  <defs>
    <style>
      .cls-1 {
        fill: #fff;
      }
    </style>
  </defs>
  <g id="_レイヤー_1-2" data-name="レイヤー 1">
    <path class="cls-1" d="M16.7948898,0H1.6731008C.7506565,0,0,.7506027,0,1.6731008v10.0811212c0,.9224443.7506565,1.673047,1.6731008,1.673047h15.121789c.9224981,0,1.6729466-.7506027,1.6729466-1.673047V1.6731008c0-.9224981-.7504485-1.6731008-1.6729466-1.6731008ZM1.6731008.9414421h15.121789c.4034214,0,.7314972.3282373.7314972.7316587v1.1344342l-7.3344544,5.2367818c-.4680032.3340497-1.2924983.3384628-1.7640535.0094182L.9414421,2.8279321v-1.1548313c0-.4034214.3282442-.7316587.7316587-.7316587ZM16.7948898,12.4858807H1.6731008c-.4034145,0-.7316587-.3282373-.7316587-.7316587V3.9757671l6.9477705,4.8498288c.3970708.2773253.9043075.4154228,1.41219.4154228.5175698,0,1.035624-.1436408,1.4376461-.4306534l6.7873384-4.8461692v7.7900258c0,.4034214-.3280759.7316587-.7314972.7316587Z"/>
  </g>
</svg>