<?xml version="1.0" encoding="UTF-8"?>
<svg id="_レイヤー_2" data-name="レイヤー 2" xmlns="http://www.w3.org/2000/svg" viewBox="0 0 104.8818898 19.7832615">
  <defs>
    <style>
      .cls-1 {
        fill: #fff;
      }
    </style>
  </defs>
  <g id="_レイヤー_1-2" data-name="レイヤー 1">
    <g>
      <g>
        <path class="cls-1" d="M33.6449385,11.0983915l3.592064,8.0821311h-2.4976627l-3.0867545-6.9035885h-2.3854572v6.9035885h-2.2448797V.6308955h2.2448797v9.5694928h2.3012646l2.750138-4.8266323h2.6098682l-3.2834604,5.7246355Z"/>
        <path class="cls-1" d="M46.0745585,19.1805225h-7.2402052V5.373756h9.7378166v11.3091038c0,1.3751972-1.122722,2.4976627-2.4976114,2.4976627ZM40.9109505,7.4783146v9.5695338h5.556353V7.4783146h-5.556353Z"/>
        <path class="cls-1" d="M61.2539574,16.6828598c0,1.347133-1.0663371,2.4415343-2.3851494,2.4976627h-7.0999355V.6028416h2.2448797v4.7709144h7.2402052v11.3091038ZM54.0137522,7.4221862v9.7659319h5.0514539V7.4221862h-5.0514539Z"/>
        <path class="cls-1" d="M73.8798729,16.6828598c0,1.347133-1.0662858,2.4415343-2.3850981,2.4976627h-7.0438071v-8.9801342h7.1840768v-2.7782021h-6.9316016v-2.0484302h9.1764299v11.3091038ZM66.6117061,12.2489211v4.939197h5.0233384v-4.939197h-5.0233384Z"/>
        <path class="cls-1" d="M77.0769346,19.1805225v-2.0485328h7.4365007v-4.6022826h-7.2681668v-7.1559511h9.5694827v2.0484302h-7.3247056v2.7782021h7.2685772v6.4824715c0,1.3751972-1.122722,2.4976627-2.4976627,2.4976627h-7.1840255Z"/>
        <path class="cls-1" d="M99.4403588,19.1805225h-2.1887513V7.4221862h-5.0233897v11.7583363h-2.2448284V.6028416l2.2448284.0280539v4.7428604h4.7148374c1.3748894,0,2.4973036,1.1223629,2.4973036,2.4972522v11.3095143Z"/>
        <path class="cls-1" d="M104.8818898,1.9500259v2.1045586h-2.2448284V1.9500259h2.2448284ZM104.8818898,5.373756v13.8067665h-2.2448284V5.373756h2.2448284Z"/>
      </g>
      <g>
        <path class="cls-1" d="M19.7833772,10.9688446V0h-1.6042771v4.9084649h-.9833758V.0012826H0v1.6062266h4.5282385v1.0796765L0,5.1031186v14.6648539h17.1957243v-5.5861615h2.5876529v-1.6062266h-2.5876529v-6.0615598h.9833758v4.4548201h1.6042771ZM15.590203,4.9084649h-5.0693594V1.6080736h5.0693594v3.3003912ZM8.9147195,1.6075093v2.4165484l-2.7803569-1.401989v-1.0145594h2.7803569ZM5.3921747,4.0463757l4.8651629,2.4536424H.7938526l4.5983221-2.4536424ZM1.5672982,8.106132h7.2899589v4.4694523H1.5672982v-4.4694523ZM8.8566415,18.1618484H1.5666187v-3.9800374h7.2900228v3.9800374ZM15.590203,18.1618484h-5.1273862v-3.9800374h5.1273862v3.9800374ZM15.590203,12.5755843h-5.1273862v-6.0615598h5.1273862v6.0615598Z"/>
        <rect class="cls-1" x="18.1791001" y="18.2090496" width="1.6042771" height="1.5742119"/>
      </g>
    </g>
  </g>
</svg>