<?xml version="1.0" encoding="UTF-8"?>
<svg id="_レイヤー_2" data-name="レイヤー 2" xmlns="http://www.w3.org/2000/svg" xmlns:xlink="http://www.w3.org/1999/xlink" viewBox="0 0 142.1730709 21.199751">
  <defs>
    <style>
      .cls-1 {
        fill: #d3cbc5;
      }

      .cls-2 {
        fill: url(#_名称未設定グラデーション_34);
      }

      .cls-3 {
        fill: url(#_名称未設定グラデーション_14);
      }

      .cls-4 {
        fill: url(#_名称未設定グラデーション_34-2);
      }
    </style>
    <radialGradient id="_名称未設定グラデーション_34" data-name="名称未設定グラデーション 34" cx="-608.4412365" cy="644.8348319" fx="-608.4412365" fy="644.8348319" r="30.4267719" gradientTransform="translate(519.7385906 -505.395338) scale(.8)" gradientUnits="userSpaceOnUse">
      <stop offset="0" stop-color="#00a0e9"/>
      <stop offset="1" stop-color="#1d2088"/>
    </radialGradient>
    <radialGradient id="_名称未設定グラデーション_14" data-name="名称未設定グラデーション 14" cx="-608.559574" cy="645.2254529" fx="-608.559574" fy="645.2254529" r="30.4943629" gradientTransform="translate(519.7385906 -505.395338) scale(.8)" gradientUnits="userSpaceOnUse">
      <stop offset="0" stop-color="#eae5e3"/>
      <stop offset="1" stop-color="#a89990"/>
    </radialGradient>
    <radialGradient id="_名称未設定グラデーション_34-2" data-name="名称未設定グラデーション 34" cx="46.1684456" cy="21.7431292" fx="46.1684456" fy="21.7431292" r="1.6445466" gradientTransform="translate(33.4282026 -18.8614951) scale(.9871373)" xlink:href="#_名称未設定グラデーション_34"/>
  </defs>
  <g id="_レイヤー_1-2" data-name="レイヤー 1">
    <g>
      <g>
        <path class="cls-2" d="M62.6956163,3.7696451s1.7813921,1.1244667,1.7577149,4.0835825c-.0413006,5.1616533-7.2218918,7.246679-11.3522233,7.246679-9.1969058,0-19.3753236-5.0798256-26.3314015-9.4111614C15.0953854-1.5804507.992233-3.6502159.1932946,10.2204631c.4616201-1.5150569.8186788-11.0958267,11.8970332-7.6870957,6.1255923,1.8848119,15.2609868,11.0798681,24.4940981,15.4419776,9.2331252,4.3621095,27.9188495,5.1299547,29.1413245-6.156921.5207982-4.8085464-3.0301341-8.0487789-3.0301341-8.0487789Z"/>
        <path class="cls-3" d="M7.1688102.3702976S1.2799584,2.5513439,1.2799584,7.7131654s7.2704552,7.7390074,11.4007867,7.7390074c9.1969058.0000168,19.3716577-5.0856944,26.3314183-9.411111,11.5902232-7.2032259,25.9707777-9.3336673,26.7696993,4.537015-.0012914-.002472-1.0119662-11.1010902-12.0903206-7.692376-6.1256091,1.8847951-15.2610011,11.0798513-24.4941291,15.441944C19.9642874,22.6897375,2.367394,23.1618695.2619047,12.0059248-1.6103136,2.0860056,7.1688102.3702976,7.1688102.3702976Z"/>
      </g>
      <g>
        <g>
          <path class="cls-1" d="M81.6416769,19.8086651v.275163c0,.091721-.0456368.1373578-.1373578.1373578h-4.9753056c-.0921684,0-.1378052-.0456368-.1378052-.1373578v-.275163c0-.0912736.0456368-.1373578.1378052-.1373578h.1373578c.2563714,0,.4577102-.0823252.6044638-.247423.1467536-.1646504.2201304-.3847808.2201304-.6594964V6.7789123c0-.2926124-.0733768-.517217-.2201304-.6733665-.1467536-.1552546-.3480924-.233553-.6044638-.233553h-.1373578c-.0921684,0-.1378052-.0456368-.1378052-.1373578v-.275163c0-.0912736.0456368-.1373578.1378052-.1373578h4.0133536v13.4422736c0,.2747156.0729294.494846.219683.6594964.1467536.1650978.3480924.247423.6049113.247423h.1373578c.091721,0,.1373578.0460842.1373578.1373578Z"/>
          <path class="cls-1" d="M100.8842979,1.1159228v2.6388806c0,.0921684-.0460842.1378052-.1373578.1378052h-.2747156c-.0921684,0-.1378052-.0456368-.1378052-.1378052v-.0272926c0-.6961849-.1923904-1.2371151-.5771712-1.621896s-.9257111-.5771712-1.621896-.5771712h-1.6491885c-.275163,0-.480976.0823252-.6187813.247423-.1373578.1646504-.205813.3847808-.205813.6594964v7.6423737h.6322039c.6961849,0,1.2371151-.1968646,1.621896-.5910413s.5771712-.9301853.5771712-1.6084734v-.0272926c0-.0912736.0456368-.1373578.1373578-.1373578h.275163c.0912736,0,.1373578.0460842.1373578.1373578v5.0030457c0,.0921684-.0460842.1373578-.1373578.1373578h-.275163c-.091721,0-.1373578-.0451894-.1373578-.1373578v-.0272926c0-.6966323-.1923904-1.2371151-.5771712-1.621896s-.9257111-.5776187-1.621896-.5776187h-.6322039v8.1372198c0,.2747156.0684552.494846.205813.6594964.1378052.1650978.3436182.247423.6187813.247423h1.6491885c.6961849,0,1.2371151-.1964172,1.621896-.5910413.3847808-.3937292.5771712-.9297379.5771712-1.6080259v-.0272926c0-.091721.0456368-.1378052.1378052-.1378052h.2747156c.0912736,0,.1373578.0460842.1373578.1378052v2.6388806c0,.091721-.0460842.1373578-.1373578.1373578h-9.3465949c-.091721,0-.1373578-.0456368-.1373578-.1373578v-.275163c0-.0912736.0456368-.1373578.1373578-.1373578h.1378052c.2747156,0,.480976-.0823252.6183338-.247423.1373578-.1646504.2062604-.3847808.2062604-.6594964V2.4353631c0-.2747156-.0689026-.494846-.2062604-.6594964-.1373578-.1650978-.3436182-.247423-.6183338-.247423h-.1378052c-.091721,0-.1373578-.0456368-.1373578-.1373578v-.275163c0-.0912736.0456368-.1373578.1373578-.1373578h9.3465949c.0912736,0,.1373578.0460842.1373578.1373578Z"/>
          <path class="cls-1" d="M122.8203847,19.8086651v.275163c0,.091721-.0460842.1373578-.1373578.1373578h-5.2231761c-.091721,0-.1373578-.0456368-.1373578-.1373578v-.275163c0-.0912736.0456368-.1373578.1373578-.1373578h.1373578c.1650978,0,.2930598-.050111.3847808-.1512278.091721-.100222.1378052-.2425014.1378052-.4259434,0-.1463062-.02774-.3024556-.0827726-.4675535l-3.1337267-7.5045685v7.6423737c0,.2747156.0689026.494846.2062604.6594964.1373578.1650978.3436182.247423.6183338.247423h.1378052c.0912736,0,.1373578.0460842.1373578.1373578v.275163c0,.091721-.0460842.1373578-.1373578.1373578h-5.2231761c-.091721,0-.1373578-.0456368-.1373578-.1373578v-.275163c0-.0912736.0456368-.1373578.1373578-.1373578h.1373578c.275163,0,.480976-.0823252.6187813-.247423.1373578-.1646504.205813-.3847808.205813-.6594964V2.4353631c0-.2747156-.0684552-.494846-.205813-.6594964-.1378052-.1650978-.3436182-.247423-.6187813-.247423h-.1373578c-.091721,0-.1373578-.0456368-.1373578-.1373578v-.275163c0-.0912736.0456368-.1373578.1373578-.1373578h5.3605339c1.2272719,0,2.2719966.233553,3.1337267.7011065.8612827.467106,1.5118307,1.0764915,1.9516442,1.827709.4398134.7516649.6599439,1.557915.6599439,2.4191976,0,1.0630689-.3346698,2.052761-1.0035621,2.9690763s-1.6080259,1.557915-2.817401,1.9243516l3.6008327,8.3291628c.2563714.3480924.5955155.5221386,1.0174321.5221386h.1373578c.0912736,0,.1373578.0460842.1373578.1373578ZM114.9032953,1.5284437v9.0441392h.8245943c.8429385,0,1.5073565-.4814235,1.9932542-1.4433755.4854502-.9619521.7283991-2.0755794.7283991-3.3399871,0-1.1726867-.2107346-2.1758014-.6322039-3.0102389-.4219167-.8335427-1.0268279-1.2505377-1.8142864-1.2505377h-1.0997573Z"/>
          <path class="cls-1" d="M142.1730709,19.8086651v.275163c0,.091721-.0460842.1373578-.1373578.1373578h-5.4978917c-.091721,0-.1373578-.0456368-.1373578-.1373578v-.275163c0-.0912736.0456368-.1373578.1373578-.1373578h.1923904c.3847808,0,.5771712-.2286314.5771712-.6872365,0-.127962-.0093958-.219683-.0272926-.2747156l-.5498787-3.1064341h-3.1614667l-.5771712,3.1614667c-.0183442.091721-.0272926.219683-.0272926.3847808,0,.183442.036241.3158782.1100652.3986508.0729294.0823252.2013388.1234878.3847808.1234878h.1373578c.0912736,0,.1373578.0460842.1373578.1373578v.275163c0,.091721-.0460842.1373578-.1373578.1373578h-2.5292628c-.091721,0-.1373578-.0456368-.1373578-.1373578v-.275163c0-.0912736.0456368-.1373578.1373578-.1373578h.1378052c.2747156,0,.5127428-.0961952.7145291-.2885856.2013388-.1923904.3297482-.4348918.3847808-.7283991l3.1064341-17.6757576h2.3091324l3.1610193,17.868148c.0733768.2568188.2062604.4581576.3986508.6049113s.416995.219683.6738139.219683h.0823252c.0912736,0,.1373578.0460842.1373578.1373578ZM136.6201466,14.9156847l-1.4840907-8.3569028-1.4572455,8.3569028h2.9413363Z"/>
        </g>
        <circle class="cls-4" cx="79.0027963" cy="2.6019582" r="1.6233932"/>
      </g>
    </g>
  </g>
</svg>