<?xml version="1.0" encoding="UTF-8"?>
<svg id="_レイヤー_2" data-name="レイヤー 2" xmlns="http://www.w3.org/2000/svg" viewBox="0 0 138.7490234 16.7402344">
  <defs>
    <style>
      .cls-1 {
        fill: #fff;
      }
    </style>
  </defs>
  <g id="_レイヤー_1-2" data-name="レイヤー 1">
    <g>
      <g>
        <path class="cls-1" d="M.3310547,12.4125977l.546875-.8969727c.1064453-.1655273.1943359-.3413086.2919922-.5068359.0488281-.1171875.1074219-.2143555.1757812-.3217773l.3505859-.7895508.0097656-.0195312.2929688-.7314453c.078125-.2045898.15625-.4194336.2333984-.6240234.0488281-.1269531.0585938-.2729492.0878906-.409668-.0585938-.097168-.1269531-.175293-.2041016-.2631836l-.15625-.0390625v-.0292969l.1074219-.097168c.0683594-.0292969.1357422-.0683594.2041016-.1171875.2050781.0292969.4492188.0585938.6533203.078125.078125.0292969.234375.175293.3613281.2338867.0585938.0292969.1074219.0683594.1552734.1171875.1074219.1069336.2539062.2338867.3027344.3701172,0,.0195312.0292969.1757812.0585938.2441406,0,.0292969-.0292969.0581055-.0390625.0776367-.1171875.1269531-.2246094.2636719-.3222656.3999023-.0576172.0878906-.1259766.1660156-.1845703.253418-.1269531.1757812-.234375.3901367-.3222656.5947266-.0390625.0878906-.0683594.1855469-.1171875.2636719-.0966797.1069336-.1064453.1557617-.1064453.1948242,0,.0195312,0,.0390625.0195312.0585938.2236328.1459961.3017578.253418.4775391.4482422.078125.078125.0976562.1660156.1269531.2631836l.0390625.8779297-.0292969,2.28125c-.0292969.2441406-.0488281.487793-.0683594.7314453,0,.0390625-.0292969.0683594-.0390625.0976562l-.0585938.0390625c-.0195312.0385742-.0488281.0678711-.0878906.097168-.0195312.0195312-.0390625.0488281-.0488281.0683594-.0292969.0195312-.0488281.0292969-.078125.0488281-.1367188.0976562-.1552734.0976562-.1943359.0976562-.2246094,0-.3320312-.1171875-.46875-.2832031-.2041016-.253418-.2919922-.5458984-.3115234-.8676758l-.0585938-.2338867c.0292969-.0585938.0683594-.0976562.1074219-.1464844.1269531-.1557617.1748047-.809082.1845703-1.0332031.0195312-.1171875.0292969-.2338867.0195312-.3608398.0097656-.15625.0195312-.3120117.0292969-.4780273-.0195312-.3505859.0292969-.3896484.0292969-.5849609,0-.1166992-.0097656-.2338867-.0097656-.3510742,0-.0288086-.0097656-.0581055-.0292969-.0776367l-.0292969.0292969-.5068359.7016602c-.1748047.2050781-.2529297.3510742-.4580078.5268555-.15625.1459961-.2929688.2241211-.4775391.3120117-.1074219.0776367-.2246094.1459961-.3515625.1655273-.0390625.0097656-.2919922.0585938-.3701172.078125-.0292969,0-.0683594-.0195312-.0683594-.0488281v-.0390625c.1074219-.1362305.1953125-.2827148.3310547-.3999023ZM3.4316406,10.8334961c.1464844.019043.2832031,0,.4296875,0,.0878906,0,.1855469.019043.2822266.0385742.15625-.0385742.8388672-.2143555.9267578-.3022461l.1269531-.0390625c.0097656-.0776367-.0195312-.1264648-.0488281-.1850586-.0195312-.0585938-.0292969-.1171875-.0390625-.175293-.0097656-.1757812-.0097656-.3510742-.0585938-.5170898-.0195312-.097168-.0488281-.1850586-.0585938-.2827148l-.0976562-.7993164c-.0390625-.3120117-.0390625-.4682617-.1269531-.7705078-.0195312-.1166992-.0390625-.2143555-.0878906-.3217773-.1748047-.097168-.3212891-.2338867-.5068359-.3022461v-.0390625c.0976562-.0292969.1855469-.0874023.2734375-.1459961.0390625-.0195312.0976562-.0195312.1464844-.0195312.0869141.0195312.2529297.0292969.2822266.0292969s.0585938.0097656.1074219.0292969c.0585938.0683594.1269531.0776367.2148438.0776367.0683594,0,.1455078.0097656.2138672.0390625.0488281.0195312.0976562.0585938.1367188.0878906.1367188.0585938.2734375.1171875.4091797.1850586.1855469.1464844.2539062.2246094.2539062.3803711,0,.0878906-.0488281.1855469-.0683594.2631836-.0390625.1464844-.0585938.4487305-.0390625.5947266l.1269531.965332c.0097656.1367188.0390625.2539062.0488281.3901367,0,.0195312.0292969.0585938.0390625.078125l.0683594-.0097656c.2041016-.078125.7705078-.3120117.8378906-.3608398.0292969-.0390625.0585938-.0585938.1074219-.078125l.0097656-.0390625.0390625-.0483398c.0390625-.0097656.0878906-.0195312.1269531-.0390625.0195312-.0097656.0390625-.0195312.0585938-.0195312.15625.0292969.2919922.0585938.4775391.0976562.1171875.0483398.2441406.1069336.3417969.1948242.1162109.1166992.3115234.2045898.3115234.3901367,0,.175293-.1269531.3120117-.2822266.3701172-.1855469.0683594-.2832031.1074219-.4882812.1464844-.1650391.0488281-.3408203.1171875-.5068359.1269531l-.8291016.3408203-.0673828.0292969-.0195312.0683594.2333984.9360352c.0585938.2241211.2148438.5556641.3515625.7509766.1162109.1655273.2236328.3217773.3310547.4873047.078125.0683594.15625.1367188.234375.1953125.1464844.1850586.2822266.3408203.5166016.4287109.1660156-.2338867.2626953-.9848633.2626953-1.2773438,0-.0585938-.0097656-.1069336-.0097656-.1557617l.0292969-.0585938-.0097656-.15625c.0390625-.0483398.0488281-.0874023.0390625-.1459961.0390625.0097656.0878906.0292969.0976562.0683594.0585938.175293.1367188.3413086.1953125.5166016.0585938.1464844.078125.2924805.0976562.4487305.0390625.1459961.078125.2924805.1171875.4384766.0292969.2631836.0585938.3706055.1357422.6240234.0195312.0488281.0488281.0976562.078125.1464844v.0585938c.0976562.1069336.3710938.5263672.3710938.652832,0,.0585938-.1171875.2539062-.1660156.2832031-.1367188.0776367-.2734375.1557617-.4384766.1557617-.234375,0-.546875-.0292969-.7509766-.1367188-.1757812-.019043-.5166016-.2045898-.6630859-.3115234-.1074219-.078125-.2050781-.15625-.3125-.234375-.1357422-.1459961-.2626953-.2924805-.4091797-.4189453-.1171875-.1757812-.2822266-.331543-.3798828-.5170898l-.3417969-.6435547c-.15625-.1948242-.2236328-.4580078-.3212891-.6821289-.0390625-.078125-.0683594-.15625-.0878906-.234375l-.2539062-.9165039c0-.0097656-.0195312-.0097656-.0292969-.0097656-.078125,0-.3017578.1269531-.3505859.1660156-.0683594.0581055-.1269531.097168-.2148438.1069336-.3017578-.175293-.2919922-.0488281-.6630859-.3701172l-.6728516-.5073242-.1064453-.0976562.0185547-.019043ZM6.8447266,7.9863281l-.0097656-.0292969.0292969-.0390625c.0683594.0097656.1171875,0,.1757812-.0195312.0976562-.0292969.4287109-.0585938.5458984-.0585938.0488281,0,.0976562.0195312.1464844.0390625.3896484.078125.2626953.078125.75.3413086.078125.0390625.2636719.4873047.2636719.7509766,0,.1850586-.2246094.3408203-.3994141.3408203-.1171875,0-.2539062-.0581055-.3515625-.1264648-.2431641-.1171875-.3994141-.3510742-.5556641-.5654297-.0976562-.1464844-.3798828-.4291992-.5361328-.487793-.0292969-.0097656-.1074219-.0390625-.0976562-.078125v-.0288086l.0390625-.0390625Z"/>
        <path class="cls-1" d="M14.0595703,15.9521484c-.3613281,0-1.1992188-.3510742-1.1992188-.7797852,0-.0683594-.0390625-.1171875-.078125-.1660156-.0097656-.0195312-.0195312-.0292969-.0195312-.0488281,0-.0292969,0-.0585938.0097656-.0874023.0097656-.0292969.0097656-.0683594.0097656-.0976562l.0488281-.0195312c.0488281,0,.0976562,0,.1464844.0195312.0292969.0097656.0585938.0097656.0869141.0097656.0488281,0,.1074219-.0097656.15625-.0292969.0390625-.0097656.0585938-.0292969.0976562-.0195312.0488281-.0292969.1660156-.0488281.1757812-.1171875l.0878906-.8383789c0-.1655273.0390625-.3413086.0195312-.5166016-.1660156.097168-.3125.2827148-.4492188.4189453-.2724609.2636719-.984375.7021484-1.3359375.8583984-.1064453.0488281-.75.1850586-.8574219.1850586-.2050781,0-.3613281-.0683594-.5263672-.1655273v-.0292969c.1259766-.0097656.2138672-.0878906.3212891-.1269531.0976562-.0292969.1660156-.1074219.2441406-.1655273.0195312-.0195312.0488281-.0292969.0683594-.0390625.0878906-.0488281.1748047-.0976562.2431641-.15625l.7314453-.5849609.6728516-.6630859.6826172-.7700195.4189453-.5366211c-.1367188.0097656-.2626953.0585938-.3994141.0878906-.1660156.0488281-.2832031.15625-.4677734.2436523-.1269531.0683594-.1855469.0976562-.2539062.0976562-.2246094,0-.4189453-.1171875-.6337891-.175293-.4873047-.2729492-.5263672-.2729492-.9453125-.6728516-.0292969-.0195312-.0585938-.0390625-.0878906-.0683594l.0195312-.078125c.0390625,0,.0683594.0097656.1074219.0097656.0673828,0,.1357422-.0195312.2041016-.0390625.078125.0195312.1464844.0292969.2246094.0292969.2050781,0,.5166016-.0683594.7314453-.097168.1455078,0,.2724609,0,.4091797-.0390625.1367188-.0488281.2832031-.0585938.4287109-.0683594l.6533203-.078125.7119141-.0585938c.0195312-.0488281.0195312-.097168.0195312-.1459961v-.253418c-.0195312,0-.6923828.0776367-.7607422.0874023-.0097656,0-.0585938.0097656-.0878906.0195312-.3701172-.0678711-.7109375-.4384766-.9160156-.730957v-.0292969c.0488281,0,.0878906.0097656.1367188.0292969l.0488281-.0195312.1845703.0292969,1.0537109-.1660156h.1064453c.0683594,0,.1367188,0,.2050781-.0292969l-.0097656-.3510742c-.0390625-.0097656-.078125-.0097656-.1171875-.0097656-.1455078,0-.5751953.0683594-.7109375.1074219-.0292969.0097656-.0488281.0097656-.078125.0097656h-.15625c-.0390625,0-.0683594-.0097656-.0976562-.0292969-.0683594,0-.1464844.0097656-.2148438.0097656-.1650391,0-.7695312-.5361328-.8183594-.6923828.1943359.0195312.6435547.0390625.828125.0195312l.7412109-.078125c.1953125.0097656.4677734-.0288086.6630859-.097168l-.0097656-.7802734c0-.0292969,0-.097168-.0292969-.1166992-.0683594-.0488281-.1464844-.078125-.2050781-.1074219-.0478516-.0390625-.0966797-.0878906-.1552734-.1171875-.0683594-.0483398-.1269531-.1362305-.1757812-.1948242-.0488281-.0488281-.0585938-.0878906-.0488281-.15625.1757812.0390625.2441406-.0385742.4775391-.1655273.0292969-.0097656.0683594-.0195312.1074219-.0195312.2148438,0,.4482422.1269531.6142578.2436523.0390625.0292969.078125.0585938.1171875.078125.0292969.0195312.0488281.0292969.0585938.0683594.0683594.0390625.1464844.0683594.2246094.0878906.0380859.0195312.4775391.3408203.4775391.5751953,0,.097168-.0683594.2631836-.0976562.3608398,0,.019043.0097656.0288086.0195312.0385742l.8193359-.0874023.0576172-.0585938c.0878906-.0292969.1953125-.0976562.2929688-.0976562.0683594,0,.1464844.0292969.2148438.0585938.078125.0390625.1650391.0683594.2431641.0878906.1367188.0292969.2441406.0776367.3320312.1850586.0585938.0585938.1171875.1367188.1171875.2241211,0,.0292969-.0195312.0585938-.0292969.0878906-.0488281.0390625-.0878906.0878906-.1171875.1464844-.0488281.0097656-.1074219.0195312-.1660156.0390625-.1953125.0483398-.3408203.0678711-.5458984.0874023-.234375.0390625-.4580078.0488281-.6923828.0488281-.2148438,0-.4091797.078125-.6240234.0683594-.0292969.1269531-.0390625.253418-.0292969.3803711.0390625.0097656.0878906.0195312.1269531.0195312.4677734-.0683594.4189453-.0097656.6630859-.1660156.0390625-.0292969.0878906-.0390625.1367188-.0390625s.0966797.0097656.1357422.0390625c.0976562.0585938.2050781.078125.3027344.1269531.0878906.0776367.2050781.1362305.2636719.2436523.0087891.0292969.0283203.1850586.0283203.2241211,0,.1367188-.3701172.2924805-.4873047.2924805h-.1367188c-.0478516,0-.0869141,0-.1259766.0097656l-.9462891.0488281-.0292969.0097656c-.0195312.1074219-.0488281.3510742-.0390625.4487305.0683594.0097656.1367188.0097656.2050781.0097656.1757812,0,.3603516,0,.5361328-.0195312l1.4335938-.1367188.0390625-.0195312c.0097656-.0683594.0292969-.1069336.0976562-.1264648v-.0878906c.0966797.0097656.4091797.0585938.4482422.0683594.3017578.1264648.3212891.1362305.3603516.1557617.0585938.0292969.1464844.0878906.3515625.2338867.0390625.0292969.078125.078125.1074219.1171875.0195312.0683594.0283203.1171875.0673828.175293.0195312.0390625.0390625.078125.0390625.1171875,0,.0097656-.1357422.2045898-.1552734.2436523-.0390625.0585938-.3515625.1171875-.4199219.1171875-.2138672,0-.4091797-.0683594-.6044922-.1171875-.1845703-.0585938-.7119141-.097168-.9160156-.097168-.0390625,0-.0878906.0097656-.1269531.0195312.0585938.0776367.3408203.2241211.4873047.3217773.0195312.019043.2734375.253418.3417969.3120117.0292969.0483398.0869141.3310547.0869141.3896484,0,.0292969.0097656.0585938.0195312.078125-.0673828.078125-.1064453.1367188-.2138672.1464844-.3710938.0288086-.4101562.0874023-.7314453.253418-.0878906.0195312-.4970703.097168-.5458984.1459961-.0195312.0097656-.0097656.0390625-.0097656.0585938l.7998047.5361328c.0673828.0292969.1259766.0683594.1748047.1171875l.6728516.3217773c.2050781.1269531.5068359.3022461.7314453.3413086l.7216797.3803711c.0878906.1166992.1855469.2338867.3115234.3120117.0390625.0292969.0683594.0581055.0683594.1069336,0,.1074219-.1367188.1464844-.3310547.1757812-.15625.0585938-.4580078.1166992-.6142578.1166992-.1660156,0-.3320312.0195312-.4970703.0195312-.1953125,0-.5849609-.0097656-.7607422-.0678711-.15625-.0488281-.2929688-.0976562-.4199219-.2050781l-.6240234-.4970703-.0576172-.0488281-.6240234-.5263672-.0488281.0195312c-.0292969.0776367-.0683594.1166992-.1367188.175293l-.4775391.6435547-.5947266.6044922c-.2539062.2143555-.1171875.1655273-.2539062.3510742-.0292969.0488281-.1074219.0878906-.15625.1171875-.0292969.019043-.0488281.0385742-.0683594.0581055-.078125.0195312-.1455078.0585938-.2236328.0585938h-.1074219ZM14.7226562,14.2167969l.7216797-.4682617c.0488281-.0292969.0966797-.0585938.1552734-.078125.0585938-.0288086.1269531-.0678711.1269531-.1459961,0-.0097656,0-.0195312-.0097656-.0292969l-.5068359-.6435547-.0292969-.0292969c-.078125-.0488281-.1367188-.175293-.1855469-.253418-.0488281-.0878906-.2822266-.3706055-.3798828-.3706055-.0390625.0390625-.078125.078125-.1269531.1171875-.0585938.0292969-.1757812.1655273-.1757812.2338867,0,.0390625.1464844.1850586.1757812.2143555.0878906.0976562.1074219.1953125.1171875.3217773.0292969.0488281.0488281.0976562.0488281.15625,0,.0390625,0,.078125-.0097656.1166992-.0390625.1464844-.0488281.2734375-.0488281.4194336-.0097656.1074219-.0390625.2241211-.0390625.3413086,0,.0585938.0195312.1171875.0390625.1655273l.1269531-.0678711ZM16.4873047,11.1357422c-.5458984,0-.7119141.0776367-1.0917969.0776367-.1074219,0-.2050781.0292969-.3027344.0585938,0,.0292969,0,.0390625.0097656.078125s.0195312.0878906.0195312.0976562c0,.0385742-.0390625.1166992-.0683594.175293-.0097656.0097656-.0195312.0488281,0,.0585938l.0390625.0585938.7314453.5849609c.0195312.0195312.0292969.0585938.0585938.0585938.078125,0,.1757812-.2050781.2050781-.2636719.1650391-.2338867.3310547-.4873047.5263672-.6918945.0390625-.0292969.078125-.078125.078125-.1269531,0-.0292969-.0097656-.0878906-.0292969-.1557617-.0585938,0-.1171875-.0097656-.1757812-.0097656Z"/>
        <path class="cls-1" d="M20.5820312,14.03125c.0390625-.0097656.0683594-.0195312.0878906-.0292969.1171875.0195312.4775391.0488281.5849609.0488281.1464844,0,.3115234-.0874023.4384766-.1557617l.5556641-.253418c.0195312-.0097656.0390625-.0097656.0488281-.0195312.0683594-.0195312.1074219-.0292969.1269531-.0976562-.1269531-.1948242-.1367188-.1850586-.1953125-.4194336-.0488281-.1362305-.0488281-.1557617-.0488281-.1850586s0-.0585938.0488281-.1953125c.0195312-.0678711.0195312-.1362305.0195312-.2045898l-.0292969-1.3842773-.0292969-.8291016-.0097656-.0683594-.0195312-1.0722656c-.0195312-.1269531-.0097656-.2729492-.1259766-.331543-.1757812-.0878906-.3027344-.2241211-.46875-.331543l-.5751953-.5263672-.0195312-.0488281c.1171875-.0097656.2246094,0,.3417969.0195312.0966797.0097656.2041016.0195312.3017578.0195312.1464844,0,.2929688-.0195312.4287109-.0292969.1269531-.0097656.2636719-.0097656.4003906-.0390625l.7900391-.1660156,1.1992188-.3120117c.0292969-.0097656.0585938-.0288086.0878906-.0483398.0869141-.0585938.1845703-.1171875.3017578-.1171875.0878906,0,.1757812.0390625.2539062.0585938.1064453.0390625.2236328.0488281.3310547.0683594.4873047.097168.6435547.4970703.6435547.5166016,0,.2045898-.0195312.3022461-.1953125.3901367-.1748047.1459961-.3310547.1069336-.5458984.1166992-.1074219,0-.2138672.0488281-.3212891.0683594-.078125.0097656-.1464844.0195312-.2148438.0683594.1464844.078125.4091797.2338867.4384766.4194336.0195312.1459961.0195312.1850586.1757812.1850586h.1464844c.078125,0,.1660156,0,.234375-.0195312l.8378906-.253418c.0195312-.0097656.0390625-.0195312.0585938-.0195312.3613281-.15625.4677734-.1660156.6826172-.5263672.0585938-.0585938.1855469-.1464844.2734375-.1464844.1650391,0,.2626953.0292969.3994141.1074219.2724609.1264648.5361328.2729492.7705078.4580078.0292969.0195312.078125.1953125.078125.2338867,0,.1269531-.078125.2246094-.2539062.3608398-.1269531.0976562-.2148438.2729492-.2636719.4194336l-.4873047,1.4819336-.3505859.9458008c-.0097656.0195312-.0097656.0390625-.0195312.0585938-.0097656.0292969-.0292969.0585938-.0292969.078125,0,.1264648.2236328.331543.4970703.5263672l.5849609.4682617c.1074219.0874023.2246094.175293.3320312.2729492.0673828.0678711.1357422.1166992.2138672.175293l.7802734.6044922c.078125.0488281.3212891.2050781.3212891.2924805,0,.1464844-.3212891.2050781-.4287109.2148438l-.8291016.097168c-.2236328.0195312-.5458984,0-.7597656-.0874023-.1953125-.078125-.3613281-.2636719-.46875-.4487305l-.2822266-.5068359c-.0292969-.0390625-.1074219-.1757812-.2832031-.487793-.0488281-.078125-.1162109-.1264648-.1748047-.1264648s-.1171875.0483398-.2441406.2436523c-.1464844.1948242-.4091797.3999023-.5947266.5751953-.1171875.1074219-.5556641.3120117-.7119141.3120117-.3408203,0-.4091797-.0878906-.4189453.2827148,0,.175293-.0488281.6435547-.15625.7607422-.0585938.0581055-.2441406.1850586-.3212891.1850586-.1660156,0-.3613281-.1850586-.4394531-.3217773-.0976562-.1655273-.1943359-.4873047-.2822266-.6826172-.0097656-.0488281-.0097656-.1069336-.0097656-.1557617,0-.1074219.0292969-.15625.1074219-.234375.0283203-.019043.0185547-.0776367.0185547-.1069336,0-.078125.0195312-.1660156.0292969-.253418.0097656-.0488281.0097656-.0976562.0097656-.15625,0-.0390625-.0097656-.078125-.0195312-.1264648l-.0673828.019043-1.0048828.6533203c-.2431641.15625-.4384766.3706055-.6630859.5561523-.1464844.1166992-.1943359.1362305-.3798828.1362305-.3222656,0-.5654297-.2436523-.8095703-.4189453-.3212891-.331543-.1953125-.234375-.4287109-.5268555v-.0292969ZM23.9746094,9.9262695c.0390625-.0195312.0390625-.0874023.0390625-.1166992v-.253418c0-.0683594.0097656-.1464844.0097656-.2148438.0097656-.0585938.0097656-.1069336.0097656-.1655273,0-.0878906-.1269531-.4780273-.2236328-.4780273-.078125,0-.1660156.0292969-.234375.0390625-.078125.0195312-.5361328.0585938-.5361328.1171875,0,.0195312.0195312.0585938.0976562.1171875.078125.0581055.1269531.1166992.1552734.2045898.0292969.078125.0390625.253418.0390625.331543,0,.0878906,0,.1264648.0097656.2338867,0,.0390625-.0097656.0976562-.0097656.1655273,0,.0976562.0195312.1953125.0878906.1953125.0195312,0,.5068359-.15625.5556641-.1757812ZM23.2734375,12.9394531c0,.0195312-.0097656.0585938-.0097656.097168,0,.0488281.0097656.0878906.0576172.0878906.0585938,0,.1367188-.0292969.1855469-.0585938.078125-.0292969.15625-.0678711.234375-.0874023.1269531-.0390625.2431641-.0683594.2431641-.2246094,0-.1362305,0-.2729492-.0097656-.3994141,0-.0390625-.0195312-.0683594-.0585938-.0683594-.0380859,0-.2822266.0976562-.3408203.1264648-.0292969.0195312-.0488281.0195312-.0585938.0195312-.0585938,0-.1074219-.0195312-.15625-.0195312-.0683594,0-.0585938.0683594-.0585938.1171875,0,.0390625,0,.0585938-.0097656.0976562-.0087891.0292969-.0087891.0390625-.0087891.078125-.0097656.0385742-.0097656.0776367-.0097656.1166992v.1171875ZM23.6240234,10.9501953c-.078125,0-.15625-.0097656-.234375-.0195312-.0292969.0292969-.0390625.0488281-.0390625.0878906,0,.1850586-.0097656.3706055-.0097656.5556641,0,.0292969.0292969.0683594.0585938.0683594.0488281,0,.0976562-.0195312.1367188-.0390625.1171875-.0683594.2246094-.0878906.3613281-.1171875.1064453-.019043.1162109-.1459961.1162109-.2436523v-.2045898c0-.078125-.0097656-.1367188-.0585938-.1757812-.1064453.0488281-.2138672.0878906-.3310547.0878906ZM25.4570312,13.6704102c.0488281-.0581055.0878906-.1166992.1269531-.175293l.3115234-.4584961c.078125-.1166992.3417969-.4384766.3417969-.5654297,0-.1166992-.1367188-.331543-.2050781-.4189453l-.4873047-.6728516c-.0585938-.0878906-.2539062-.3120117-.3613281-.3120117-.0966797,0-.0380859.1069336-.0380859.1655273,0,.0195312-.0097656.0390625-.0195312.0585938s-.0097656.0292969-.0097656.0488281v.7993164c0,.1757812-.0195312.3510742-.0390625.5268555v.1069336c0,.1074219.0097656.2148438.0195312.3217773.0097656.0976562.0195312.1953125.0195312.2924805,0,.078125-.0292969.6240234-.0195312.6337891l.0292969.0195312c.1064453-.0683594.2333984-.2631836.3310547-.3706055ZM25.3984375,10.6088867h.0390625c.2246094,0,.2148438.078125.3896484.1855469l.7119141.6533203.0585938.0678711.0390625.0097656.2929688-.965332c.0097656-.0292969.0195312-.0678711.0195312-.097168.0585938-.2631836.2138672-.6826172.2138672-.9360352,0-.0683594-.0585938-.0976562-.1171875-.0976562-.0869141,0-.1943359.0488281-.2822266.0878906-.1074219.0488281-.2246094.0874023-.3417969.1069336-.1064453.078125-.2333984.1269531-.3505859.1855469h-.1660156c-.1259766,0-.3701172-.1757812-.4580078-.2631836-.1171875-.1074219-.1660156-.1367188-.2148438-.1367188-.0292969,0-.0292969.0390625-.0292969.0585938,0,.0292969-.0097656.0585938-.0097656.0878906-.0673828.175293-.0390625.3701172-.0390625.5556641-.0087891.1264648-.0283203.253418-.0283203.3901367v.1948242c.0869141-.0097656.1845703-.0488281.2724609-.0878906Z"/>
        <path class="cls-1" d="M31.0439453,14.3725586l.3222656-.331543.3017578-.2924805c.0292969-.0292969.0488281-.0683594.078125-.0976562.0878906-.1264648.2050781-.2241211.2539062-.3798828-.0683594-.0585938-.1171875-.1464844-.1660156-.234375-.0195312-.0288086-.078125-.0385742-.1074219-.0483398l.0195312-.0292969c.1464844-.0292969.3125-.0488281.4492188.0292969.0683594.0292969.1162109.0483398.1845703.0678711.0488281.0390625.3125.3217773.4003906.409668.0488281.0390625.0683594.1171875.0683594.1757812,0,.0776367-.0488281.1459961-.1074219.1948242-.1660156.1362305-.3320312.2729492-.4970703.4194336-.0683594.0385742-.1367188.0678711-.1953125.1069336-.0390625.0097656-.078125.0488281-.1074219.0683594-.234375.0195312-.4384766.1367188-.6923828.1367188-.0585938,0-.1269531-.0195312-.1855469-.0390625h-.0292969c-.0185547,0-.0380859,0-.0478516.0097656h-.0390625c-.0195312,0-.0390625-.0097656-.0683594-.0292969l.1650391-.1367188ZM31.6972656,11.9350586c.0195312-.0097656.0292969-.0292969.0488281-.0390625l.6826172-.8676758.1269531-.2045898c-.1660156-.0292969-.3310547,0-.5068359.0195312h-.0390625c-.0390625,0-.0683594-.0097656-.1074219-.0195312-.0488281-.0097656-.0976562-.0097656-.1367188-.0097656-.1552734.0292969-.2333984-.0195312-.2724609-.15625-.0097656-.0195312-.0195312-.0292969-.0195312-.0390625-.0097656-.0097656-.0195312-.0292969-.0195312-.0390625v-.0195312c0-.0195312-.0097656-.0385742-.0195312-.0581055-.1464844-.15625-.3027344-.3510742-.3027344-.409668v-.0195312c.0195312-.0585938.0097656-.1074219.0585938-.1464844,0-.0097656.0097656-.0288086.0097656-.0385742l.0878906.0097656c.0292969,0,.0683594.0092773.1074219.0092773.0878906,0,.1757812-.019043.2626953-.0483398l.3808594-.7412109.3896484-.9262695c.1269531-.2631836.1660156-.3413086.1660156-.4677734,0-.1464844-.234375-.3999023-.3212891-.5170898h.1455078c.078125,0,.1464844,0,.2050781.0390625.078125.0390625.1367188.1074219.1953125.15625.1455078.097168.3017578.1850586.4189453.3120117.0683594.0483398.1660156.1069336.2050781.1850586.0292969.0585938.1357422.3706055.1357422.4291992,0,.0874023-.3212891.4775391-.3994141.5458984-.0976562.253418-.1855469.4091797-.3310547.6337891-.0488281.078125-.0878906.1459961-.15625.2045898-.0097656.0390625-.0292969.0878906-.0585938.1269531-.0292969.0488281-.0585938.0776367-.0683594.1459961.1757812.0390625.3701172.0488281.5458984.0683594l.5068359-.887207.3808594-.7216797c.0097656-.0292969.0390625-.0683594.0390625-.097168,0-.0195312-.0292969-.0390625-.0390625-.0488281-.0292969-.0488281-.0488281-.1074219-.078125-.15625-.0097656-.0292969-.0390625-.0683594-.0488281-.078125l.0195312-.0097656c.0390625,0,.078125.0097656.1171875.0097656.1357422,0,.3310547.0292969.4287109.1367188.0878906.078125.1757812.1464844.2636719.2143555.1357422.0878906.1552734.2436523.1845703.3901367.1269531.0097656.2441406,0,.3710938-.0195312l.9257812-.1655273c.1464844-.0097656.2832031-.0390625.4199219-.0585938l.0195312-.0488281c-.0683594-.0878906-.1269531-.175293-.1464844-.2827148l-.1660156-.887207c-.0292969-.1367188-.3603516-.4487305-.4775391-.5073242l-.0097656-.0292969c.1074219-.0385742.2041016-.0678711.3212891-.0678711.0488281,0,.0976562,0,.1464844.0097656.0878906.0097656.2050781,0,.2929688.0292969l.8085938.3603516c.1660156.0683594.4296875.3022461.4296875.487793,0,.0976562-.1757812.4970703-.2246094.5849609-.0390625.0683594-.0585938.1269531-.0878906.1948242l.0292969.0195312c.1953125-.0195312.3701172-.0683594.5654297-.1166992.078125-.0195312.1269531-.0683594.15625-.1464844.0585938-.0195312.1074219-.0292969.15625-.0292969.1259766,0,.3310547.078125.5849609.2148438.1074219.0483398.1943359.1166992.2822266.1850586.0390625.078125.0390625.1459961.0195312.2338867-.0878906.0878906-.1660156.1660156-.2822266.2050781-.234375.0483398-.4589844.0874023-.6923828.1166992v.0292969c.1367188.0683594.2333984.175293.3408203.2827148.0097656.0976562-.0585938.1953125-.0878906.2924805-.1259766.0976562-.2333984.2338867-.3505859.3413086l.0097656.0195312h.4189453c.1074219,0,.15625-.0292969.234375-.1074219.0292969-.0292969.0683594-.0483398.1074219-.0678711.3017578.0195312.6240234.1850586.9648438.4482422.0683594.0488281.15625.1171875.1953125.2045898.0195312.0683594.078125.2148438.078125.2734375,0,.0292969,0,.0483398-.0195312.0678711-.0488281.078125-.0585938.1660156-.1367188.2148438-.0683594.0097656-.1171875.0390625-.1757812.0678711-.1171875.0585938-.2626953.0585938-.3798828.078125-.1171875.0097656-.2148438.0878906-.3125.1464844-.1845703.0390625-.1748047.0195312-.3408203.1264648-.0488281-.0097656-.078125-.0097656-.1171875,0l.1171875.1367188c.0585938.0390625.0976562.078125.1464844.1269531.1259766.0581055.1357422.0678711.1845703.2045898.0097656.0292969.0292969.0585938.0390625.0683594-.0097656.0390625-.0097656.0776367-.0195312.1166992,0,.0683594-.0097656.1074219-.0390625.1660156-.0097656.0195312-.0097656.0390625-.0097656.0585938,0,.0483398,0,.097168.0097656.1362305.0097656.078125.0097656.1464844.0097656.2241211l-.0195312.5756836c0,.0097656,0,.0288086.0097656.0385742,0,.0488281.0097656.0976562.0097656.1464844,0,.0390625-.0097656.0878906-.0195312.1269531-.0390625.2436523.0195312.4384766-.1162109.652832-.0683594.15625-.1171875.2929688-.2832031.3608398-.0683594.0976562-.1367188.2050781-.2724609.2050781-.2148438,0-.3613281-.3413086-.4980469-.6923828l-.0683594-.0683594c-.0869141-.2338867-.1650391-.1948242-.3798828-.2631836-.0683594.1557617-.0390625.3510742-.0390625.5166016v.253418c0,.2246094-.1074219.7705078-.1953125.9750977-.0869141.2148438-.1552734.2924805-.3408203.409668-.0292969.0195312-.0390625.0585938-.0488281.0878906-.0976562-.0097656-.2539062-.2148438-.2539062-.3120117v-.1171875c0-.0390625,0-.0488281-.0478516-.253418-.0390625-.1660156-.0585938-.3608398-.0585938-.5361328v-.1074219c0-.1367188-.0585938-.1367188-.0195312-.2924805.0097656-.0488281-.0097656-.1074219-.0292969-.15625l.0195312-.4189453.0292969-1.0043945c.0097656-.1464844-.0097656-.2924805-.0097656-.4389648,0-.0385742.0097656-.0776367.0097656-.1166992,0-.0195312.0097656-.0390625.0097656-.0585938,0-.0292969-.0195312-.078125-.0585938-.078125-.078125,0-.2148438.0585938-.2929688.078125-.0292969,0-.15625-.0097656-.1757812.0097656-.0097656.0195312-.0195312.0292969-.0195312.0488281,0,.0097656.0976562.1948242.1074219.253418.0292969.0976562.0097656.1557617.0097656.253418v.1074219c0,.1069336,0,.2143555-.0097656.3217773l-.0097656.3120117-.0195312.4482422c-.0097656.3022461-.0683594.2246094-.1650391.4682617-.1269531.1655273-.1660156.1948242-.2832031.1948242-.1269531,0-.1953125-.0874023-.3505859-.3217773-.1660156-.2143555-.1855469-.2631836-.2441406-.5263672l.0683594-.0195312.0097656-.0488281.0683594-.0488281.0292969-.3994141.0292969-.4584961c0-.0585938-.0097656-.1171875-.0097656-.1655273-.0195312-.331543.0390625-.4682617-.2050781-.7216797-.0683594.0292969-.1464844.0488281-.2246094.0488281-.0869141,0-.1650391-.0292969-.2431641-.0683594l-.0195312.0195312c.0195312.0683594.0292969.1269531.0292969.1948242,0,.2148438-.078125.4487305-.3320312.4487305-.0976562,0-.1748047-.0488281-.2431641-.1171875-.0390625-.0390625-.0585938-.0878906-.0878906-.1362305-.0585938-.0585938-.1269531-.1269531-.1855469-.1953125-.0195312-.0195312-.0390625-.0390625-.0488281-.0678711-.0683594.019043-.1171875.0483398-.1660156.0874023.0488281.0878906.1464844.15625.2246094.2241211.0390625.0292969.0683594.0878906.0683594.1464844s-.0195312.1171875-.0292969.175293c-.0097656.0390625,0,.078125.0097656.1074219.15625.078125.3408203.1171875.5068359.1660156.0976562.0483398.4580078.1948242.5166016.2436523.1464844.1069336.1953125.3217773.1953125.4873047,0,.0878906-.0390625.1464844-.0878906.2148438-.0585938.097168-.0976562.2045898-.2333984.2241211-.1757812.0195312-.2050781.0097656-.3515625-.0878906s-.4287109-.4291992-.4677734-.5947266c-.0097656-.0488281-.0195312-.0976562-.0683594-.1074219l-.0097656.7705078c0,.2436523.0097656.4775391.0097656.7216797,0,.1166992-.078125.5751953-.1367188.6625977-.0390625.0585938-.0976562.1367188-.1748047.1367188-.078125,0-.1660156-.0292969-.2441406-.0390625-.0488281,0-.1367188-.0878906-.1660156-.1362305-.1269531-.2246094-.1953125-.3413086-.2050781-.3510742-.0185547-.0292969-.0771484-.1269531-.0869141-.1464844-.0292969-.0585938-.0585938-.1459961-.0585938-.2045898,0-.1074219.0878906-.3022461.1171875-.409668.0097656-.0292969.0380859-.4970703.0380859-.5556641l.0195312-.8286133c0-.0195312-.0097656-.0390625-.0097656-.0585938-.0097656-.0390625-.0195312-.078125-.0195312-.1171875v-.0292969c0-.097168,0-.1948242-.0087891-.2924805-.0390625,0-.0683594.0195312-.0976562.0390625-.0195312.0195312-.0488281.0097656-.0683594.0097656-.1953125.15625-.3027344.0878906-.4580078.253418-.0488281.0488281-.1171875.0683594-.1757812.0683594-.0878906,0-.1953125-.0488281-.2929688-.0683594-.0390625-.0195312-.078125-.0488281-.1074219-.0683594-.0771484-.0483398-.1357422-.1362305-.1943359-.1948242-.0683594-.0683594-.1367188-.1171875-.2148438-.1655273l-.078125-.0585938c-.1367188-.0976562-.1845703-.1464844-.1845703-.1953125,0-.0288086.0380859-.0678711.0673828-.0874023.0292969.0097656.0585938.0097656.0976562.0097656.1464844,0,.2832031,0,.4101562-.0488281.0390625-.0292969.0673828-.0390625.1064453-.0585938ZM33.4238281,11.5253906c-.0390625-.1557617-.1074219-.2924805-.1855469-.4287109l-.0878906.0581055c-.0292969.0488281-.0488281.1074219-.0878906.1660156-.1269531.1269531-.2333984.2631836-.3603516.3999023-.0097656.0195312-.0195312.0390625-.0195312.0581055.15625-.019043.6142578-.175293.7412109-.253418ZM33.5214844,10.8432617c.3798828.0483398.4970703.2241211.7207031.4873047l.0292969.0097656c.078125-.0878906.1367188-.1855469.1660156-.3022461.0585938-.1948242.1464844-.409668.1464844-.6142578,0-.0878906-.0488281-.15625-.0976562-.2241211.1855469.0097656.3701172.0385742.5166016.1459961.0683594.0488281.0878906.0585938.1074219.0585938.2919922,0,.3701172.0195312.6630859-.0585938.0585938-.0097656.1269531,0,.1660156-.0488281-.0292969-.0390625-.0585938-.0776367-.0976562-.1166992-.1757812-.1953125-.1464844-.2636719-.1953125-.6435547-.0195312-.1367188-.078125-.2539062-.2148438-.2924805-.1748047-.0390625-.3310547-.1171875-.5068359-.1367188-.0878906.0976562-.1464844.2143555-.2138672.331543-.0878906.078125-.1464844.15625-.2148438.253418-.15625.1464844-.2734375.3217773-.4384766.4682617-.1367188.1264648-.4785156.4970703-.5654297.6533203l.0292969.0292969ZM35.1982422,11.8569336c.0195312,0,1.1894531-.2338867,1.2773438-.253418.0390625-.0097656.0683594-.0488281.0683594-.1850586,0-.0488281-.0097656-.1074219-.0097656-.1660156v-.1069336c0-.0683594,0-.1367188-.0195312-.2050781-.0585938,0-.1074219.0097656-.1660156.0292969-.1660156.0097656-.2441406.0390625-.3896484.0976562-.0195312.0097656-.0390625.0097656-.0585938.0097656-.15625,0-.2929688-.078125-.4394531-.1367188-.0195312-.0097656-.0488281-.0097656-.0771484-.0097656-.0097656.1367188,0,.2924805-.0683594.4194336-.0292969.0488281-.0390625.0878906-.0390625.1459961l-.0390625.0292969c0,.0585938-.0097656.0878906-.078125.2148438-.0097656.0292969-.0292969.0678711-.0390625.097168.0292969.0097656.0683594.0195312.078125.0195312ZM36.7578125,10.1801758l.4296875-.0488281.1162109-.0195312c.0292969-.0488281.0683594-.1074219.078125-.15625-.0097656-.1948242.0585938-.3701172.1074219-.5556641.0195312-.0585938.0488281-.1362305.0488281-.1948242,0-.0097656-.0097656-.0292969-.0195312-.0390625-.1074219,0-.1953125.0097656-.2919922.0292969-.2539062.0488281-.5078125.1069336-.7607422.1362305-.0292969,0-.078125.0097656-.078125.0390625,0,.0195312.0585938.0390625.078125.0488281.1748047.0878906.1748047.5947266.1845703.7705078l.1074219-.0097656ZM37.5283203,10.9599609c.0292969.0878906.1171875.2241211.1171875.3120117,0,.0195312-.0097656.0390625-.0097656.0585938-.0097656.0292969-.0097656.0683594-.0097656.0976562.2050781.0195312.4970703-.0488281.6728516-.1660156.0585938-.0390625.3212891-.5458984.3994141-.6533203l-.0097656-.0292969c-.0390625-.0097656-.0585938-.0097656-.0683594-.0097656-.0292969,0-.0390625,0-.1162109.0097656-.078125.0097656-.0878906.0097656-.1074219.0097656-.0488281,0-.1074219-.0097656-.15625-.0097656-.2832031,0-.5849609.1074219-.8583984.1660156l-.0195312.0292969c.0488281.0488281.1367188.1166992.1660156.1850586ZM37.5576172,13.7094727h.1269531c.1269531,0,.2138672,0,.3603516-.0488281.0097656-.0678711.0195312-.1362305.0195312-.2045898,0-.2045898-.0097656-.5166016-.0390625-.7119141l-.0195312-.7504883c-.0097656-.0390625-.0683594-.0390625-.0878906-.0390625-.0673828,0-.2724609.0292969-.3115234.0683594-.0292969.0292969-.0195312.0874023-.0195312.1264648,0,.1367188-.0097656.2631836-.0097656.3999023,0,.0585938-.0097656.1171875-.0195312.1660156-.0097656.019043-.0097656.0288086-.0097656.0483398v.9067383l.0097656.0390625Z"/>
        <path class="cls-1" d="M41.1552734,13.5634766l.4873047-.7119141.1074219-.1459961.4580078-.7412109.0292969-.0488281.4189453-.7021484c.0878906-.1069336.1367188-.2143555.1953125-.331543l.3798828-.7602539c.0488281-.078125.2441406-.4194336.2441406-.487793,0-.0581055-.0292969-.1069336-.0683594-.1557617l-.0097656-.078125c-.0390625-.0488281-.0488281-.078125-.0292969-.1362305-.0683594.019043-.1464844.0288086-.2148438.0483398-.2529297.1074219-.3701172.1464844-.6435547.2148438-.0869141.0390625-.1650391.0683594-.2431641.1069336-.1757812.0097656-.6435547.0976562-.7705078.1855469l-.0488281-.0488281.6044922-.4970703c.1757812-.1367188.3027344-.3120117.4394531-.487793.1357422-.1655273.2822266-.2924805.4482422-.4291992.0683594-.0581055.1269531-.1459961.1855469-.2143555.1455078-.1362305.2529297-.3217773.3408203-.5068359.0097656-.0195312.0292969-.0488281.0390625-.0683594l-.0878906-.2436523c-.0488281-.0390625-.1269531-.078125-.1074219-.1464844.0488281.0097656.0878906.0097656.1269531-.0292969.0976562.0390625.1855469.0683594.2734375.1171875.1357422.0097656.2626953,0,.3896484,0,.0585938,0,.1171875.0292969.1660156.0390625.1748047.2241211.3115234.3413086.5166016.5263672.0292969.0292969.0488281.0683594.0585938.1074219.0292969.0878906.0683594.1655273.1269531.2436523v.0390625c0,.0195312,0,.0390625-.0097656.0585938-.0976562.2338867.0478516.2436523-.46875.3413086-.0488281.0097656-.1064453.0581055-.1455078.0776367l-.6337891.3901367-.1269531.0878906.0097656.0292969c.0488281,0,.0878906.0097656.1367188.0292969.1650391.0097656.2041016.0097656.3603516.0874023.0976562.0292969.1855469.1171875.2636719.1855469.0380859.0195312.1259766.0390625.1552734.0683594.1367188.1459961.2148438.2143555.2539062.4091797.0195312.0585938.0390625.1269531.0390625.1953125,0,.0581055-.0195312.1069336-.1367188.2631836-.0195312.0292969-.0878906.078125-.2822266.1655273l-.4785156.6533203c-.0195312.0195312-.0292969.0390625-.0292969.0488281,0,.0488281.0585938.1269531.1464844.2045898.0976562.0878906.3222656.3706055.3222656.4975586,0,.0488281-.0195312.097168-.0292969.1459961.0292969.15625.0097656.3120117.0390625.4682617l-.0195312.9067383c-.0390625.3217773-.0292969.6435547-.1074219.9555664-.0097656.0488281-.0195312.0878906-.0195312.1264648,0,.0585938.0097656.1171875.0097656.1660156-.0976562.1655273,0,.2241211-.1367188.3999023-.0683594.1362305-.1660156.2436523-.234375.3701172-.1162109,0-.2236328,0-.3310547-.0581055-.4091797-.2441406-.4189453-.7607422-.4482422-1.1801758-.0097656-.0678711-.0292969-.1264648-.0585938-.1948242l.0097656-.0390625c.0390625.0097656.078125,0,.1074219-.0292969l.0097656-.0488281c.0771484-.0097656.0576172-.1655273.1357422-.5361328.0195312-.2827148.0488281-.5458984.1074219-.8188477.0097656-.1757812.0292969-.3413086.0585938-.4975586,0-.0488281-.0097656-.097168-.0097656-.1362305-.0683594.0683594-.1171875.1459961-.1660156.2338867-.1455078.1367188-.2626953.2924805-.3896484.4487305-.1074219.1264648-.4775391.4287109-.6240234.5458984-.0488281.0488281-.2832031.1850586-.3798828.2631836-.3417969.0878906-.2539062.1269531-.546875.1557617-.0585938.0195312-.1259766.0390625-.1845703.0390625-.0292969,0-.0488281-.0195312-.0585938-.0390625l.078125-.097168ZM44.34375,14.8212891l.1162109-.0585938.7412109-.4780273c.3417969-.175293.5654297-.3310547.8583984-.5849609.1464844-.1264648.2822266-.2631836.3896484-.4189453-.0292969-.1367188-.1269531-.2539062-.2041016-.3706055l-.0878906-.0878906c-.1269531-.1166992-.1757812-.175293-.3417969-.2436523-.1074219-.0390625-.1845703-.1948242-.2333984-.2924805-.078125-.0390625-.0878906-.1269531-.1171875-.1948242-.0097656-.0390625-.0390625-.078125-.0585938-.1171875l.0097656-.0195312c.0976562-.0195312.1855469-.0488281.2919922-.0488281-.0585938-.0683594-.1259766-.0878906-.2041016-.1269531-.0585938-.0581055-.1171875-.1166992-.1855469-.1655273-.1367188-.0878906-.2441406-.2045898-.3603516-.3022461l.0097656-.0292969c.2626953-.0292969.3115234-.0488281.5947266-.0683594l1.0039062-.3120117c.1171875-.0488281.5166016-.2045898.6337891-.2143555l.0390625-.0292969c-.0097656-.0390625-.0097656-.0976562.0390625-.1171875.0488281-.019043.2148438-.0776367.2626953-.0776367.0097656,0,.0292969.0097656.0390625.0097656.0683594.0097656.1367188.0097656.2050781.0097656.0585938.0390625.0976562.0776367.1367188.1362305.0292969.0390625.3408203.1660156.4091797.2050781.1855469.0776367.3515625.1948242.4775391.3603516.0585938.0878906.1171875.3022461.1171875.409668,0,.2338867-.2431641.2827148-.4580078.3803711-.0976562.0683594-.2050781.3608398-.2539062.4677734-.1064453.2924805-.2529297.5463867-.2724609.6044922-.0292969.0683594-.0488281.1367188-.078125.1953125l.234375.1362305.7011719.3999023c.2441406.1269531.4882812.2631836.7412109.3803711.15625.1074219.3222656.1948242.4775391.2924805.3027344.1269531.4101562.253418.6435547.3706055,0,.0776367-.1162109.1850586-.1748047.2436523-.0585938.0390625-.3613281.0878906-.4492188.1074219l-1.2089844.0581055c-.1162109.0097656-.2529297.0390625-.3603516.0195312-.0878906-.0385742-.2050781-.0581055-.2734375-.1069336-.1357422-.0976562-.2529297-.2246094-.3798828-.331543-.2050781-.2241211-.4287109-.4291992-.6533203-.6435547-.0097656-.0097656-.0195312-.0097656-.0292969-.0097656-.0195312,0-.0976562.0390625-.2441406.2143555-.0478516.0488281-.1455078.1171875-.2041016.1464844-.0976562.0488281-.1757812.0874023-.2832031.1459961-.1464844.078125-.2919922.1171875-.4384766.1757812-.1953125.0292969-.4775391.0874023-.6533203.097168-.1074219.0195312-.2148438,0-.3310547-.0097656-.0878906.0195312-.1171875.0195312-.1757812.0195312s-.0976562,0-.1855469-.0097656h-.1269531c-.0585938,0-.1162109,0-.1748047-.0195312l.0292969-.097168ZM44.8017578,10.9111328c.0976562-.0195312.15625-.0585938.2138672-.1362305.1269531-.2050781.2929688-.4194336.3710938-.6435547.0488281-.253418.1171875-.487793.1757812-.7314453.0195312-.0585938.0390625-.1171875.0488281-.175293.0283203-.3901367.0576172-.7705078.0576172-1.1704102,0-.0288086-.0097656-.0483398-.0292969-.0776367-.1748047-.15625-.0673828-.1464844-.3017578-.3022461-.0292969-.0097656-.0390625-.0488281-.0585938-.0683594l-.1074219-.0683594c0-.0195312.0097656-.0390625.0292969-.0585938.0292969-.0097656.2050781-.097168.234375-.097168.1660156,0,.7119141,0,.8378906.0678711.1171875.0488281.2148438.1757812.3222656.2441406.0292969,0,.0390625,0,.0683594-.0097656l.8769531-.2734375c.0292969-.0678711.0488281-.1362305.0585938-.2045898.0585938-.0097656.1269531-.0390625.1855469-.0390625.0683594,0,.1464844.0195312.2148438.0292969.1845703.078125.6337891.2631836.7695312.3510742.1074219.0683594.2050781.1850586.2050781.3120117,0,.0097656-.0097656.0195312-.0097656.0292969-.1171875.1850586-.078125.2045898-.2626953.331543-.0195312.0195312-.0292969.0488281-.0390625.078125h-.0390625c-.0683594.1069336-.078125.3217773-.1171875.4580078,0,.1269531-.0683594.5458984-.078125.5556641,0,.0292969.0097656.0683594.0683594.1757812.0292969.0097656.0390625.0097656.078125.0097656s.078125-.0097656.1269531-.0292969c.1064453-.0195312.2138672-.0488281.3212891-.078125.0488281-.0195312.078125-.2143555.078125-.409668l.0292969-.0581055.0292969-.0097656c.1367188.1459961.2236328.3896484.3212891.5654297.0390625.078125.2539062.1557617.3320312.1948242.0976562.0488281.0878906.1269531.0878906.2246094,0,.0288086.0292969.0581055.0390625.0776367-.0488281.2050781-.15625.1757812-.3222656.3217773-.3603516.1269531-.5556641.1855469-.7900391.2148438-.0869141.0097656-.1845703.019043-.2919922.019043s-.2148438-.0092773-.3125-.0288086c-.0683594-.0097656-.1162109-.0585938-.1650391-.0976562-.2832031-.1269531-.3515625-.2436523-.5654297-.4584961-.1074219-.1069336-.1660156-.3217773-.1660156-.4677734,0-.1660156.0097656-.3413086.0097656-.5068359.0195312-.2929688.0683594-.5952148.0488281-.8876953l-.0390625.0195312c-.0390625.0488281-.078125.0878906-.1367188.1171875-.0488281.0585938-.078125.0683594-.1464844.0683594-.0390625,0-.078125.0097656-.1171875.0195312-.0585938-.0097656-.1064453-.0195312-.1650391-.0195312-.0195312.1655273-.0097656.331543-.0488281.4873047-.0292969.1171875-.0390625.2338867-.0488281.3608398-.0390625.0976562-.078125.2045898-.0878906.3217773-.0195312.0488281-.0390625.1269531-.078125.1557617-.0390625.1464844-.078125.2636719-.1953125.3510742-.0771484.1464844-.2431641.3022461-.3603516.4194336-.0585938.0488281-.1171875.0976562-.1757812.1367188-.1943359.1069336-.3701172.2045898-.5361328.3505859-.0390625.0292969-.0976562.0292969-.1367188.0390625-.1162109.0292969-.2138672.0585938-.3310547.0390625l.0195312-.0390625ZM46.5761719,12.3349609c.0878906.0678711.2441406.2338867.3408203.2436523.1660156-.3022461.3222656-.7119141.3222656-1.043457-.1367188.0097656-.4091797.1171875-.5166016.1855469-.1171875.0292969-.2148438.0776367-.3222656.1362305-.0390625.0683594-.2236328.1367188-.3017578.15625v.0195312c.1464844.1166992.3212891.1850586.4775391.3022461Z"/>
      </g>
      <g>
        <path class="cls-1" d="M62.2519531,8.9316406c.1054688-.1582031.2460938-.5615234.3691406-.6845703.0341797-.0175781.1044922-.0698242.1220703-.1049805l.6669922-1.2109375c.1933594-.3510742.4208984-.5791016.4208984-1.0175781v-.0703125c0-.1582031.0703125-.2280273.1757812-.3334961.3505859.2280273.6142578.9125977.6142578,1.315918,0,.0527344,0,.1054688-.0175781.140625-.0175781.0527344-.0351562.1049805-.0351562.1401367l-.0527344,1.3862305c-.1054688.2983398-.0527344.5966797-.1757812.8774414-.3330078.7021484-.2802734.8950195-.5087891,1.4213867-.2275391.5263672-.5615234,1.1230469-1.0175781,1.5092773-.1923828.175293-.4560547.2456055-.7021484.315918-.1572266.0698242-.2978516.1049805-.4560547.1049805h-.1923828c-.2109375-.1049805-.5263672-.2104492-.6494141-.4033203-.0878906-.1933594-.2285156-.3862305-.2285156-.6142578,0-.1054688.1933594-1.0703125.2285156-1.2807617.0351562-.1757812.1230469-.3686523.2451172-.5268555.140625-.1928711.3339844-.2983398.5966797-.315918.2109375-.1928711.4208984-.4033203.5966797-.6489258ZM64.4277344,12.1777344l.140625-.0351562c.140625.0527344.2988281.140625.4560547.1757812.2285156.0698242.4912109.0351562.7197266.0175781.0878906.0351562.1757812.0522461.2460938.0522461.3857422,0,1.2626953-.1225586,1.5966797-.2631836l.0351562-.034668.0351562-1.7900391-.0351562-2.0883789.0175781-2.1054688-.0175781-.175293.0351562-1.5444336c-.0175781-.3510742,0-.6845703.0175781-1.0351562,0-.1933594-.0175781-.3862305-.0175781-.5791016v-.1757812c0-.1049805-.0878906-.2280273-.3515625-.5615234-.0878906-.1225586-.5087891-.3330078-.6669922-.4208984-.0869141-.0351562-.1748047-.140625-.2626953-.2104492-.0351562-.1230469-.1054688-.2109375-.2109375-.2983398v-.1230469l-.0527344.0351562.0175781-.175293h.0703125c.0175781.0175781.0703125.0522461.1230469.0522461.1933594,0,.4033203-.0874023.5966797-.1225586.0878906-.0175781.140625-.0878906.2109375-.140625.0517578-.0698242.2275391-.0698242.3154297-.0698242.1054688,0,.6669922.2631836,1.0351562.4384766.3164062.1577148.5966797.2456055.8779297.4389648.0869141.0698242.1748047.1225586.2626953.1577148.28125.1225586.5087891.2807617.7724609.4384766.1748047.1054688.3154297.3686523.4208984.5439453.0351562.0351562.0351562.1054688.0527344.140625.0703125.2631836,0,.315918-.1054688.5966797-.0527344.1577148-.1933594.2280273-.3154297.3334961-.0703125.0522461-.1230469.1225586-.1230469.2104492s.0175781.175293.0175781.2807617c0,.2280273-.0527344.4384766-.0878906.6669922-.0175781.3154297,0,.6137695-.0351562.9296875-.0175781.0527344-.0175781.1054688-.0175781.1757812,0,.0175781,0,.0522461.0175781.0698242,0,.0527344.0175781.1054688.0175781.140625l-.0878906,1.3686523c.0351562.2104492.0175781.4033203.0175781.5966797v.2104492c0,.1230469,0,.2631836-.0351562.3862305-.0175781.0351562-.0351562.0698242-.0351562.1049805l.0703125,2.4741211.0175781.3510742v1.4741211c-.0351562.5615234.0175781.5439453.0175781.8598633,0,.175293-.1582031.5966797-.2109375.7895508-.0527344.1054688-.0869141.2280273-.1396484.3510742-.1582031.2280273-.2988281.4560547-.4394531.7016602-.0869141.1582031-.5263672.3510742-.7890625.3510742-.2285156,0-.28125-.0703125-.4208984-.2280273-.140625-.1230469-.1933594-.2631836-.28125-.4213867-.1054688-.1401367-.2109375-.2983398-.3330078-.4384766-.1933594-.4038086-.2285156-.3862305-.5791016-.6669922l-1-1.0175781c-.3339844-.3862305-.7900391-.6669922-1.2109375-.9477539-.1230469-.1049805-.2109375-.1928711-.3691406-.2104492v-.0351562ZM71.9736328,5.3696289h.0351562c.140625.034668.2626953.0522461.4033203.0874023.2109375.0878906.3857422.1757812.6142578.2280273.4033203.0878906.9648438.4741211,1.2636719.7724609l.8769531.824707c.7021484.6665039.7724609.7543945,1.3339844,1.5263672.5263672.9301758.6669922,1.1757812.6669922,1.3686523,0,.8076172-.4746094,1.6669922-1.3515625,1.6669922-.3681641,0-.7900391-.1928711-1-.4912109-.2285156-.2983398-.5263672-.9125977-.6845703-1.2631836-.1582031-.3334961-.2460938-.7197266-.3505859-1.0708008-.0878906-.2456055-.1933594-.4736328-.2988281-.7192383l-.4560547-1.3334961c-.2285156-.5966797-.6845703-1.0351562-1.0527344-1.5444336v-.0522461Z"/>
        <path class="cls-1" d="M79.2412109,5.9135742c.2275391,0,.4384766,0,.6494141.034668.1220703-.034668.2451172-.0874023.3505859-.1225586.2978516-.0703125.5966797-.1582031.8945312-.2104492l1.3164062-.456543c.0351562-.2104492.0703125-.4384766.0703125-.6665039,0-.2456055-.0351562-.4741211-.0351562-.7197266l.0351562-1.1933594c0-.0698242-.0175781-.1401367-.0175781-.2104492-.0351562-.1225586-.0527344-.2631836-.0703125-.4033203-.0175781-.1230469-.0351562-.2285156-.1054688-.3334961-.1923828-.2456055-.4736328-.456543-.71875-.6669922-.0703125-.0703125-.0527344-.175293-.0527344-.2631836.0869141-.0175781.1748047,0,.2626953.0175781,0,.0175781.0175781.0175781.0351562.0175781.0527344,0,.140625-.0351562.3857422-.140625.0527344-.0170898.1582031-.034668.2285156-.034668.4384766,0,.8076172.175293,1.140625.4033203.3505859.1582031.4736328.2456055.7724609.4389648.0693359.1049805.1396484.1928711.2099609.2807617.0527344.1049805.1054688.175293.1933594.2631836.0351562.0698242.0351562.1225586.0351562.2104492l.0878906.175293c-.0527344.1933594-.1933594.3334961-.3164062.4916992-.1054688.1049805-.1054688.7895508-.1230469.9648438-.0175781.1054688-.0517578.175293-.0869141.2631836,0,.2104492,0,.4389648.0527344.6494141.2451172.1577148.4736328.3510742.7011719.5439453.140625.0703125.1933594.1230469.2636719.2456055.0351562.0527344.0703125.1054688.1054688.1577148,0,.1582031-.0878906.28125-.1230469.4389648-.0175781.0703125-.1054688.1225586-.1582031.1577148-.2802734.1757812-.6142578.2460938-.9472656.2631836-.140625,0-.1582031.140625-.1582031.4389648l-.1230469.0878906.0878906.0874023c.1757812.0527344.5439453.2280273.7373047.3334961h.0351562c.0878906,0,.1230469-.1054688.1572266-.1928711h.0703125l.7724609-1.2285156c.1582031-.2280273.3154297-.4736328.4208984-.7368164-.1582031-.0527344-.3154297-.0527344-.4912109-.0527344-.0703125-.0175781-.3154297-.1582031-.4736328-.4213867-.0703125-.1225586-.4384766-.3154297-.5791016-.4208984-.0175781-.0175781-.0351562-.0527344-.0351562-.0703125,0-.0527344.0175781-.1049805.0351562-.1577148.2285156,0,.4208984-.1230469.6494141-.1230469l1.5791016-.1928711c.1757812-.0175781.3505859-.5615234.3681641-.7197266-.1044922-.0170898-.2099609-.034668-.3154297-.034668-.6845703.0698242-.6142578-.0175781-1.3515625-.1757812-.2099609-.0527344-.5263672-.2631836-.6835938-.4033203l.2626953-.1230469c.140625.0175781.2636719-.0175781.4033203-.0351562.3867188-.0527344.1933594-.0703125.9306641-.1577148l1.2626953-.315918c.4746094-.1230469.9130859-.315918,1.3691406-.4560547.2978516-.1757812.6318359-.2460938.7548828-.315918l.3330078-.2109375v-.0522461c-.0703125-.0878906-.140625-.1582031-.1933594-.2460938-.1396484-.1401367-.2626953-.2456055-.3154297-.4384766.1054688.0175781.1933594.0527344.2978516.0878906.28125.0351562.8955078.0527344,1.1230469.1401367.1230469.0527344.2285156.1054688.3164062.1757812.2626953.2807617.3154297.3330078.7021484.4384766.1748047.0527344.5615234.2456055.6660156.4038086.0703125.1049805.0703125.2807617.0703125.4033203,0,.0527344,0,.1582031-.0351562.2104492-.2099609.1757812-.7890625.2631836-1.0527344.315918l-1.0703125.2983398c-.1582031.0351562-.3330078.0351562-.4912109.0527344-.1933594,0-.3857422.0351562-.5791016.1054688.0175781.1928711-.0175781.3857422-.1757812.5087891-.1748047.1225586-.2275391.175293-.2275391.2807617.1230469-.0527344.6845703-.1582031.8066406-.1582031.3164062-.0522461,1.0185547-.1225586,1.3691406-.1577148.0703125-.0175781.140625-.0527344.1933594-.0878906.0869141-.0527344.1748047-.1049805.2802734-.1225586.0527344-.0351562.0878906-.0527344.1054688-.1230469.1054688-.0175781.2109375-.0351562.2978516-.0351562.1230469,0,.2460938.0351562.3691406.0703125.1923828.140625.4208984.2104492.6494141.2983398.2978516.1225586.4384766.4560547.4384766.5791016,0,.5087891-.6318359.7543945-1.0527344.7543945h-.1757812c-.3505859,0-.6142578-.0175781-.8945312-.1577148-.0527344.0175781-.1054688.0175781-.140625.0698242.1054688.2285156.6669922.7197266.8769531.9301758.28125.2807617.6318359.5263672.9306641.7719727l.9121094.6142578c.2109375.140625.4033203.2807617.6318359.4038086.1923828.1049805,1.1582031.7016602,1.1582031.8950195,0,.0874023-.2988281.2280273-.3691406.2456055l-1.4384766.2280273c-.8945312-.0351562-.9648438-.1582031-1.2636719-.1582031-.4384766,0-1.140625-1.0878906-1.3505859-1.4384766l-.0703125.0874023c-.1757812.1054688-.2285156.3510742-.3164062.5439453-.0351562.0527344-.0527344.1054688-.0527344.2109375,0,.0522461,0,.0874023.0175781.2104492-.1396484.0703125-.3330078.1577148-.4384766.1577148s-.2099609-.0351562-.3154297-.0522461l-.1230469.0522461-1.5439453.1054688-.4912109.0703125c-.140625.2807617-.3867188.5087891-.7373047.5087891-.5263672,0-.9296875-.8071289-1-1.2636719-.0175781-.1401367,0-.4560547-.1757812-.3857422-.1230469.1401367-.2988281.2280273-.4384766.315918-.0527344.0351562-.0703125.0874023-.1054688.1401367-.1054688.0351562-.1933594.1054688-.28125.175293-.0341797.0175781-.0869141.0351562-.1396484.0527344v.0703125l.0878906.0703125c.0517578.1928711.1044922.3857422.1044922.5791016,0,.3334961-.1044922.6489258-.4208984.7543945h.3505859l1.5625-.2807617,2.28125-.2807617.2099609-.0351562,1.4042969-.1049805c.1572266,0,.2978516-.0175781.4560547-.0175781.140625,0,.2802734.0175781.4208984.0175781.1230469,0,.28125-.0175781.2636719-.1757812.0703125-.0351562.1396484-.0703125.2275391-.0703125.1757812,0,.3515625.0527344.4912109.140625.2988281.175293.5791016.3510742.8955078.4912109.0527344.0703125.1230469.1230469.1757812.1933594.1396484.1049805.2099609.2280273.2978516.3857422.0703125.0878906.1582031.1928711.2109375.2807617.0175781.0527344.0351562.1054688.0351562.1582031,0,.1928711-.1757812.3330078-.3867188.4912109,0,.0527344-.0175781.1049805-.0175781.1577148v.1933594c0,.1049805,0,.2280273-.0351562.2978516-.0175781.0527344-.0527344.1054688-.0527344.1582031l-.0175781,1.6845703c-.0175781.2631836-.1220703.5087891-.1396484.7719727-.0175781.2983398-.140625.5966797-.1933594.8950195-.0527344.315918-.2285156.5966797-.4560547.8422852-.1933594.2280273-.4560547.5791016-.7724609.6142578l-.0703125-.0351562c-.1220703.1054688-.1572266.1225586-.2099609.1225586s-.2109375-.0170898-.3339844-.034668c-.3505859-.5966797-.3154297-.456543-.7363281-.9301758-.6669922-.4213867-.3515625-.2807617-1.2460938-.7895508-.1054688-.0878906-.2285156-.1582031-.3515625-.2456055v-.0527344l.2636719-.0878906,1.4736328-.0878906.2285156-.0698242c.1054688-.1757812.1933594-.3334961.2285156-.5263672.0175781-.0703125.1572266-.4741211.1923828-.5444336l.0527344-2.7900391-.0175781-.3154297c-.4033203-.0878906-1.7900391-.0527344-2.1933594.034668-.140625.0175781-.2626953.0175781-.4033203.0351562-.0527344,0-.0878906.0175781-.140625.0175781l-2.1054688.4213867-.4560547.0351562c-.0703125.175293.0527344.3154297.1572266.4560547.0527344-.0527344.1054688-.1054688.1757812-.1054688s.140625,0,.1933594.0175781c.2099609.0527344.4208984.0351562.6318359,0l1.71875-.2631836c.0703125-.0351562.140625-.0698242.2285156-.1049805.0351562-.0527344.0703125-.140625.140625-.1757812.0527344-.0351562.1230469-.0527344.1757812-.0527344.1572266,0,.2802734.0351562.6484375.140625.2109375.0703125.4042969.2104492.5966797.315918.3339844.175293.5087891.3334961.4042969.7192383-.0878906.0878906-.1757812.1757812-.2109375.2983398-.0175781.0878906-.2636719,1.0703125-.3330078,1.2460938v.0874023c.0175781.0527344.0175781.1230469.0175781.1933594,0,.1401367-.0527344.175293-.3164062.315918-.0175781.0175781-.0527344.034668-.0703125.034668l-1.7724609.2285156c-.1220703.0175781-.1748047.1049805-.2275391.315918-.1757812.1928711-.2988281.2631836-.4384766.2631836-.4042969,0-.5966797-.3334961-.7548828-.6494141-.3857422-.4213867-.1933594-.5263672-.3681641-1.7724609-.0878906-.5087891-.1054688-.5966797-.4921875-.9296875-.0341797.034668-.0517578.0874023-.0517578.1401367s0,.0878906.0175781.1230469c.0166016.1401367.0517578.2807617.0517578.4033203,0,.1582031-.0351562.2983398-.0351562.4389648,0,.0522461.0351562.1401367.0527344.1928711,0,.0527344-.0175781.1225586-.0175781.175293s.0351562.1230469.0351562.1757812c-.0175781.2983398-.0527344.5791016-.0703125.8598633.0527344.3330078.0703125.684082.1230469,1.0175781v.1230469c0,.1225586-.0351562.2280273-.1748047.4384766-.1757812.2807617-.2285156.3862305-.5097656.5966797-.3330078.0878906-.6835938-.0878906-.9121094-.3510742-.140625-.1577148-.5439453-1.2456055-.5439453-1.456543,0-.2104492.1054688-.4033203.2285156-.5791016.0351562-.034668.0175781-.2104492.0175781-.2631836l.0351562-1.5791016c-.0351562-1.0175781.1220703-1.2285156-.2109375-1.456543-.0351562-.0351562-.0703125-.0703125-.1054688-.1049805-.1230469-.0527344-.2275391-.1230469-.3154297-.2285156.0351562-.0698242.0878906-.1049805.1572266-.1401367v-.0527344c-.1044922-.0703125-.2099609-.1577148-.2978516-.2631836-.0878906-.1230469-.1582031-.2280273-.2988281-.2983398-.0341797.1577148-.0693359.3334961-.0693359.5087891,0,.4741211.0175781.6494141-.0351562,1.140625v1.4213867l-.0351562.1054688.0175781,1.3862305c.0527344.3681641.0703125.7368164-.0175781,1.1054688-.0175781.1577148-.1757812,1.0527344-.2109375,1.1230469-.0351562.0874023-.2626953.4033203-.3330078.5263672-.0527344.0703125-.1757812.0878906-.2460938.0878906-.1933594,0-.6669922-.3686523-.7890625-.5268555-.1757812-.2280273-.4394531-.8945312-.4394531-1.175293,0-.0878906.0703125-.1582031.1230469-.2109375.1933594-.2983398.1582031-1.3686523.2109375-1.7719727l.1230469-1.4213867c.0341797-.2104492.0693359-.4038086.0341797-.5966797l-.0869141.0351562c-.0351562.0874023-.0703125.1928711-.0878906.2807617-.0175781.1225586-.5439453.7719727-.6494141.8774414-.2285156.315918-.7373047.824707-1.0878906,1-.2460938.1054688-.4736328.140625-.7373047.175293-.4208984.0351562-.4912109.0175781-.8945312-.0522461l-.0175781-.0527344c.2802734-.2983398.5615234-.5966797.7539062-.9477539l.8427734-1.2807617c.0527344-.0703125.0527344-.1757812.0703125-.2456055.1054688-.1757812.2099609-.3510742.3154297-.5087891l.7548828-1.28125c.1582031-.3686523.3154297-.7192383.5087891-1.0703125,0-.1230469.0351562-.2456055.0351562-.3686523,0-.0703125-.0527344-.1049805-.1230469-.1049805q-.0175781,0-.0351562.0175781c-.1230469.1049805-.1748047.1225586-.3505859.175293-.2109375.0878906-.4384766.175293-.6494141.2631836-.0527344,0-.0878906.0175781-.1230469.0175781-.5263672,0-1.1230469-.6845703-1.4912109-1.0175781-.1054688-.0703125-.5615234-.4213867-.5615234-.5444336v-.0698242c.2275391-.0351562.4208984,0,.6318359.0351562ZM88.0849609,5.5097656c.2460938-.0175781.4736328-.0703125.7197266-.0703125.2802734-.0527344.5791016-.0527344.859375-.1049805.0527344-.1054688.1230469-.140625.2460938-.1582031l.3330078.0703125.0175781-.0527344c-.0878906-.1577148-.3154297-.5791016-.5087891-.5791016-.0527344,0-.1054688.0175781-.140625.0351562-.4208984.0703125-.9121094.0878906-1,.0878906-.0703125.0175781-.140625.0351562-.1933594.0874023-.1044922.0703125-.3505859.5268555-.3857422.6669922l.0527344.0175781ZM89.59375,7.0888672c.0703125-.0522461.1757812-.6137695.1582031-.7016602-.4384766,0-.7373047.0703125-1.140625.175293-.4912109.0351562-.5263672.0527344-.5791016.1054688l.2460938.5966797c.2451172-.0175781,1.140625-.0175781,1.3154297-.1757812ZM89.5410156,12.5639648l.0175781-1.28125c-.0527344-.0175781-.1044922-.034668-.1748047-.034668-.0175781,0-.8603516.2280273-.9130859.2456055-.0175781.1577148.0175781.4736328.0351562.5615234.0175781.1049805.0175781.1225586.0175781.1401367,0,.0527344,0,.0703125-.0351562.2280273-.0175781.0527344-.0175781.0878906-.0175781.140625,0,.0703125.0175781.1401367.0703125.2104492.2988281-.0351562.7724609-.0703125,1-.2104492Z"/>
        <path class="cls-1" d="M104.4775391,5.8432617c.1220703-.0175781.2626953-.0351562.3857422-.0351562.2451172,0,.4912109.0175781.7197266.0175781.4208984,0,.8242188-.0878906,1.2451172-.0878906.1230469-.0175781.1933594-.0878906.2636719-.175293.1933594-.0351562.3505859.0175781.5439453.0703125.2109375.1049805.3857422.2280273.6142578.2983398.1757812.0522461.3505859.1928711.5087891.2978516.0878906.0527344.2802734.2285156.2978516.315918.0351562.1933594.0527344.3862305.0527344.5615234,0,.2807617-.0878906.3510742-.2802734.5092773-.0527344.034668-.0878906.0874023-.1230469.1401367.1230469.5087891,0,.965332-.1054688,1.4741211-.0703125.5791016-.2626953,1.1230469-.2978516,1.7021484l-.4208984,1.3510742c-.5097656,1.3686523-.3164062,1.140625-.4394531,1.824707,0,.2109375-.0527344.3862305-.1572266.5615234.0351562.3334961-.2988281.824707-.7548828.824707-.2109375,0-.4033203-.1928711-.5439453-.3505859-.1582031-.2109375-.2460938-.4916992-.3681641-.7197266-.2285156-.3510742-.4394531-.684082-.6669922-1.0175781-.0351562-.0703125-.0527344-.1582031-.0527344-.2280273,0-.1230469.0703125-.2631836.1230469-.3686523v-.0703125c0-.3334961-.140625-.684082-.3339844-.9296875l.4560547-.0175781c.1054688.1401367.2636719.1577148.4394531.2104492.1220703.0175781.2099609.175293.2802734.2807617h.0703125c.1230469-.1230469.2285156-.2631836.3154297-.4038086.2109375-.3681641.4394531-.7368164.6845703-1.0878906.0527344-.0527344.0703125-.1049805.1054688-.1577148.0703125-.140625.140625-.2631836.2285156-.4038086.0703125-.0703125.1396484-.1577148.1748047-.2631836l.421875-.824707c.2099609-.3510742.5263672-.8071289.5966797-1.2460938-.140625,0-.28125.0351562-.4394531.0527344h-.0527344c-.0527344,0-.1220703,0-.1748047-.0175781-.6318359-.3154297-.7021484-.3505859-1.4042969-.5439453-.2451172-.0698242-.4912109-.2104492-.7197266-.3505859-.3681641-.1933594-.6660156-.4389648-.8945312-.7900391-.0703125-.1225586-.1933594-.2456055-.2978516-.3681641v-.0351562ZM105.1611328,1.175293c.0527344-.0175781.1230469-.0175781.1933594-.034668.0351562-.0175781.0703125-.0351562.1054688-.0351562l1.4912109-.0351562c.5087891-.0175781.8427734.0351562,1.3339844.1577148.2451172.0527344.4912109.0527344.6669922.2109375.1220703.1049805.4208984.3505859.4912109.4208984.2099609.2456055.2978516,1.0878906.1230469,1.3510742l-.0703125.4038086,1.5087891-.1757812.2460938-.0522461,1.4736328-.2285156c.1582031-.0175781.5615234-.0175781.6845703-.1049805l-.0878906-.4038086c0-.1577148.0175781-.315918.0351562-.4736328v-.0878906c0-.2280273-.1054688-.4736328-.1933594-.684082-.4208984-.3510742-.7724609-.8076172-1.0175781-1.28125.1054688-.0351562.2109375-.0351562.3154297-.0175781.0527344-.0527344.1054688-.1049805.1757812-.1049805.0527344,0,.1230469.0175781.3681641.1049805.2636719.0878906.5263672,0,.7900391.0703125.4560547.140625.5615234.3510742,1.2988281.6669922.3505859.2807617.9121094.4384766.9121094.9824219,0,.1928711-.1933594.6318359-.2626953.8422852-.0175781.0351562-.0175781.1230469,0,.1582031.5439453-.0351562,1.0703125-.1230469,1.6142578-.1757812.1396484-.0175781.2275391-.1401367.2802734-.2631836l.3681641-.1928711v-.0878906c.4746094.0527344.8955078.315918,1.3339844.5087891.28125.1230469.4560547.3334961.6669922.5439453.0175781.1230469.0351562.2456055.0351562.3862305,0,.3686523-.3339844.5087891-.6669922.5966797-.0878906.0175781-.1757812.0175781-.2626953.0527344-.0175781.0175781-.0527344.0175781-.0878906.0175781l-1.5966797-.0175781c-.2988281,0-.5791016-.0175781-.8779297-.0175781-.2451172,0-.4912109.0351562-.7373047.0351562-.2802734,0-.5263672-.0351562-.8066406.0175781l-1.3691406.1225586c-.1748047.0175781-.3681641.0703125-.5439453.1054688-.5966797.1225586-1.1054688.1225586-1.6318359.4560547-.0703125.0351562-.2978516.0351562-.3857422.0351562-.28125,0-.5439453-.2280273-.7900391-.3334961-.3505859-.1401367-.6318359-.3857422-.9648438-.5439453-.0527344-.0351562-.1054688-.0703125-.1582031-.1225586-.0351562-.0527344-.1230469-.1582031-.2099609-.1582031h-.1582031c-.1757812,0-.5087891-.1577148-.6845703-.2104492-.2109375-.0703125-.4208984-.2983398-.5615234-.4389648-.1230469-.1225586-.2451172-.2807617-.3857422-.3681641l-1.0351562-.7197266c-.28125-.1928711-.4912109-.4033203-.7197266-.6489258l-.2636719-.1933594.0175781-.0351562ZM108.7236328,11.9321289c.2460938-.0175781.5087891-.0351562.7548828-.0703125l1.3154297-.2280273h.0878906l1.1933594-.1577148c.3505859-.0351562.7021484-.1230469,1.0527344-.1230469.0703125,0,.140625.0175781.2109375.0175781.1582031,0,.0878906-.1401367.0175781-.2104492-.140625-.0703125-.2460938-.1582031-.3515625-.2631836-.0693359-.0527344-.1396484-.0878906-.2099609-.1230469l-.0175781-.0703125c.140625-.0698242.2626953-.0874023.4208984-.0874023.4560547,0,.8945312.1049805,1.3164062.2631836.1748047-.1928711.2978516-.4213867.4033203-.6494141.0527344-.0878906.1054688-.175293.1757812-.2456055.0878906-.1225586.1572266-.2280273.2275391-.3686523l-.0351562-.0175781c-.2099609.0703125-.7539062.1582031-.9824219.1757812-.3505859.1577148-.7197266.2280273-1.1054688.315918-.0527344.0175781-.1054688.0522461-.1582031.0698242-.0527344.140625-.1220703.2636719-.2978516.2807617-.0175781,0-.0527344,0-.0703125.0175781l-.1230469.1054688c-.4560547-.0175781-.3505859-.0351562-.7539062-.1230469l-.1054688-.0698242-1.1230469-.8950195c-.1757812-.1928711-.4560547-.3862305-.5263672-.6318359.1923828-.0175781.3857422-.0175781.5966797-.0175781.2451172,0,.5087891,0,.7363281.0703125.1054688.0175781.2109375.0703125.3164062.0527344l1.5439453-.2983398,2.4394531-.2807617c.1220703,0,.2451172-.0527344.2451172-.1928711,0-.0703125-.0175781-.140625-.0175781-.1933594l.0527344-.0175781.0878906.0351562c.1582031-.0703125.28125-.0351562.4384766.0175781.1054688,0,.2109375,0,.3164062.0351562.0869141.0351562.1748047.0878906.2451172.1577148.2285156.1230469.4560547.2109375.6494141.4038086.1054688.0878906.5439453.5263672.5791016.6494141.0351562.0874023.0878906.3681641.0878906.4560547,0,.3686523-.4033203.4208984-.9121094.4384766-.1757812,0-.3339844.0878906-.5791016.2460938-.140625.034668-.2636719.0698242-.3867188.1401367-.1054688.0527344-.1923828.0878906-.2978516.1054688-.3164062.2280273-.5439453.2807617-.8955078.4208984-.0527344.0175781-.0869141.0527344-.1396484.0878906.0527344.0351562.0869141.0703125.1572266.0703125s.1230469-.0175781.1933594-.0175781c.140625-.0175781.2978516-.0351562.4384766-.0351562.1582031,0,.3164062.0175781.4560547.0175781.140625,0,.5791016-.0527344,1.0009766-.0527344.1044922-.0175781.1923828-.0351562.2978516-.0703125h.1757812c.0351562-.0703125.1054688-.1225586.1748047-.1577148.0527344-.0527344.1054688-.1230469.140625-.2109375l.1582031-.0170898.0527344-.0703125c.2451172,0,.6845703.1928711.8945312.3510742.3867188.2978516.9824219.7016602,1.1933594,1.140625-.2109375.5263672-.3154297.7895508-.9648438.7895508-.1054688,0-.2109375-.0175781-.2988281-.0351562-.5439453-.140625-.8769531-.2456055-1.4384766-.2807617-.2460938-.0527344-.4912109-.0878906-.7373047-.1230469-.2451172-.0351562-.5087891-.0527344-.7714844-.0527344-.140625,0-.28125,0-.4394531.0175781l.0175781.1230469.0175781,1.6318359c-.0527344.3510742-.0703125.6845703-.1054688,1.0527344-.1220703.1933594-.2275391.4038086-.3154297.6142578-.1054688.2631836-.3330078.456543-.5087891.6845703-.1054688.1049805-.2460938.1577148-.3857422.2104492h-.3339844c-.6669922-.6142578-.6318359-.4213867-.9472656-1.3334961-.0878906-.2280273-.6494141-.824707-.8603516-.9125977-.2978516-.1230469-.5957031-.2456055-.9121094-.3334961l-.0703125-.0878906c.1582031-.034668.3164062-.0698242.4912109-.0698242h.2988281c.140625,0,.2451172-.0175781.3681641-.0527344l1.4570312-.0878906c.0517578-.3334961.0351562-.8950195-.0175781-1.2280273l-.5966797.0351562-1.3515625.1577148c-.7197266.2104492-.7548828.0878906-1.3515625.4384766-.0341797.0175781-.1220703,0-.1572266,0-.0703125-.034668-.140625-.0522461-.2109375-.0874023-.140625-.0878906-.7197266-.2631836-.9121094-.3334961-.28125-.2104492-.7197266-.2456055-.9482422-.5263672h-.0517578c-.0175781-.0351562-.0527344-.0703125-.0878906-.0878906-.0527344-.0351562-.1054688-.0703125-.2285156-.1401367l.0175781-.0703125c.2460938-.0527344.4384766-.0878906.5791016-.0878906ZM109.8994141,5.4921875l.2978516-.1054688,1.5449219-.1401367.7890625-.175293,1.5273438-.1757812,1.4560547-.0703125c.1757812-.0170898.3505859-.0170898.5263672-.0170898.1582031,0,.3154297-.0351562.4912109-.0703125.0703125-.0878906.140625-.1757812.1933594-.2807617.1230469-.0351562.2275391-.0527344.2802734-.0527344.0878906,0,.1757812.0527344.28125.1225586.0351562.0175781.0878906.0703125.140625.0878906.0341797.0175781.1044922.0175781.1572266.0351562.28125.2456055.6669922.3862305,1,.5615234.3164062.175293.3339844.2983398.2636719.6142578,0,.0351562,0,.0703125-.0175781.1054688-.1054688.1049805-.2285156.2631836-.5615234.7895508-.0878906.1225586-.140625.1928711-.140625.2280273s.0703125.0878906.0878906.1054688c.0351562.0522461.0703125.1401367.0703125.2104492,0,.2456055-.2978516.4033203-.5263672.4033203-.1054688,0-.2109375-.0175781-.3154297-.0175781-.1230469,0-.2460938,0-.3867188.0175781-.0351562.0175781-.0703125.0175781-.1230469.0175781-.1572266,0-.3330078-.0351562-.5087891-.0351562-.6318359,0-1.2978516.0878906-1.9296875.2109375l-1.6142578.315918-.0703125-.0351562c-.1230469.0874023-.28125.1928711-.4560547.1928711-.2109375,0-.4394531-.1577148-.6142578-.2807617-.5791016-.4038086-.7197266-1.0351562-.9658203-1.6494141-.1572266-.4213867-.3857422-.5615234-.7714844-.7373047-.0351562-.0175781-.0878906-.0522461-.1230469-.0698242l.0175781-.1054688ZM116.1464844,5.737793h-.5263672l-1.5097656.2456055c-.2099609.0351562-.4384766.0351562-.6484375.0878906-.2460938.0527344-.4746094.1054688-.7197266.1230469v.034668c.0351562.0703125.0527344.1757812.0703125.4038086.0175781.1230469.0703125.2983398.2451172.2983398.0175781,0,.2636719-.0351562.5791016-.0878906.3691406-.0527344.5791016-.0703125.6142578-.0703125.4560547-.0698242,1.28125-.1049805,1.3515625-.1049805.1230469,0,.2451172-.0175781.3681641-.0527344l.1757812-.8774414Z"/>
        <path class="cls-1" d="M125.2548828,7.4750977c2.0712891-.1230469,4.1240234-.2631836,6.1943359-.3686523,1.3867188-.0874023,2.7724609-.1049805,4.1767578-.1225586.3330078,0,.4033203-.0527344.7197266-.4213867.5263672.3510742,1.1054688.6142578,1.6494141.8950195.3330078.175293.7539062.4912109.7539062.9125977,0,.6318359-.7363281.9301758-1.2802734.9301758-.4912109,0-.9658203-.0527344-1.4394531-.1230469-1.0175781-.140625-2.0703125-.2104492-3.1054688-.2104492-1.3339844,0-3.5449219.1928711-4.8261719.4560547-.2978516.0527344-.5791016.1928711-.859375.2983398-.2285156.0527344-.28125.0703125-.7021484.1928711-.2802734,0-1.2285156-.5615234-1.5263672-.7192383-.1933594-.1054688-2.140625-1.456543-2.28125-1.5791016.8242188-.1230469,1.6845703-.0878906,2.5263672-.140625Z"/>
      </g>
    </g>
  </g>
</svg>